{"tick_pixels": 100, "height": 720, "history": {"redo": [], "undo": [{"old_values": {"waveform": false, "volume": {"Points": [{"interpolation": 2, "co": {"X": 1.0, "Y": 1.0}}]}, "perspective_c2_y": {"Points": [{"interpolation": 2, "co": {"X": 1.0, "Y": -1.0}}]}, "crop_height": {"Points": [{"interpolation": 2, "co": {"X": 1.0, "Y": -1.0}}]}, "has_audio": {"Points": [{"interpolation": 2, "co": {"X": 1.0, "Y": -1.0}}]}, "location_x": {"Points": [{"interpolation": 2, "co": {"X": 1.0, "Y": 0.0}}]}, "time": {"Points": [{"interpolation": 2, "co": {"X": 1.0, "Y": 1.0}}]}, "scale": 1, "perspective_c3_x": {"Points": [{"interpolation": 2, "co": {"X": 1.0, "Y": -1.0}}]}, "end": 22.94104385375977, "has_video": {"Points": [{"interpolation": 2, "co": {"X": 1.0, "Y": -1.0}}]}, "channel_filter": {"Points": [{"interpolation": 2, "co": {"X": 1.0, "Y": -1.0}}]}, "gravity": 4, "perspective_c4_y": {"Points": [{"interpolation": 2, "co": {"X": 1.0, "Y": -1.0}}]}, "perspective_c1_y": {"Points": [{"interpolation": 2, "co": {"X": 1.0, "Y": -1.0}}]}, "shear_y": {"Points": [{"interpolation": 2, "co": {"X": 1.0, "Y": 0.0}}]}, "perspective_c4_x": {"Points": [{"interpolation": 2, "co": {"X": 1.0, "Y": -1.0}}]}, "perspective_c1_x": {"Points": [{"interpolation": 2, "co": {"X": 1.0, "Y": -1.0}}]}, "file_id": "PBZDJATIGN", "rotation": {"Points": [{"interpolation": 2, "co": {"X": 1.0, "Y": 0.0}}]}, "id": "TGURL6WJII", "wave_color": {"blue": {"Points": [{"interpolation": 0, "handle_left": {"X": 0.5, "Y": 1.0}, "handle_right": {"X": 0.5, "Y": 0.0}, "co": {"X": 1.0, "Y": 255.0}, "handle_type": 0}]}, "green": {"Points": [{"interpolation": 0, "handle_left": {"X": 0.5, "Y": 1.0}, "handle_right": {"X": 0.5, "Y": 0.0}, "co": {"X": 1.0, "Y": 123.0}, "handle_type": 0}]}, "alpha": {"Points": [{"interpolation": 0, "handle_left": {"X": 0.5, "Y": 1.0}, "handle_right": {"X": 0.5, "Y": 0.0}, "co": {"X": 1.0, "Y": 255.0}, "handle_type": 0}]}, "red": {"Points": [{"interpolation": 0, "handle_left": {"X": 0.5, "Y": 1.0}, "handle_right": {"X": 0.5, "Y": 0.0}, "co": {"X": 1.0, "Y": 0.0}, "handle_type": 0}]}}, "reader": {"height": 720, "pixel_ratio": {"num": 1, "den": 1}, "has_single_image": false, "audio_timebase": {"num": 1, "den": 44100}, "audio_stream_index": 1, "display_ratio": {"num": 16, "den": 9}, "channel_layout": 3, "has_audio": true, "video_timebase": {"num": 1, "den": 15360}, "video_bit_rate": 3160877, "duration": 22.94104385375977, "fps": {"num": 60, "den": 1}, "channels": 2, "has_video": true, "video_stream_index": 0, "width": 1280, "acodec": "aac", "top_field_first": true, "pixel_format": 0, "vcodec": "h264", "file_size": "9074485", "path": "C:/VS/Video/2018-03-11_17-28-25.mp4", "type": "FFmpegReader", "sample_rate": 44100, "interlaced_frame": false, "video_length": "1378", "audio_bit_rate": 97243}, "display": 0, "anchor": 0, "perspective_c3_y": {"Points": [{"interpolation": 2, "co": {"X": 1.0, "Y": -1.0}}]}, "scale_y": {"Points": [{"interpolation": 2, "co": {"X": 1.0, "Y": 1.0}}]}, "crop_width": {"Points": [{"interpolation": 2, "co": {"X": 1.0, "Y": -1.0}}]}, "position": 55.875, "crop_y": {"Points": [{"interpolation": 2, "co": {"X": 1.0, "Y": 0.0}}]}, "channel_mapping": {"Points": [{"interpolation": 2, "co": {"X": 1.0, "Y": -1.0}}]}, "effects": [], "layer": 4, "shear_x": {"Points": [{"interpolation": 2, "co": {"X": 1.0, "Y": 0.0}}]}, "alpha": {"Points": [{"interpolation": 2, "co": {"X": 1.0, "Y": 1.0}}]}, "perspective_c2_x": {"Points": [{"interpolation": 2, "co": {"X": 1.0, "Y": -1.0}}]}, "duration": 22.94104385375977, "image": "C:\\Users\\yifan\\.openshot_qt\\thumbnail\\TGURL6WJII-198.png", "scale_x": {"Points": [{"interpolation": 2, "co": {"X": 1.0, "Y": 1.0}}]}, "location_y": {"Points": [{"interpolation": 2, "co": {"X": 1.0, "Y": 0.0}}]}, "start": 3.2916666666666643, "title": "2018-03-11_17-28-25.mp4", "crop_x": {"Points": [{"interpolation": 2, "co": {"X": 1.0, "Y": 0.0}}]}}, "type": "update", "key": ["clips", {"id": "TGURL6WJII"}], "partial": false, "value": {"waveform": false, "volume": {"Points": [{"interpolation": 2, "co": {"X": 1.0, "Y": 1.0}}]}, "perspective_c2_y": {"Points": [{"interpolation": 2, "co": {"X": 1.0, "Y": -1.0}}]}, "crop_height": {"Points": [{"interpolation": 2, "co": {"X": 1.0, "Y": -1.0}}]}, "has_audio": {"Points": [{"interpolation": 2, "co": {"X": 1.0, "Y": -1.0}}]}, "location_x": {"Points": [{"interpolation": 2, "co": {"X": 1.0, "Y": 0.0}}]}, "time": {"Points": [{"interpolation": 2, "co": {"X": 1.0, "Y": 1.0}}]}, "scale": 1, "perspective_c3_x": {"Points": [{"interpolation": 2, "co": {"X": 1.0, "Y": -1.0}}]}, "end": 22.499999999999993, "has_video": {"Points": [{"interpolation": 2, "co": {"X": 1.0, "Y": -1.0}}]}, "channel_filter": {"Points": [{"interpolation": 2, "co": {"X": 1.0, "Y": -1.0}}]}, "gravity": 4, "perspective_c4_y": {"Points": [{"interpolation": 2, "co": {"X": 1.0, "Y": -1.0}}]}, "perspective_c1_y": {"Points": [{"interpolation": 2, "co": {"X": 1.0, "Y": -1.0}}]}, "shear_y": {"Points": [{"interpolation": 2, "co": {"X": 1.0, "Y": 0.0}}]}, "perspective_c4_x": {"Points": [{"interpolation": 2, "co": {"X": 1.0, "Y": -1.0}}]}, "perspective_c1_x": {"Points": [{"interpolation": 2, "co": {"X": 1.0, "Y": -1.0}}]}, "file_id": "PBZDJATIGN", "rotation": {"Points": [{"interpolation": 2, "co": {"X": 1.0, "Y": 0.0}}]}, "id": "TGURL6WJII", "wave_color": {"blue": {"Points": [{"interpolation": 0, "handle_left": {"X": 0.5, "Y": 1.0}, "handle_right": {"X": 0.5, "Y": 0.0}, "co": {"X": 1.0, "Y": 255.0}, "handle_type": 0}]}, "green": {"Points": [{"interpolation": 0, "handle_left": {"X": 0.5, "Y": 1.0}, "handle_right": {"X": 0.5, "Y": 0.0}, "co": {"X": 1.0, "Y": 123.0}, "handle_type": 0}]}, "alpha": {"Points": [{"interpolation": 0, "handle_left": {"X": 0.5, "Y": 1.0}, "handle_right": {"X": 0.5, "Y": 0.0}, "co": {"X": 1.0, "Y": 255.0}, "handle_type": 0}]}, "red": {"Points": [{"interpolation": 0, "handle_left": {"X": 0.5, "Y": 1.0}, "handle_right": {"X": 0.5, "Y": 0.0}, "co": {"X": 1.0, "Y": 0.0}, "handle_type": 0}]}}, "display": 0, "anchor": 0, "perspective_c3_y": {"Points": [{"interpolation": 2, "co": {"X": 1.0, "Y": -1.0}}]}, "scale_y": {"Points": [{"interpolation": 2, "co": {"X": 1.0, "Y": 1.0}}]}, "crop_width": {"Points": [{"interpolation": 2, "co": {"X": 1.0, "Y": -1.0}}]}, "position": 55.875, "crop_y": {"Points": [{"interpolation": 2, "co": {"X": 1.0, "Y": 0.0}}]}, "channel_mapping": {"Points": [{"interpolation": 2, "co": {"X": 1.0, "Y": -1.0}}]}, "effects": [], "layer": 4, "shear_x": {"Points": [{"interpolation": 2, "co": {"X": 1.0, "Y": 0.0}}]}, "alpha": {"Points": [{"interpolation": 2, "co": {"X": 1.0, "Y": 1.0}}]}, "perspective_c2_x": {"Points": [{"interpolation": 2, "co": {"X": 1.0, "Y": -1.0}}]}, "duration": 22.94104385375977, "image": "C:\\Users\\yifan\\.openshot_qt\\thumbnail\\TGURL6WJII-198.png", "scale_x": {"Points": [{"interpolation": 2, "co": {"X": 1.0, "Y": 1.0}}]}, "location_y": {"Points": [{"interpolation": 2, "co": {"X": 1.0, "Y": 0.0}}]}, "start": 3.2916666666666643, "title": "2018-03-11_17-28-25.mp4", "crop_x": {"Points": [{"interpolation": 2, "co": {"X": 1.0, "Y": 0.0}}]}}}, {"old_values": [{"waveform": false, "volume": {"Points": [{"interpolation": 2, "co": {"X": 1.0, "Y": 1.0}}]}, "perspective_c2_y": {"Points": [{"interpolation": 2, "co": {"X": 1.0, "Y": -1.0}}]}, "crop_height": {"Points": [{"interpolation": 2, "co": {"X": 1.0, "Y": -1.0}}]}, "has_audio": {"Points": [{"interpolation": 2, "co": {"X": 1.0, "Y": -1.0}}]}, "location_x": {"Points": [{"interpolation": 2, "co": {"X": 1.0, "Y": 0.0}}]}, "time": {"Points": [{"interpolation": 2, "co": {"X": 1.0, "Y": 1.0}}]}, "scale": 1, "perspective_c3_x": {"Points": [{"interpolation": 2, "co": {"X": 1.0, "Y": -1.0}}]}, "end": 9.625, "has_video": {"Points": [{"interpolation": 2, "co": {"X": 1.0, "Y": -1.0}}]}, "channel_filter": {"Points": [{"interpolation": 2, "co": {"X": 1.0, "Y": -1.0}}]}, "gravity": 4, "perspective_c4_y": {"Points": [{"interpolation": 2, "co": {"X": 1.0, "Y": -1.0}}]}, "perspective_c1_y": {"Points": [{"interpolation": 2, "co": {"X": 1.0, "Y": -1.0}}]}, "shear_y": {"Points": [{"interpolation": 2, "co": {"X": 1.0, "Y": 0.0}}]}, "perspective_c4_x": {"Points": [{"interpolation": 2, "co": {"X": 1.0, "Y": -1.0}}]}, "perspective_c1_x": {"Points": [{"interpolation": 2, "co": {"X": 1.0, "Y": -1.0}}]}, "file_id": "UEMWFW66UU", "rotation": {"Points": [{"interpolation": 2, "co": {"X": 1.0, "Y": 0.0}}]}, "id": "GLRMZCUPL8", "wave_color": {"blue": {"Points": [{"interpolation": 0, "handle_left": {"X": 0.5, "Y": 1.0}, "handle_right": {"X": 0.5, "Y": 0.0}, "co": {"X": 1.0, "Y": 255.0}, "handle_type": 0}]}, "green": {"Points": [{"interpolation": 0, "handle_left": {"X": 0.5, "Y": 1.0}, "handle_right": {"X": 0.5, "Y": 0.0}, "co": {"X": 1.0, "Y": 123.0}, "handle_type": 0}]}, "alpha": {"Points": [{"interpolation": 0, "handle_left": {"X": 0.5, "Y": 1.0}, "handle_right": {"X": 0.5, "Y": 0.0}, "co": {"X": 1.0, "Y": 255.0}, "handle_type": 0}]}, "red": {"Points": [{"interpolation": 0, "handle_left": {"X": 0.5, "Y": 1.0}, "handle_right": {"X": 0.5, "Y": 0.0}, "co": {"X": 1.0, "Y": 0.0}, "handle_type": 0}]}}, "reader": {"height": 720, "pixel_ratio": {"num": 1, "den": 1}, "has_single_image": false, "audio_timebase": {"num": 1, "den": 44100}, "audio_stream_index": 1, "display_ratio": {"num": 16, "den": 9}, "channel_layout": 3, "has_audio": true, "video_timebase": {"num": 1, "den": 15360}, "video_bit_rate": 899354, "duration": 10.1927433013916, "fps": {"num": 30, "den": 1}, "channels": 2, "has_video": true, "video_stream_index": 0, "width": 1280, "acodec": "aac", "top_field_first": true, "pixel_format": 0, "vcodec": "h264", "file_size": "1154209", "path": "C:/VS/Video/2018-03-11_17-18-09.mp4", "type": "FFmpegReader", "sample_rate": 44100, "interlaced_frame": false, "video_length": "308", "audio_bit_rate": 97355}, "display": 0, "anchor": 0, "perspective_c3_y": {"Points": [{"interpolation": 2, "co": {"X": 1.0, "Y": -1.0}}]}, "scale_y": {"Points": [{"interpolation": 2, "co": {"X": 1.0, "Y": 1.0}}]}, "crop_width": {"Points": [{"interpolation": 2, "co": {"X": 1.0, "Y": -1.0}}]}, "position": 0, "crop_y": {"Points": [{"interpolation": 2, "co": {"X": 1.0, "Y": 0.0}}]}, "channel_mapping": {"Points": [{"interpolation": 2, "co": {"X": 1.0, "Y": -1.0}}]}, "effects": [], "layer": 4, "shear_x": {"Points": [{"interpolation": 2, "co": {"X": 1.0, "Y": 0.0}}]}, "alpha": {"Points": [{"interpolation": 2, "co": {"X": 1.0, "Y": 1.0}}]}, "perspective_c2_x": {"Points": [{"interpolation": 2, "co": {"X": 1.0, "Y": -1.0}}]}, "duration": 10.1927433013916, "image": "C:\\Users\\yifan\\.openshot_qt\\thumbnail\\UEMWFW66UU.png", "scale_x": {"Points": [{"interpolation": 2, "co": {"X": 1.0, "Y": 1.0}}]}, "location_y": {"Points": [{"interpolation": 2, "co": {"X": 1.0, "Y": 0.0}}]}, "start": 0, "title": "2018-03-11_17-18-09.mp4", "crop_x": {"Points": [{"interpolation": 2, "co": {"X": 1.0, "Y": 0.0}}]}}, {"waveform": false, "volume": {"Points": [{"interpolation": 2, "co": {"X": 1.0, "Y": 1.0}}]}, "perspective_c2_y": {"Points": [{"interpolation": 2, "co": {"X": 1.0, "Y": -1.0}}]}, "crop_height": {"Points": [{"interpolation": 2, "co": {"X": 1.0, "Y": -1.0}}]}, "has_audio": {"Points": [{"interpolation": 2, "co": {"X": 1.0, "Y": -1.0}}]}, "location_x": {"Points": [{"interpolation": 2, "co": {"X": 1.0, "Y": 0.0}}]}, "time": {"Points": [{"interpolation": 2, "co": {"X": 1.0, "Y": 1.0}}]}, "scale": 1, "perspective_c3_x": {"Points": [{"interpolation": 2, "co": {"X": 1.0, "Y": -1.0}}]}, "end": 11.1904764175415, "has_video": {"Points": [{"interpolation": 2, "co": {"X": 1.0, "Y": -1.0}}]}, "channel_filter": {"Points": [{"interpolation": 2, "co": {"X": 1.0, "Y": -1.0}}]}, "gravity": 4, "perspective_c4_y": {"Points": [{"interpolation": 2, "co": {"X": 1.0, "Y": -1.0}}]}, "perspective_c1_y": {"Points": [{"interpolation": 2, "co": {"X": 1.0, "Y": -1.0}}]}, "shear_y": {"Points": [{"interpolation": 2, "co": {"X": 1.0, "Y": 0.0}}]}, "perspective_c4_x": {"Points": [{"interpolation": 2, "co": {"X": 1.0, "Y": -1.0}}]}, "perspective_c1_x": {"Points": [{"interpolation": 2, "co": {"X": 1.0, "Y": -1.0}}]}, "file_id": "T8PAWZIGV3", "rotation": {"Points": [{"interpolation": 2, "co": {"X": 1.0, "Y": 0.0}}]}, "id": "PL6FQV7VV9", "wave_color": {"blue": {"Points": [{"interpolation": 0, "handle_left": {"X": 0.5, "Y": 1.0}, "handle_right": {"X": 0.5, "Y": 0.0}, "co": {"X": 1.0, "Y": 255.0}, "handle_type": 0}]}, "green": {"Points": [{"interpolation": 0, "handle_left": {"X": 0.5, "Y": 1.0}, "handle_right": {"X": 0.5, "Y": 0.0}, "co": {"X": 1.0, "Y": 123.0}, "handle_type": 0}]}, "alpha": {"Points": [{"interpolation": 0, "handle_left": {"X": 0.5, "Y": 1.0}, "handle_right": {"X": 0.5, "Y": 0.0}, "co": {"X": 1.0, "Y": 255.0}, "handle_type": 0}]}, "red": {"Points": [{"interpolation": 0, "handle_left": {"X": 0.5, "Y": 1.0}, "handle_right": {"X": 0.5, "Y": 0.0}, "co": {"X": 1.0, "Y": 0.0}, "handle_type": 0}]}}, "reader": {"height": 720, "pixel_ratio": {"num": 1, "den": 1}, "has_single_image": false, "audio_timebase": {"num": 1, "den": 44100}, "audio_stream_index": 1, "display_ratio": {"num": 16, "den": 9}, "channel_layout": 3, "has_audio": true, "video_timebase": {"num": 1, "den": 15360}, "video_bit_rate": 748484, "duration": 11.1904764175415, "fps": {"num": 30, "den": 1}, "channels": 2, "has_video": true, "video_stream_index": 0, "width": 1280, "acodec": "aac", "top_field_first": true, "pixel_format": 0, "vcodec": "h264", "file_size": "1054147", "path": "C:/VS/Video/2018-03-11_17-18-49.mp4", "type": "FFmpegReader", "sample_rate": 44100, "interlaced_frame": false, "video_length": "338", "audio_bit_rate": 97344}, "display": 0, "anchor": 0, "perspective_c3_y": {"Points": [{"interpolation": 2, "co": {"X": 1.0, "Y": -1.0}}]}, "scale_y": {"Points": [{"interpolation": 2, "co": {"X": 1.0, "Y": 1.0}}]}, "crop_width": {"Points": [{"interpolation": 2, "co": {"X": 1.0, "Y": -1.0}}]}, "position": 9.385, "crop_y": {"Points": [{"interpolation": 2, "co": {"X": 1.0, "Y": 0.0}}]}, "channel_mapping": {"Points": [{"interpolation": 2, "co": {"X": 1.0, "Y": -1.0}}]}, "effects": [], "layer": 4, "shear_x": {"Points": [{"interpolation": 2, "co": {"X": 1.0, "Y": 0.0}}]}, "alpha": {"Points": [{"interpolation": 2, "co": {"X": 1.0, "Y": 1.0}}, {"interpolation": 0, "handle_left": {"X": 0.5, "Y": 1.0}, "handle_right": {"X": 0.5, "Y": 0.0}, "co": {"X": 1.0, "Y": 0.0}, "handle_type": 0}, {"interpolation": 0, "handle_left": {"X": 0.5, "Y": 1.0}, "handle_right": {"X": 0.5, "Y": 0.0}, "co": {"X": 25.0, "Y": 1.0}, "handle_type": 0}]}, "perspective_c2_x": {"Points": [{"interpolation": 2, "co": {"X": 1.0, "Y": -1.0}}]}, "duration": 11.1904764175415, "image": "C:\\Users\\yifan\\.openshot_qt\\thumbnail\\T8PAWZIGV3.png", "scale_x": {"Points": [{"interpolation": 2, "co": {"X": 1.0, "Y": 1.0}}]}, "location_y": {"Points": [{"interpolation": 2, "co": {"X": 1.0, "Y": 0.0}}]}, "start": 0, "title": "2018-03-11_17-18-49.mp4", "crop_x": {"Points": [{"interpolation": 2, "co": {"X": 1.0, "Y": 0.0}}]}}, {"waveform": false, "volume": {"Points": [{"interpolation": 2, "co": {"X": 1.0, "Y": 1.0}}]}, "perspective_c2_y": {"Points": [{"interpolation": 2, "co": {"X": 1.0, "Y": -1.0}}]}, "crop_height": {"Points": [{"interpolation": 2, "co": {"X": 1.0, "Y": -1.0}}]}, "has_audio": {"Points": [{"interpolation": 2, "co": {"X": 1.0, "Y": -1.0}}]}, "location_x": {"Points": [{"interpolation": 2, "co": {"X": 1.0, "Y": 0.0}}]}, "time": {"Points": [{"interpolation": 2, "co": {"X": 1.0, "Y": 1.0}}]}, "scale": 1, "perspective_c3_x": {"Points": [{"interpolation": 2, "co": {"X": 1.0, "Y": -1.0}}]}, "end": 14.65079402923584, "has_video": {"Points": [{"interpolation": 2, "co": {"X": 1.0, "Y": -1.0}}]}, "channel_filter": {"Points": [{"interpolation": 2, "co": {"X": 1.0, "Y": -1.0}}]}, "gravity": 4, "perspective_c4_y": {"Points": [{"interpolation": 2, "co": {"X": 1.0, "Y": -1.0}}]}, "perspective_c1_y": {"Points": [{"interpolation": 2, "co": {"X": 1.0, "Y": -1.0}}]}, "shear_y": {"Points": [{"interpolation": 2, "co": {"X": 1.0, "Y": 0.0}}]}, "perspective_c4_x": {"Points": [{"interpolation": 2, "co": {"X": 1.0, "Y": -1.0}}]}, "perspective_c1_x": {"Points": [{"interpolation": 2, "co": {"X": 1.0, "Y": -1.0}}]}, "file_id": "4N4N7L5ZEP", "rotation": {"Points": [{"interpolation": 2, "co": {"X": 1.0, "Y": 0.0}}]}, "id": "YKOLD1EBO6", "wave_color": {"blue": {"Points": [{"interpolation": 0, "handle_left": {"X": 0.5, "Y": 1.0}, "handle_right": {"X": 0.5, "Y": 0.0}, "co": {"X": 1.0, "Y": 255.0}, "handle_type": 0}]}, "green": {"Points": [{"interpolation": 0, "handle_left": {"X": 0.5, "Y": 1.0}, "handle_right": {"X": 0.5, "Y": 0.0}, "co": {"X": 1.0, "Y": 123.0}, "handle_type": 0}]}, "alpha": {"Points": [{"interpolation": 0, "handle_left": {"X": 0.5, "Y": 1.0}, "handle_right": {"X": 0.5, "Y": 0.0}, "co": {"X": 1.0, "Y": 255.0}, "handle_type": 0}]}, "red": {"Points": [{"interpolation": 0, "handle_left": {"X": 0.5, "Y": 1.0}, "handle_right": {"X": 0.5, "Y": 0.0}, "co": {"X": 1.0, "Y": 0.0}, "handle_type": 0}]}}, "reader": {"height": 720, "pixel_ratio": {"num": 1, "den": 1}, "has_single_image": false, "audio_timebase": {"num": 1, "den": 44100}, "audio_stream_index": 1, "display_ratio": {"num": 16, "den": 9}, "channel_layout": 3, "has_audio": true, "video_timebase": {"num": 1, "den": 15360}, "video_bit_rate": 3738793, "duration": 14.65079402923584, "fps": {"num": 60, "den": 1}, "channels": 2, "has_video": true, "video_stream_index": 0, "width": 1280, "acodec": "aac", "top_field_first": true, "pixel_format": 0, "vcodec": "h264", "file_size": "6854610", "path": "C:/VS/Video/2018-03-11_17-21-13.mp4", "type": "FFmpegReader", "sample_rate": 44100, "interlaced_frame": false, "video_length": "880", "audio_bit_rate": 97296}, "display": 0, "anchor": 0, "perspective_c3_y": {"Points": [{"interpolation": 2, "co": {"X": 1.0, "Y": -1.0}}]}, "scale_y": {"Points": [{"interpolation": 2, "co": {"X": 1.0, "Y": 1.0}}]}, "crop_width": {"Points": [{"interpolation": 2, "co": {"X": 1.0, "Y": -1.0}}]}, "position": 20.5753125, "crop_y": {"Points": [{"interpolation": 2, "co": {"X": 1.0, "Y": 0.0}}]}, "channel_mapping": {"Points": [{"interpolation": 2, "co": {"X": 1.0, "Y": -1.0}}]}, "effects": [], "layer": 4, "shear_x": {"Points": [{"interpolation": 2, "co": {"X": 1.0, "Y": 0.0}}]}, "alpha": {"Points": [{"interpolation": 2, "co": {"X": 1.0, "Y": 1.0}}]}, "perspective_c2_x": {"Points": [{"interpolation": 2, "co": {"X": 1.0, "Y": -1.0}}]}, "duration": 14.65079402923584, "image": "C:\\Users\\yifan\\.openshot_qt\\thumbnail\\YKOLD1EBO6-361.png", "scale_x": {"Points": [{"interpolation": 2, "co": {"X": 1.0, "Y": 1.0}}]}, "location_y": {"Points": [{"interpolation": 2, "co": {"X": 1.0, "Y": 0.0}}]}, "start": 6.008020833333333, "title": "2018-03-11_17-21-13.mp4", "crop_x": {"Points": [{"interpolation": 2, "co": {"X": 1.0, "Y": 0.0}}]}}, {"waveform": false, "volume": {"Points": [{"interpolation": 2, "co": {"X": 1.0, "Y": 1.0}}]}, "perspective_c2_y": {"Points": [{"interpolation": 2, "co": {"X": 1.0, "Y": -1.0}}]}, "crop_height": {"Points": [{"interpolation": 2, "co": {"X": 1.0, "Y": -1.0}}]}, "has_audio": {"Points": [{"interpolation": 2, "co": {"X": 1.0, "Y": -1.0}}]}, "location_x": {"Points": [{"interpolation": 2, "co": {"X": 1.0, "Y": 0.0}}]}, "time": {"Points": [{"interpolation": 2, "co": {"X": 1.0, "Y": 1.0}}]}, "scale": 1, "perspective_c3_x": {"Points": [{"interpolation": 2, "co": {"X": 1.0, "Y": -1.0}}]}, "end": 10.68027210235596, "has_video": {"Points": [{"interpolation": 2, "co": {"X": 1.0, "Y": -1.0}}]}, "channel_filter": {"Points": [{"interpolation": 2, "co": {"X": 1.0, "Y": -1.0}}]}, "gravity": 4, "perspective_c4_y": {"Points": [{"interpolation": 2, "co": {"X": 1.0, "Y": -1.0}}]}, "perspective_c1_y": {"Points": [{"interpolation": 2, "co": {"X": 1.0, "Y": -1.0}}]}, "shear_y": {"Points": [{"interpolation": 2, "co": {"X": 1.0, "Y": 0.0}}]}, "perspective_c4_x": {"Points": [{"interpolation": 2, "co": {"X": 1.0, "Y": -1.0}}]}, "perspective_c1_x": {"Points": [{"interpolation": 2, "co": {"X": 1.0, "Y": -1.0}}]}, "file_id": "XVWX27G7GK", "rotation": {"Points": [{"interpolation": 2, "co": {"X": 1.0, "Y": 0.0}}]}, "id": "QHMHVMBNVT", "wave_color": {"blue": {"Points": [{"interpolation": 0, "handle_left": {"X": 0.5, "Y": 1.0}, "handle_right": {"X": 0.5, "Y": 0.0}, "co": {"X": 1.0, "Y": 255.0}, "handle_type": 0}]}, "green": {"Points": [{"interpolation": 0, "handle_left": {"X": 0.5, "Y": 1.0}, "handle_right": {"X": 0.5, "Y": 0.0}, "co": {"X": 1.0, "Y": 123.0}, "handle_type": 0}]}, "alpha": {"Points": [{"interpolation": 0, "handle_left": {"X": 0.5, "Y": 1.0}, "handle_right": {"X": 0.5, "Y": 0.0}, "co": {"X": 1.0, "Y": 255.0}, "handle_type": 0}]}, "red": {"Points": [{"interpolation": 0, "handle_left": {"X": 0.5, "Y": 1.0}, "handle_right": {"X": 0.5, "Y": 0.0}, "co": {"X": 1.0, "Y": 0.0}, "handle_type": 0}]}}, "reader": {"height": 720, "pixel_ratio": {"num": 1, "den": 1}, "has_single_image": false, "audio_timebase": {"num": 1, "den": 44100}, "audio_stream_index": 1, "display_ratio": {"num": 16, "den": 9}, "channel_layout": 3, "has_audio": true, "video_timebase": {"num": 1, "den": 15360}, "video_bit_rate": 1180663, "duration": 10.68027210235596, "fps": {"num": 60, "den": 1}, "channels": 2, "has_video": true, "video_stream_index": 0, "width": 1280, "acodec": "aac", "top_field_first": true, "pixel_format": 0, "vcodec": "h264", "file_size": "1579137", "path": "C:/VS/Video/2018-03-11_17-21-49.mp4", "type": "FFmpegReader", "sample_rate": 44100, "interlaced_frame": false, "video_length": "642", "audio_bit_rate": 97347}, "display": 0, "anchor": 0, "perspective_c3_y": {"Points": [{"interpolation": 2, "co": {"X": 1.0, "Y": -1.0}}]}, "scale_y": {"Points": [{"interpolation": 2, "co": {"X": 1.0, "Y": 1.0}}]}, "crop_width": {"Points": [{"interpolation": 2, "co": {"X": 1.0, "Y": -1.0}}]}, "position": 29.218085695902506, "crop_y": {"Points": [{"interpolation": 2, "co": {"X": 1.0, "Y": 0.0}}]}, "channel_mapping": {"Points": [{"interpolation": 2, "co": {"X": 1.0, "Y": -1.0}}]}, "effects": [], "layer": 4, "shear_x": {"Points": [{"interpolation": 2, "co": {"X": 1.0, "Y": 0.0}}]}, "alpha": {"Points": [{"interpolation": 2, "co": {"X": 1.0, "Y": 1.0}}]}, "perspective_c2_x": {"Points": [{"interpolation": 2, "co": {"X": 1.0, "Y": -1.0}}]}, "duration": 10.68027210235596, "image": "C:\\Users\\yifan\\.openshot_qt\\thumbnail\\XVWX27G7GK.png", "scale_x": {"Points": [{"interpolation": 2, "co": {"X": 1.0, "Y": 1.0}}]}, "location_y": {"Points": [{"interpolation": 2, "co": {"X": 1.0, "Y": 0.0}}]}, "start": 0, "title": "2018-03-11_17-21-49.mp4", "crop_x": {"Points": [{"interpolation": 2, "co": {"X": 1.0, "Y": 0.0}}]}}, {"waveform": false, "volume": {"Points": [{"interpolation": 2, "co": {"X": 1.0, "Y": 1.0}}]}, "perspective_c2_y": {"Points": [{"interpolation": 2, "co": {"X": 1.0, "Y": -1.0}}]}, "crop_height": {"Points": [{"interpolation": 2, "co": {"X": 1.0, "Y": -1.0}}]}, "has_audio": {"Points": [{"interpolation": 2, "co": {"X": 1.0, "Y": -1.0}}]}, "location_x": {"Points": [{"interpolation": 2, "co": {"X": 1.0, "Y": 0.0}}]}, "time": {"Points": [{"interpolation": 2, "co": {"X": 1.0, "Y": 1.0}}]}, "scale": 1, "perspective_c3_x": {"Points": [{"interpolation": 2, "co": {"X": 1.0, "Y": -1.0}}]}, "end": 6.601642201741534, "has_video": {"Points": [{"interpolation": 2, "co": {"X": 1.0, "Y": -1.0}}]}, "channel_filter": {"Points": [{"interpolation": 2, "co": {"X": 1.0, "Y": -1.0}}]}, "gravity": 4, "perspective_c4_y": {"Points": [{"interpolation": 2, "co": {"X": 1.0, "Y": -1.0}}]}, "perspective_c1_y": {"Points": [{"interpolation": 2, "co": {"X": 1.0, "Y": -1.0}}]}, "shear_y": {"Points": [{"interpolation": 2, "co": {"X": 1.0, "Y": 0.0}}]}, "perspective_c4_x": {"Points": [{"interpolation": 2, "co": {"X": 1.0, "Y": -1.0}}]}, "perspective_c1_x": {"Points": [{"interpolation": 2, "co": {"X": 1.0, "Y": -1.0}}]}, "file_id": "GH0TMMFPLE", "rotation": {"Points": [{"interpolation": 2, "co": {"X": 1.0, "Y": 0.0}}]}, "id": "1B3HU028O6", "wave_color": {"blue": {"Points": [{"interpolation": 0, "handle_left": {"X": 0.5, "Y": 1.0}, "handle_right": {"X": 0.5, "Y": 0.0}, "co": {"X": 1.0, "Y": 255.0}, "handle_type": 0}]}, "green": {"Points": [{"interpolation": 0, "handle_left": {"X": 0.5, "Y": 1.0}, "handle_right": {"X": 0.5, "Y": 0.0}, "co": {"X": 1.0, "Y": 123.0}, "handle_type": 0}]}, "alpha": {"Points": [{"interpolation": 0, "handle_left": {"X": 0.5, "Y": 1.0}, "handle_right": {"X": 0.5, "Y": 0.0}, "co": {"X": 1.0, "Y": 255.0}, "handle_type": 0}]}, "red": {"Points": [{"interpolation": 0, "handle_left": {"X": 0.5, "Y": 1.0}, "handle_right": {"X": 0.5, "Y": 0.0}, "co": {"X": 1.0, "Y": 0.0}, "handle_type": 0}]}}, "reader": {"height": 720, "pixel_ratio": {"num": 1, "den": 1}, "has_single_image": false, "audio_timebase": {"num": 1, "den": 44100}, "audio_stream_index": 1, "display_ratio": {"num": 16, "den": 9}, "channel_layout": 3, "has_audio": true, "video_timebase": {"num": 1, "den": 15360}, "video_bit_rate": 2437931, "duration": 7.126984119415283, "fps": {"num": 60, "den": 1}, "channels": 2, "has_video": true, "video_stream_index": 0, "width": 1280, "acodec": "aac", "top_field_first": true, "pixel_format": 0, "vcodec": "h264", "file_size": "2174025", "path": "C:/VS/Video/2018-03-11_17-22-13.mp4", "type": "FFmpegReader", "sample_rate": 44100, "interlaced_frame": false, "video_length": "428", "audio_bit_rate": 97450}, "display": 0, "anchor": 0, "perspective_c3_y": {"Points": [{"interpolation": 2, "co": {"X": 1.0, "Y": -1.0}}]}, "scale_y": {"Points": [{"interpolation": 2, "co": {"X": 1.0, "Y": 1.0}}]}, "crop_width": {"Points": [{"interpolation": 2, "co": {"X": 1.0, "Y": -1.0}}]}, "position": 39.898357798258466, "crop_y": {"Points": [{"interpolation": 2, "co": {"X": 1.0, "Y": 0.0}}]}, "channel_mapping": {"Points": [{"interpolation": 2, "co": {"X": 1.0, "Y": -1.0}}]}, "effects": [], "layer": 4, "shear_x": {"Points": [{"interpolation": 2, "co": {"X": 1.0, "Y": 0.0}}]}, "alpha": {"Points": [{"interpolation": 2, "co": {"X": 1.0, "Y": 1.0}}]}, "perspective_c2_x": {"Points": [{"interpolation": 2, "co": {"X": 1.0, "Y": -1.0}}]}, "duration": 7.126984119415283, "image": "C:\\Users\\yifan\\.openshot_qt\\thumbnail\\GH0TMMFPLE.png", "scale_x": {"Points": [{"interpolation": 2, "co": {"X": 1.0, "Y": 1.0}}]}, "location_y": {"Points": [{"interpolation": 2, "co": {"X": 1.0, "Y": 0.0}}]}, "start": 0, "title": "2018-03-11_17-22-13.mp4", "crop_x": {"Points": [{"interpolation": 2, "co": {"X": 1.0, "Y": 0.0}}]}}, {"waveform": false, "volume": {"Points": [{"interpolation": 2, "co": {"X": 1.0, "Y": 1.0}}]}, "perspective_c2_y": {"Points": [{"interpolation": 2, "co": {"X": 1.0, "Y": -1.0}}]}, "crop_height": {"Points": [{"interpolation": 2, "co": {"X": 1.0, "Y": -1.0}}]}, "has_audio": {"Points": [{"interpolation": 2, "co": {"X": 1.0, "Y": -1.0}}]}, "location_x": {"Points": [{"interpolation": 2, "co": {"X": 1.0, "Y": 0.0}}]}, "time": {"Points": [{"interpolation": 2, "co": {"X": 1.0, "Y": 1.0}}]}, "scale": 1, "perspective_c3_x": {"Points": [{"interpolation": 2, "co": {"X": 1.0, "Y": -1.0}}]}, "end": 153.6000213623047, "has_video": {"Points": [{"interpolation": 2, "co": {"X": 1.0, "Y": -1.0}}]}, "channel_filter": {"Points": [{"interpolation": 2, "co": {"X": 1.0, "Y": -1.0}}]}, "gravity": 4, "perspective_c4_y": {"Points": [{"interpolation": 2, "co": {"X": 1.0, "Y": -1.0}}]}, "perspective_c1_y": {"Points": [{"interpolation": 2, "co": {"X": 1.0, "Y": -1.0}}]}, "shear_y": {"Points": [{"interpolation": 2, "co": {"X": 1.0, "Y": 0.0}}]}, "perspective_c4_x": {"Points": [{"interpolation": 2, "co": {"X": 1.0, "Y": -1.0}}]}, "perspective_c1_x": {"Points": [{"interpolation": 2, "co": {"X": 1.0, "Y": -1.0}}]}, "file_id": "1C7ASWD835", "rotation": {"Points": [{"interpolation": 2, "co": {"X": 1.0, "Y": 0.0}}]}, "id": "0JWVPAIAY7", "wave_color": {"blue": {"Points": [{"interpolation": 0, "handle_left": {"X": 0.5, "Y": 1.0}, "handle_right": {"X": 0.5, "Y": 0.0}, "co": {"X": 1.0, "Y": 255.0}, "handle_type": 0}]}, "green": {"Points": [{"interpolation": 0, "handle_left": {"X": 0.5, "Y": 1.0}, "handle_right": {"X": 0.5, "Y": 0.0}, "co": {"X": 1.0, "Y": 123.0}, "handle_type": 0}]}, "alpha": {"Points": [{"interpolation": 0, "handle_left": {"X": 0.5, "Y": 1.0}, "handle_right": {"X": 0.5, "Y": 0.0}, "co": {"X": 1.0, "Y": 255.0}, "handle_type": 0}]}, "red": {"Points": [{"interpolation": 0, "handle_left": {"X": 0.5, "Y": 1.0}, "handle_right": {"X": 0.5, "Y": 0.0}, "co": {"X": 1.0, "Y": 0.0}, "handle_type": 0}]}}, "reader": {"height": 480, "pixel_ratio": {"num": 1, "den": 1}, "has_single_image": false, "audio_timebase": {"num": 1, "den": 44100}, "audio_stream_index": 0, "display_ratio": {"num": 1, "den": 1}, "channel_layout": 3, "has_audio": true, "video_timebase": {"num": 1, "den": 24}, "video_bit_rate": 0, "duration": 153.6000213623047, "fps": {"num": 24, "den": 1}, "channels": 2, "has_video": false, "video_stream_index": -1, "width": 720, "acodec": "pcm_f32le", "top_field_first": true, "pixel_format": -1, "vcodec": "", "file_size": "54192082", "path": "C:/VS/MovementTesting/Assets/Music/Final Boss.wav", "type": "FFmpegReader", "sample_rate": 44100, "interlaced_frame": false, "video_length": "3686", "audio_bit_rate": 2822400}, "display": 0, "anchor": 0, "perspective_c3_y": {"Points": [{"interpolation": 2, "co": {"X": 1.0, "Y": -1.0}}]}, "scale_y": {"Points": [{"interpolation": 2, "co": {"X": 1.0, "Y": 1.0}}]}, "crop_width": {"Points": [{"interpolation": 2, "co": {"X": 1.0, "Y": -1.0}}]}, "position": 0.04166666666666666, "crop_y": {"Points": [{"interpolation": 2, "co": {"X": 1.0, "Y": 0.0}}]}, "channel_mapping": {"Points": [{"interpolation": 2, "co": {"X": 1.0, "Y": -1.0}}]}, "effects": [], "layer": 3, "shear_x": {"Points": [{"interpolation": 2, "co": {"X": 1.0, "Y": 0.0}}]}, "alpha": {"Points": [{"interpolation": 2, "co": {"X": 1.0, "Y": 1.0}}]}, "perspective_c2_x": {"Points": [{"interpolation": 2, "co": {"X": 1.0, "Y": -1.0}}]}, "duration": 153.6000213623047, "image": "C:\\Program Files\\OpenShot Video Editor\\images\\AudioThumbnail.png", "scale_x": {"Points": [{"interpolation": 2, "co": {"X": 1.0, "Y": 1.0}}]}, "location_y": {"Points": [{"interpolation": 2, "co": {"X": 1.0, "Y": 0.0}}]}, "start": 0, "title": "Final Boss.wav", "crop_x": {"Points": [{"interpolation": 2, "co": {"X": 1.0, "Y": 0.0}}]}}, {"waveform": false, "volume": {"Points": [{"interpolation": 2, "co": {"X": 1.0, "Y": 1.0}}]}, "perspective_c2_y": {"Points": [{"interpolation": 2, "co": {"X": 1.0, "Y": -1.0}}]}, "crop_height": {"Points": [{"interpolation": 2, "co": {"X": 1.0, "Y": -1.0}}]}, "has_audio": {"Points": [{"interpolation": 2, "co": {"X": 1.0, "Y": -1.0}}]}, "location_x": {"Points": [{"interpolation": 2, "co": {"X": 1.0, "Y": 0.0}}]}, "time": {"Points": [{"interpolation": 2, "co": {"X": 1.0, "Y": 1.0}}]}, "scale": 1, "perspective_c3_x": {"Points": [{"interpolation": 2, "co": {"X": 1.0, "Y": -1.0}}]}, "end": 9.915, "has_video": {"Points": [{"interpolation": 2, "co": {"X": 1.0, "Y": -1.0}}]}, "channel_filter": {"Points": [{"interpolation": 2, "co": {"X": 1.0, "Y": -1.0}}]}, "gravity": 4, "perspective_c4_y": {"Points": [{"interpolation": 2, "co": {"X": 1.0, "Y": -1.0}}]}, "perspective_c1_y": {"Points": [{"interpolation": 2, "co": {"X": 1.0, "Y": -1.0}}]}, "shear_y": {"Points": [{"interpolation": 2, "co": {"X": 1.0, "Y": 0.0}}]}, "perspective_c4_x": {"Points": [{"interpolation": 2, "co": {"X": 1.0, "Y": -1.0}}]}, "perspective_c1_x": {"Points": [{"interpolation": 2, "co": {"X": 1.0, "Y": -1.0}}]}, "file_id": "DCOSRPQLUE", "rotation": {"Points": [{"interpolation": 2, "co": {"X": 1.0, "Y": 0.0}}]}, "id": "9N232ZSCDX", "wave_color": {"blue": {"Points": [{"interpolation": 0, "handle_left": {"X": 0.5, "Y": 1.0}, "handle_right": {"X": 0.5, "Y": 0.0}, "co": {"X": 1.0, "Y": 255.0}, "handle_type": 0}]}, "green": {"Points": [{"interpolation": 0, "handle_left": {"X": 0.5, "Y": 1.0}, "handle_right": {"X": 0.5, "Y": 0.0}, "co": {"X": 1.0, "Y": 123.0}, "handle_type": 0}]}, "alpha": {"Points": [{"interpolation": 0, "handle_left": {"X": 0.5, "Y": 1.0}, "handle_right": {"X": 0.5, "Y": 0.0}, "co": {"X": 1.0, "Y": 255.0}, "handle_type": 0}]}, "red": {"Points": [{"interpolation": 0, "handle_left": {"X": 0.5, "Y": 1.0}, "handle_right": {"X": 0.5, "Y": 0.0}, "co": {"X": 1.0, "Y": 0.0}, "handle_type": 0}]}}, "reader": {"height": 720, "pixel_ratio": {"num": 1, "den": 1}, "has_single_image": false, "audio_timebase": {"num": 1, "den": 44100}, "audio_stream_index": 1, "display_ratio": {"num": 16, "den": 9}, "channel_layout": 3, "has_audio": true, "video_timebase": {"num": 1, "den": 15360}, "video_bit_rate": 2996517, "duration": 11.63265323638916, "fps": {"num": 60, "den": 1}, "channels": 2, "has_video": true, "video_stream_index": 0, "width": 1280, "acodec": "aac", "top_field_first": true, "pixel_format": 0, "vcodec": "h264", "file_size": "4363678", "path": "C:/VS/Video/2018-03-11_17-25-52.mp4", "type": "FFmpegReader", "sample_rate": 44100, "interlaced_frame": false, "video_length": "699", "audio_bit_rate": 97328}, "display": 0, "anchor": 0, "perspective_c3_y": {"Points": [{"interpolation": 2, "co": {"X": 1.0, "Y": -1.0}}]}, "scale_y": {"Points": [{"interpolation": 2, "co": {"X": 1.0, "Y": 1.0}}]}, "crop_width": {"Points": [{"interpolation": 2, "co": {"X": 1.0, "Y": -1.0}}]}, "position": 45.96, "crop_y": {"Points": [{"interpolation": 2, "co": {"X": 1.0, "Y": 0.0}}]}, "channel_mapping": {"Points": [{"interpolation": 2, "co": {"X": 1.0, "Y": -1.0}}]}, "effects": [], "layer": 4, "shear_x": {"Points": [{"interpolation": 2, "co": {"X": 1.0, "Y": 0.0}}]}, "alpha": {"Points": [{"interpolation": 2, "co": {"X": 1.0, "Y": 1.0}}]}, "perspective_c2_x": {"Points": [{"interpolation": 2, "co": {"X": 1.0, "Y": -1.0}}]}, "duration": 11.63265323638916, "image": "C:\\Users\\yifan\\.openshot_qt\\thumbnail\\DCOSRPQLUE.png", "scale_x": {"Points": [{"interpolation": 2, "co": {"X": 1.0, "Y": 1.0}}]}, "location_y": {"Points": [{"interpolation": 2, "co": {"X": 1.0, "Y": 0.0}}]}, "start": 0, "title": "2018-03-11_17-25-52.mp4", "crop_x": {"Points": [{"interpolation": 2, "co": {"X": 1.0, "Y": 0.0}}]}}, {"waveform": false, "volume": {"Points": [{"interpolation": 2, "co": {"X": 1.0, "Y": 1.0}}]}, "perspective_c2_y": {"Points": [{"interpolation": 2, "co": {"X": 1.0, "Y": -1.0}}]}, "crop_height": {"Points": [{"interpolation": 2, "co": {"X": 1.0, "Y": -1.0}}]}, "has_audio": {"Points": [{"interpolation": 2, "co": {"X": 1.0, "Y": -1.0}}]}, "location_x": {"Points": [{"interpolation": 2, "co": {"X": 1.0, "Y": 0.0}}]}, "time": {"Points": [{"interpolation": 2, "co": {"X": 1.0, "Y": 1.0}}]}, "scale": 1, "perspective_c3_x": {"Points": [{"interpolation": 2, "co": {"X": 1.0, "Y": -1.0}}]}, "end": 22.499999999999993, "has_video": {"Points": [{"interpolation": 2, "co": {"X": 1.0, "Y": -1.0}}]}, "channel_filter": {"Points": [{"interpolation": 2, "co": {"X": 1.0, "Y": -1.0}}]}, "gravity": 4, "perspective_c4_y": {"Points": [{"interpolation": 2, "co": {"X": 1.0, "Y": -1.0}}]}, "perspective_c1_y": {"Points": [{"interpolation": 2, "co": {"X": 1.0, "Y": -1.0}}]}, "shear_y": {"Points": [{"interpolation": 2, "co": {"X": 1.0, "Y": 0.0}}]}, "perspective_c4_x": {"Points": [{"interpolation": 2, "co": {"X": 1.0, "Y": -1.0}}]}, "perspective_c1_x": {"Points": [{"interpolation": 2, "co": {"X": 1.0, "Y": -1.0}}]}, "file_id": "PBZDJATIGN", "rotation": {"Points": [{"interpolation": 2, "co": {"X": 1.0, "Y": 0.0}}]}, "id": "TGURL6WJII", "wave_color": {"blue": {"Points": [{"interpolation": 0, "handle_left": {"X": 0.5, "Y": 1.0}, "handle_right": {"X": 0.5, "Y": 0.0}, "co": {"X": 1.0, "Y": 255.0}, "handle_type": 0}]}, "green": {"Points": [{"interpolation": 0, "handle_left": {"X": 0.5, "Y": 1.0}, "handle_right": {"X": 0.5, "Y": 0.0}, "co": {"X": 1.0, "Y": 123.0}, "handle_type": 0}]}, "alpha": {"Points": [{"interpolation": 0, "handle_left": {"X": 0.5, "Y": 1.0}, "handle_right": {"X": 0.5, "Y": 0.0}, "co": {"X": 1.0, "Y": 255.0}, "handle_type": 0}]}, "red": {"Points": [{"interpolation": 0, "handle_left": {"X": 0.5, "Y": 1.0}, "handle_right": {"X": 0.5, "Y": 0.0}, "co": {"X": 1.0, "Y": 0.0}, "handle_type": 0}]}}, "reader": {"height": 720, "pixel_ratio": {"num": 1, "den": 1}, "has_single_image": false, "audio_timebase": {"num": 1, "den": 44100}, "audio_stream_index": 1, "display_ratio": {"num": 16, "den": 9}, "channel_layout": 3, "has_audio": true, "video_timebase": {"num": 1, "den": 15360}, "video_bit_rate": 3160877, "duration": 22.94104385375977, "fps": {"num": 60, "den": 1}, "channels": 2, "has_video": true, "video_stream_index": 0, "width": 1280, "acodec": "aac", "top_field_first": true, "pixel_format": 0, "vcodec": "h264", "file_size": "9074485", "path": "C:/VS/Video/2018-03-11_17-28-25.mp4", "type": "FFmpegReader", "sample_rate": 44100, "interlaced_frame": false, "video_length": "1378", "audio_bit_rate": 97243}, "display": 0, "anchor": 0, "perspective_c3_y": {"Points": [{"interpolation": 2, "co": {"X": 1.0, "Y": -1.0}}]}, "scale_y": {"Points": [{"interpolation": 2, "co": {"X": 1.0, "Y": 1.0}}]}, "crop_width": {"Points": [{"interpolation": 2, "co": {"X": 1.0, "Y": -1.0}}]}, "position": 55.875, "crop_y": {"Points": [{"interpolation": 2, "co": {"X": 1.0, "Y": 0.0}}]}, "channel_mapping": {"Points": [{"interpolation": 2, "co": {"X": 1.0, "Y": -1.0}}]}, "effects": [], "layer": 4, "shear_x": {"Points": [{"interpolation": 2, "co": {"X": 1.0, "Y": 0.0}}]}, "alpha": {"Points": [{"interpolation": 2, "co": {"X": 1.0, "Y": 1.0}}]}, "perspective_c2_x": {"Points": [{"interpolation": 2, "co": {"X": 1.0, "Y": -1.0}}]}, "duration": 22.94104385375977, "image": "C:\\Users\\yifan\\.openshot_qt\\thumbnail\\TGURL6WJII-198.png", "scale_x": {"Points": [{"interpolation": 2, "co": {"X": 1.0, "Y": 1.0}}]}, "location_y": {"Points": [{"interpolation": 2, "co": {"X": 1.0, "Y": 0.0}}]}, "start": 3.2916666666666643, "title": "2018-03-11_17-28-25.mp4", "crop_x": {"Points": [{"interpolation": 2, "co": {"X": 1.0, "Y": 0.0}}]}}], "type": "insert", "key": ["clips"], "partial": false, "value": {"waveform": false, "channel_mapping": {"Points": [{"interpolation": 2, "co": {"X": 1.0, "Y": -1.0}}]}, "perspective_c2_y": {"Points": [{"interpolation": 2, "co": {"X": 1.0, "Y": -1.0}}]}, "reader": {"height": 720, "channel_layout": 3, "has_video": true, "audio_timebase": {"num": 1, "den": 44100}, "audio_stream_index": 1, "display_ratio": {"num": 16, "den": 9}, "pixel_ratio": {"num": 1, "den": 1}, "video_length": "848", "has_audio": true, "video_timebase": {"num": 1, "den": 15360}, "vcodec": "h264", "duration": 14.11564636230469, "fps": {"num": 60, "den": 1}, "has_single_image": false, "video_stream_index": 0, "width": 1280, "acodec": "aac", "top_field_first": true, "pixel_format": 0, "video_bit_rate": 2766400, "file_size": "4887538", "path": "C:/VS/Video/2018-03-11_17-29-06.mp4", "type": "FFmpegReader", "sample_rate": 44100, "interlaced_frame": false, "channels": 2, "audio_bit_rate": 97309}, "crop_height": {"Points": [{"interpolation": 2, "co": {"X": 1.0, "Y": -1.0}}]}, "time": {"Points": [{"interpolation": 2, "co": {"X": 1.0, "Y": 1.0}}]}, "has_audio": {"Points": [{"interpolation": 2, "co": {"X": 1.0, "Y": -1.0}}]}, "scale": 1, "perspective_c3_x": {"Points": [{"interpolation": 2, "co": {"X": 1.0, "Y": -1.0}}]}, "display": 0, "scale_x": {"Points": [{"interpolation": 2, "co": {"X": 1.0, "Y": 1.0}}]}, "gravity": 4, "end": 12.05020833333333, "perspective_c1_y": {"Points": [{"interpolation": 2, "co": {"X": 1.0, "Y": -1.0}}]}, "perspective_c3_y": {"Points": [{"interpolation": 2, "co": {"X": 1.0, "Y": -1.0}}]}, "shear_y": {"Points": [{"interpolation": 2, "co": {"X": 1.0, "Y": 0.0}}]}, "perspective_c4_x": {"Points": [{"interpolation": 2, "co": {"X": 1.0, "Y": -1.0}}]}, "perspective_c1_x": {"Points": [{"interpolation": 2, "co": {"X": 1.0, "Y": -1.0}}]}, "file_id": "991RFD2R1F", "rotation": {"Points": [{"interpolation": 2, "co": {"X": 1.0, "Y": 0.0}}]}, "id": "NG5RG0J90S", "wave_color": {"blue": {"Points": [{"interpolation": 0, "handle_left": {"X": 0.5, "Y": 1.0}, "handle_right": {"X": 0.5, "Y": 0.0}, "co": {"X": 1.0, "Y": 255.0}, "handle_type": 0}]}, "green": {"Points": [{"interpolation": 0, "handle_left": {"X": 0.5, "Y": 1.0}, "handle_right": {"X": 0.5, "Y": 0.0}, "co": {"X": 1.0, "Y": 123.0}, "handle_type": 0}]}, "alpha": {"Points": [{"interpolation": 0, "handle_left": {"X": 0.5, "Y": 1.0}, "handle_right": {"X": 0.5, "Y": 0.0}, "co": {"X": 1.0, "Y": 255.0}, "handle_type": 0}]}, "red": {"Points": [{"interpolation": 0, "handle_left": {"X": 0.5, "Y": 1.0}, "handle_right": {"X": 0.5, "Y": 0.0}, "co": {"X": 1.0, "Y": 0.0}, "handle_type": 0}]}}, "has_video": {"Points": [{"interpolation": 2, "co": {"X": 1.0, "Y": -1.0}}]}, "anchor": 0, "location_x": {"Points": [{"interpolation": 2, "co": {"X": 1.0, "Y": 0.0}}]}, "scale_y": {"Points": [{"interpolation": 2, "co": {"X": 1.0, "Y": 1.0}}]}, "crop_width": {"Points": [{"interpolation": 2, "co": {"X": 1.0, "Y": -1.0}}]}, "position": 74.533125, "effects": [], "volume": {"Points": [{"interpolation": 2, "co": {"X": 1.0, "Y": 1.0}}]}, "channel_filter": {"Points": [{"interpolation": 2, "co": {"X": 1.0, "Y": -1.0}}]}, "layer": 4, "shear_x": {"Points": [{"interpolation": 2, "co": {"X": 1.0, "Y": 0.0}}]}, "alpha": {"Points": [{"interpolation": 2, "co": {"X": 1.0, "Y": 1.0}}]}, "perspective_c2_x": {"Points": [{"interpolation": 2, "co": {"X": 1.0, "Y": -1.0}}]}, "duration": 14.11564636230469, "start": 3.291666666666657, "image": "C:\\Users\\yifan\\.openshot_qt\\thumbnail\\NG5RG0J90S-198.png", "perspective_c4_y": {"Points": [{"interpolation": 2, "co": {"X": 1.0, "Y": -1.0}}]}, "location_y": {"Points": [{"interpolation": 2, "co": {"X": 1.0, "Y": 0.0}}]}, "crop_y": {"Points": [{"interpolation": 2, "co": {"X": 1.0, "Y": 0.0}}]}, "title": "2018-03-11_17-29-06.mp4", "crop_x": {"Points": [{"interpolation": 2, "co": {"X": 1.0, "Y": 0.0}}]}}}, {"old_values": {"waveform": false, "channel_mapping": {"Points": [{"interpolation": 2, "co": {"X": 1.0, "Y": -1.0}}]}, "perspective_c2_y": {"Points": [{"interpolation": 2, "co": {"X": 1.0, "Y": -1.0}}]}, "crop_height": {"Points": [{"interpolation": 2, "co": {"X": 1.0, "Y": -1.0}}]}, "has_audio": {"Points": [{"interpolation": 2, "co": {"X": 1.0, "Y": -1.0}}]}, "crop_y": {"Points": [{"interpolation": 2, "co": {"X": 1.0, "Y": 0.0}}]}, "perspective_c2_x": {"Points": [{"interpolation": 2, "co": {"X": 1.0, "Y": -1.0}}]}, "scale": 1, "perspective_c3_x": {"Points": [{"interpolation": 2, "co": {"X": 1.0, "Y": -1.0}}]}, "end": 14.11564636230469, "gravity": 4, "perspective_c4_y": {"Points": [{"interpolation": 2, "co": {"X": 1.0, "Y": -1.0}}]}, "perspective_c1_y": {"Points": [{"interpolation": 2, "co": {"X": 1.0, "Y": -1.0}}]}, "perspective_c3_y": {"Points": [{"interpolation": 2, "co": {"X": 1.0, "Y": -1.0}}]}, "shear_y": {"Points": [{"interpolation": 2, "co": {"X": 1.0, "Y": 0.0}}]}, "perspective_c4_x": {"Points": [{"interpolation": 2, "co": {"X": 1.0, "Y": -1.0}}]}, "perspective_c1_x": {"Points": [{"interpolation": 2, "co": {"X": 1.0, "Y": -1.0}}]}, "file_id": "991RFD2R1F", "rotation": {"Points": [{"interpolation": 2, "co": {"X": 1.0, "Y": 0.0}}]}, "layer": 4, "duration": 14.11564636230469, "reader": {"height": 720, "pixel_ratio": {"num": 1, "den": 1}, "has_single_image": false, "audio_timebase": {"num": 1, "den": 44100}, "audio_stream_index": 1, "display_ratio": {"num": 16, "den": 9}, "channel_layout": 3, "has_audio": true, "video_timebase": {"num": 1, "den": 15360}, "video_bit_rate": 2766400, "duration": 14.11564636230469, "fps": {"num": 60, "den": 1}, "channels": 2, "has_video": true, "video_stream_index": 0, "width": 1280, "acodec": "aac", "top_field_first": true, "pixel_format": 0, "vcodec": "h264", "file_size": "4887538", "path": "C:/VS/Video/2018-03-11_17-29-06.mp4", "type": "FFmpegReader", "sample_rate": 44100, "interlaced_frame": false, "video_length": "848", "audio_bit_rate": 97309}, "has_video": {"Points": [{"interpolation": 2, "co": {"X": 1.0, "Y": -1.0}}]}, "anchor": 0, "location_x": {"Points": [{"interpolation": 2, "co": {"X": 1.0, "Y": 0.0}}]}, "scale_y": {"Points": [{"interpolation": 2, "co": {"X": 1.0, "Y": 1.0}}]}, "crop_width": {"Points": [{"interpolation": 2, "co": {"X": 1.0, "Y": -1.0}}]}, "position": 78.16, "effects": [], "volume": {"Points": [{"interpolation": 2, "co": {"X": 1.0, "Y": 1.0}}]}, "channel_filter": {"Points": [{"interpolation": 2, "co": {"X": 1.0, "Y": -1.0}}]}, "display": 0, "id": "NG5RG0J90S", "shear_x": {"Points": [{"interpolation": 2, "co": {"X": 1.0, "Y": 0.0}}]}, "alpha": {"Points": [{"interpolation": 2, "co": {"X": 1.0, "Y": 1.0}}]}, "wave_color": {"blue": {"Points": [{"interpolation": 0, "handle_left": {"X": 0.5, "Y": 1.0}, "handle_right": {"X": 0.5, "Y": 0.0}, "co": {"X": 1.0, "Y": 255.0}, "handle_type": 0}]}, "green": {"Points": [{"interpolation": 0, "handle_left": {"X": 0.5, "Y": 1.0}, "handle_right": {"X": 0.5, "Y": 0.0}, "co": {"X": 1.0, "Y": 123.0}, "handle_type": 0}]}, "alpha": {"Points": [{"interpolation": 0, "handle_left": {"X": 0.5, "Y": 1.0}, "handle_right": {"X": 0.5, "Y": 0.0}, "co": {"X": 1.0, "Y": 255.0}, "handle_type": 0}]}, "red": {"Points": [{"interpolation": 0, "handle_left": {"X": 0.5, "Y": 1.0}, "handle_right": {"X": 0.5, "Y": 0.0}, "co": {"X": 1.0, "Y": 0.0}, "handle_type": 0}]}}, "image": "C:\\Users\\yifan\\.openshot_qt\\thumbnail\\991RFD2R1F.png", "scale_x": {"Points": [{"interpolation": 2, "co": {"X": 1.0, "Y": 1.0}}]}, "location_y": {"Points": [{"interpolation": 2, "co": {"X": 1.0, "Y": 0.0}}]}, "start": 0.0, "title": "2018-03-11_17-29-06.mp4", "time": {"Points": [{"interpolation": 2, "co": {"X": 1.0, "Y": 1.0}}]}, "crop_x": {"Points": [{"interpolation": 2, "co": {"X": 1.0, "Y": 0.0}}]}}, "type": "update", "key": ["clips", {"id": "NG5RG0J90S"}], "partial": false, "value": {"end": 14.11564636230469, "start": 0, "position": 75.04166666666667, "image": "C:\\Users\\yifan\\.openshot_qt\\thumbnail\\991RFD2R1F.png", "id": "NG5RG0J90S", "layer": 4}}, {"old_values": {"waveform": false, "volume": {"Points": [{"interpolation": 2, "co": {"X": 1.0, "Y": 1.0}}]}, "perspective_c2_y": {"Points": [{"interpolation": 2, "co": {"X": 1.0, "Y": -1.0}}]}, "crop_height": {"Points": [{"interpolation": 2, "co": {"X": 1.0, "Y": -1.0}}]}, "has_audio": {"Points": [{"interpolation": 2, "co": {"X": 1.0, "Y": -1.0}}]}, "location_x": {"Points": [{"interpolation": 2, "co": {"X": 1.0, "Y": 0.0}}]}, "time": {"Points": [{"interpolation": 2, "co": {"X": 1.0, "Y": 1.0}}]}, "scale": 1, "perspective_c3_x": {"Points": [{"interpolation": 2, "co": {"X": 1.0, "Y": -1.0}}]}, "end": 14.11564636230469, "has_video": {"Points": [{"interpolation": 2, "co": {"X": 1.0, "Y": -1.0}}]}, "channel_filter": {"Points": [{"interpolation": 2, "co": {"X": 1.0, "Y": -1.0}}]}, "gravity": 4, "perspective_c4_y": {"Points": [{"interpolation": 2, "co": {"X": 1.0, "Y": -1.0}}]}, "perspective_c1_y": {"Points": [{"interpolation": 2, "co": {"X": 1.0, "Y": -1.0}}]}, "shear_y": {"Points": [{"interpolation": 2, "co": {"X": 1.0, "Y": 0.0}}]}, "perspective_c4_x": {"Points": [{"interpolation": 2, "co": {"X": 1.0, "Y": -1.0}}]}, "perspective_c1_x": {"Points": [{"interpolation": 2, "co": {"X": 1.0, "Y": -1.0}}]}, "file_id": "991RFD2R1F", "rotation": {"Points": [{"interpolation": 2, "co": {"X": 1.0, "Y": 0.0}}]}, "id": "NG5RG0J90S", "wave_color": {"blue": {"Points": [{"interpolation": 0, "handle_left": {"X": 0.5, "Y": 1.0}, "handle_right": {"X": 0.5, "Y": 0.0}, "co": {"X": 1.0, "Y": 255.0}, "handle_type": 0}]}, "green": {"Points": [{"interpolation": 0, "handle_left": {"X": 0.5, "Y": 1.0}, "handle_right": {"X": 0.5, "Y": 0.0}, "co": {"X": 1.0, "Y": 123.0}, "handle_type": 0}]}, "alpha": {"Points": [{"interpolation": 0, "handle_left": {"X": 0.5, "Y": 1.0}, "handle_right": {"X": 0.5, "Y": 0.0}, "co": {"X": 1.0, "Y": 255.0}, "handle_type": 0}]}, "red": {"Points": [{"interpolation": 0, "handle_left": {"X": 0.5, "Y": 1.0}, "handle_right": {"X": 0.5, "Y": 0.0}, "co": {"X": 1.0, "Y": 0.0}, "handle_type": 0}]}}, "reader": {"height": 720, "pixel_ratio": {"num": 1, "den": 1}, "has_single_image": false, "audio_timebase": {"num": 1, "den": 44100}, "audio_stream_index": 1, "display_ratio": {"num": 16, "den": 9}, "channel_layout": 3, "has_audio": true, "video_timebase": {"num": 1, "den": 15360}, "video_bit_rate": 2766400, "duration": 14.11564636230469, "fps": {"num": 60, "den": 1}, "channels": 2, "has_video": true, "video_stream_index": 0, "width": 1280, "acodec": "aac", "top_field_first": true, "pixel_format": 0, "vcodec": "h264", "file_size": "4887538", "path": "C:/VS/Video/2018-03-11_17-29-06.mp4", "type": "FFmpegReader", "sample_rate": 44100, "interlaced_frame": false, "video_length": "848", "audio_bit_rate": 97309}, "display": 0, "anchor": 0, "perspective_c3_y": {"Points": [{"interpolation": 2, "co": {"X": 1.0, "Y": -1.0}}]}, "scale_y": {"Points": [{"interpolation": 2, "co": {"X": 1.0, "Y": 1.0}}]}, "crop_width": {"Points": [{"interpolation": 2, "co": {"X": 1.0, "Y": -1.0}}]}, "position": 75.04166666666667, "crop_y": {"Points": [{"interpolation": 2, "co": {"X": 1.0, "Y": 0.0}}]}, "channel_mapping": {"Points": [{"interpolation": 2, "co": {"X": 1.0, "Y": -1.0}}]}, "effects": [], "layer": 4, "shear_x": {"Points": [{"interpolation": 2, "co": {"X": 1.0, "Y": 0.0}}]}, "alpha": {"Points": [{"interpolation": 2, "co": {"X": 1.0, "Y": 1.0}}]}, "perspective_c2_x": {"Points": [{"interpolation": 2, "co": {"X": 1.0, "Y": -1.0}}]}, "duration": 14.11564636230469, "image": "C:\\Users\\yifan\\.openshot_qt\\thumbnail\\991RFD2R1F.png", "scale_x": {"Points": [{"interpolation": 2, "co": {"X": 1.0, "Y": 1.0}}]}, "location_y": {"Points": [{"interpolation": 2, "co": {"X": 1.0, "Y": 0.0}}]}, "start": 0, "title": "2018-03-11_17-29-06.mp4", "crop_x": {"Points": [{"interpolation": 2, "co": {"X": 1.0, "Y": 0.0}}]}}, "type": "update", "key": ["clips", {"id": "NG5RG0J90S"}], "partial": false, "value": {"waveform": false, "volume": {"Points": [{"interpolation": 2, "co": {"X": 1.0, "Y": 1.0}}]}, "perspective_c2_y": {"Points": [{"interpolation": 2, "co": {"X": 1.0, "Y": -1.0}}]}, "crop_height": {"Points": [{"interpolation": 2, "co": {"X": 1.0, "Y": -1.0}}]}, "has_audio": {"Points": [{"interpolation": 2, "co": {"X": 1.0, "Y": -1.0}}]}, "location_x": {"Points": [{"interpolation": 2, "co": {"X": 1.0, "Y": 0.0}}]}, "time": {"Points": [{"interpolation": 2, "co": {"X": 1.0, "Y": 1.0}}]}, "scale": 1, "perspective_c3_x": {"Points": [{"interpolation": 2, "co": {"X": 1.0, "Y": -1.0}}]}, "end": 14.11564636230469, "has_video": {"Points": [{"interpolation": 2, "co": {"X": 1.0, "Y": -1.0}}]}, "channel_filter": {"Points": [{"interpolation": 2, "co": {"X": 1.0, "Y": -1.0}}]}, "gravity": 4, "perspective_c4_y": {"Points": [{"interpolation": 2, "co": {"X": 1.0, "Y": -1.0}}]}, "perspective_c1_y": {"Points": [{"interpolation": 2, "co": {"X": 1.0, "Y": -1.0}}]}, "shear_y": {"Points": [{"interpolation": 2, "co": {"X": 1.0, "Y": 0.0}}]}, "perspective_c4_x": {"Points": [{"interpolation": 2, "co": {"X": 1.0, "Y": -1.0}}]}, "perspective_c1_x": {"Points": [{"interpolation": 2, "co": {"X": 1.0, "Y": -1.0}}]}, "file_id": "991RFD2R1F", "rotation": {"Points": [{"interpolation": 2, "co": {"X": 1.0, "Y": 0.0}}]}, "id": "NG5RG0J90S", "wave_color": {"blue": {"Points": [{"interpolation": 0, "handle_left": {"X": 0.5, "Y": 1.0}, "handle_right": {"X": 0.5, "Y": 0.0}, "co": {"X": 1.0, "Y": 255.0}, "handle_type": 0}]}, "green": {"Points": [{"interpolation": 0, "handle_left": {"X": 0.5, "Y": 1.0}, "handle_right": {"X": 0.5, "Y": 0.0}, "co": {"X": 1.0, "Y": 123.0}, "handle_type": 0}]}, "alpha": {"Points": [{"interpolation": 0, "handle_left": {"X": 0.5, "Y": 1.0}, "handle_right": {"X": 0.5, "Y": 0.0}, "co": {"X": 1.0, "Y": 255.0}, "handle_type": 0}]}, "red": {"Points": [{"interpolation": 0, "handle_left": {"X": 0.5, "Y": 1.0}, "handle_right": {"X": 0.5, "Y": 0.0}, "co": {"X": 1.0, "Y": 0.0}, "handle_type": 0}]}}, "display": 0, "anchor": 0, "perspective_c3_y": {"Points": [{"interpolation": 2, "co": {"X": 1.0, "Y": -1.0}}]}, "scale_y": {"Points": [{"interpolation": 2, "co": {"X": 1.0, "Y": 1.0}}]}, "crop_width": {"Points": [{"interpolation": 2, "co": {"X": 1.0, "Y": -1.0}}]}, "position": 78.33333333333333, "crop_y": {"Points": [{"interpolation": 2, "co": {"X": 1.0, "Y": 0.0}}]}, "channel_mapping": {"Points": [{"interpolation": 2, "co": {"X": 1.0, "Y": -1.0}}]}, "effects": [], "layer": 4, "shear_x": {"Points": [{"interpolation": 2, "co": {"X": 1.0, "Y": 0.0}}]}, "alpha": {"Points": [{"interpolation": 2, "co": {"X": 1.0, "Y": 1.0}}]}, "perspective_c2_x": {"Points": [{"interpolation": 2, "co": {"X": 1.0, "Y": -1.0}}]}, "duration": 14.11564636230469, "image": "C:\\Users\\yifan\\.openshot_qt\\thumbnail\\NG5RG0J90S-198.png", "scale_x": {"Points": [{"interpolation": 2, "co": {"X": 1.0, "Y": 1.0}}]}, "location_y": {"Points": [{"interpolation": 2, "co": {"X": 1.0, "Y": 0.0}}]}, "start": 3.291666666666657, "title": "2018-03-11_17-29-06.mp4", "crop_x": {"Points": [{"interpolation": 2, "co": {"X": 1.0, "Y": 0.0}}]}}}, {"old_values": {"waveform": false, "volume": {"Points": [{"interpolation": 2, "co": {"X": 1.0, "Y": 1.0}}]}, "perspective_c2_y": {"Points": [{"interpolation": 2, "co": {"X": 1.0, "Y": -1.0}}]}, "crop_height": {"Points": [{"interpolation": 2, "co": {"X": 1.0, "Y": -1.0}}]}, "has_audio": {"Points": [{"interpolation": 2, "co": {"X": 1.0, "Y": -1.0}}]}, "location_x": {"Points": [{"interpolation": 2, "co": {"X": 1.0, "Y": 0.0}}]}, "time": {"Points": [{"interpolation": 2, "co": {"X": 1.0, "Y": 1.0}}]}, "scale": 1, "perspective_c3_x": {"Points": [{"interpolation": 2, "co": {"X": 1.0, "Y": -1.0}}]}, "end": 14.11564636230469, "has_video": {"Points": [{"interpolation": 2, "co": {"X": 1.0, "Y": -1.0}}]}, "channel_filter": {"Points": [{"interpolation": 2, "co": {"X": 1.0, "Y": -1.0}}]}, "gravity": 4, "perspective_c4_y": {"Points": [{"interpolation": 2, "co": {"X": 1.0, "Y": -1.0}}]}, "perspective_c1_y": {"Points": [{"interpolation": 2, "co": {"X": 1.0, "Y": -1.0}}]}, "shear_y": {"Points": [{"interpolation": 2, "co": {"X": 1.0, "Y": 0.0}}]}, "perspective_c4_x": {"Points": [{"interpolation": 2, "co": {"X": 1.0, "Y": -1.0}}]}, "perspective_c1_x": {"Points": [{"interpolation": 2, "co": {"X": 1.0, "Y": -1.0}}]}, "file_id": "991RFD2R1F", "rotation": {"Points": [{"interpolation": 2, "co": {"X": 1.0, "Y": 0.0}}]}, "id": "NG5RG0J90S", "wave_color": {"blue": {"Points": [{"interpolation": 0, "handle_left": {"X": 0.5, "Y": 1.0}, "handle_right": {"X": 0.5, "Y": 0.0}, "co": {"X": 1.0, "Y": 255.0}, "handle_type": 0}]}, "green": {"Points": [{"interpolation": 0, "handle_left": {"X": 0.5, "Y": 1.0}, "handle_right": {"X": 0.5, "Y": 0.0}, "co": {"X": 1.0, "Y": 123.0}, "handle_type": 0}]}, "alpha": {"Points": [{"interpolation": 0, "handle_left": {"X": 0.5, "Y": 1.0}, "handle_right": {"X": 0.5, "Y": 0.0}, "co": {"X": 1.0, "Y": 255.0}, "handle_type": 0}]}, "red": {"Points": [{"interpolation": 0, "handle_left": {"X": 0.5, "Y": 1.0}, "handle_right": {"X": 0.5, "Y": 0.0}, "co": {"X": 1.0, "Y": 0.0}, "handle_type": 0}]}}, "reader": {"height": 720, "pixel_ratio": {"num": 1, "den": 1}, "has_single_image": false, "audio_timebase": {"num": 1, "den": 44100}, "audio_stream_index": 1, "display_ratio": {"num": 16, "den": 9}, "channel_layout": 3, "has_audio": true, "video_timebase": {"num": 1, "den": 15360}, "video_bit_rate": 2766400, "duration": 14.11564636230469, "fps": {"num": 60, "den": 1}, "channels": 2, "has_video": true, "video_stream_index": 0, "width": 1280, "acodec": "aac", "top_field_first": true, "pixel_format": 0, "vcodec": "h264", "file_size": "4887538", "path": "C:/VS/Video/2018-03-11_17-29-06.mp4", "type": "FFmpegReader", "sample_rate": 44100, "interlaced_frame": false, "video_length": "848", "audio_bit_rate": 97309}, "display": 0, "anchor": 0, "perspective_c3_y": {"Points": [{"interpolation": 2, "co": {"X": 1.0, "Y": -1.0}}]}, "scale_y": {"Points": [{"interpolation": 2, "co": {"X": 1.0, "Y": 1.0}}]}, "crop_width": {"Points": [{"interpolation": 2, "co": {"X": 1.0, "Y": -1.0}}]}, "position": 78.33333333333333, "crop_y": {"Points": [{"interpolation": 2, "co": {"X": 1.0, "Y": 0.0}}]}, "channel_mapping": {"Points": [{"interpolation": 2, "co": {"X": 1.0, "Y": -1.0}}]}, "effects": [], "layer": 4, "shear_x": {"Points": [{"interpolation": 2, "co": {"X": 1.0, "Y": 0.0}}]}, "alpha": {"Points": [{"interpolation": 2, "co": {"X": 1.0, "Y": 1.0}}]}, "perspective_c2_x": {"Points": [{"interpolation": 2, "co": {"X": 1.0, "Y": -1.0}}]}, "duration": 14.11564636230469, "image": "C:\\Users\\yifan\\.openshot_qt\\thumbnail\\NG5RG0J90S-198.png", "scale_x": {"Points": [{"interpolation": 2, "co": {"X": 1.0, "Y": 1.0}}]}, "location_y": {"Points": [{"interpolation": 2, "co": {"X": 1.0, "Y": 0.0}}]}, "start": 3.291666666666657, "title": "2018-03-11_17-29-06.mp4", "crop_x": {"Points": [{"interpolation": 2, "co": {"X": 1.0, "Y": 0.0}}]}}, "type": "update", "key": ["clips", {"id": "NG5RG0J90S"}], "partial": false, "value": {"end": 14.11564636230469, "start": 3.291666666666657, "position": 74.533125, "image": "C:\\Users\\yifan\\.openshot_qt\\thumbnail\\NG5RG0J90S-198.png", "id": "NG5RG0J90S", "layer": 4}}, {"old_values": [{"end": 0.5399999999999991, "replace_image": false, "start": 0, "title": "Transition", "contrast": {"Points": [{"interpolation": 2, "co": {"X": 1.0, "Y": 3.0}}]}, "position": 45.96, "reader": {"height": 576, "pixel_ratio": {"num": 1, "den": 1}, "has_single_image": true, "audio_timebase": {"num": 1, "den": 1}, "audio_stream_index": -1, "display_ratio": {"num": 5, "den": 4}, "channel_layout": 4, "has_audio": false, "video_timebase": {"num": 1, "den": 30}, "video_bit_rate": 0, "duration": 86400.0, "fps": {"num": 30, "den": 1}, "channels": 0, "has_video": true, "video_stream_index": -1, "width": 720, "acodec": "", "top_field_first": true, "pixel_format": -1, "vcodec": "", "file_size": "1658880", "path": "C:\\Program Files\\OpenShot Video Editor\\transitions\\common\\fade.svg", "type": "QtImageReader", "sample_rate": 0, "interlaced_frame": false, "video_length": "2592000", "audio_bit_rate": 0}, "type": "Mask", "brightness": {"Points": [{"interpolation": 0, "handle_left": {"X": 0.5, "Y": 1.0}, "handle_right": {"X": 0.5, "Y": 0.0}, "co": {"X": 1.0, "Y": 1.0}, "handle_type": 0}, {"interpolation": 0, "handle_left": {"X": 0.5, "Y": 1.0}, "handle_right": {"X": 0.5, "Y": 0.0}, "co": {"X": 14.0, "Y": -1.0}, "handle_type": 0}]}, "id": "W2AFYQUG6S", "layer": 4}], "type": "insert", "key": ["effects"], "partial": false, "value": {"end": 0.5502083333333303, "replace_image": false, "start": 0, "brightness": {"Points": [{"interpolation": 0, "handle_left": {"X": 0.5, "Y": 1.0}, "handle_right": {"X": 0.5, "Y": 0.0}, "co": {"X": 1.0, "Y": 1.0}, "handle_type": 0}, {"interpolation": 0, "handle_left": {"X": 0.5, "Y": 1.0}, "handle_right": {"X": 0.5, "Y": 0.0}, "co": {"X": 14.0, "Y": -1.0}, "handle_type": 0}]}, "contrast": {"Points": [{"interpolation": 2, "co": {"X": 1.0, "Y": 3.0}}]}, "position": 74.533125, "reader": {"height": 576, "channel_layout": 4, "has_video": true, "audio_timebase": {"num": 1, "den": 1}, "audio_stream_index": -1, "display_ratio": {"num": 5, "den": 4}, "pixel_ratio": {"num": 1, "den": 1}, "video_length": "2592000", "has_audio": false, "video_timebase": {"num": 1, "den": 30}, "vcodec": "", "duration": 86400.0, "fps": {"num": 30, "den": 1}, "has_single_image": true, "video_stream_index": -1, "width": 720, "acodec": "", "top_field_first": true, "pixel_format": -1, "video_bit_rate": 0, "file_size": "1658880", "path": "C:\\Program Files\\OpenShot Video Editor\\transitions\\common\\fade.svg", "type": "QtImageReader", "sample_rate": 0, "interlaced_frame": false, "channels": 0, "audio_bit_rate": 0}, "type": "Mask", "title": "Transition", "id": "2ED1BNYUMM", "layer": 4}}, {"old_values": {"waveform": false, "volume": {"Points": [{"interpolation": 2, "co": {"X": 1.0, "Y": 1.0}}]}, "perspective_c2_y": {"Points": [{"interpolation": 2, "co": {"X": 1.0, "Y": -1.0}}]}, "crop_height": {"Points": [{"interpolation": 2, "co": {"X": 1.0, "Y": -1.0}}]}, "has_audio": {"Points": [{"interpolation": 2, "co": {"X": 1.0, "Y": -1.0}}]}, "location_x": {"Points": [{"interpolation": 2, "co": {"X": 1.0, "Y": 0.0}}]}, "time": {"Points": [{"interpolation": 2, "co": {"X": 1.0, "Y": 1.0}}]}, "scale": 1, "perspective_c3_x": {"Points": [{"interpolation": 2, "co": {"X": 1.0, "Y": -1.0}}]}, "end": 14.11564636230469, "has_video": {"Points": [{"interpolation": 2, "co": {"X": 1.0, "Y": -1.0}}]}, "channel_filter": {"Points": [{"interpolation": 2, "co": {"X": 1.0, "Y": -1.0}}]}, "gravity": 4, "perspective_c4_y": {"Points": [{"interpolation": 2, "co": {"X": 1.0, "Y": -1.0}}]}, "perspective_c1_y": {"Points": [{"interpolation": 2, "co": {"X": 1.0, "Y": -1.0}}]}, "shear_y": {"Points": [{"interpolation": 2, "co": {"X": 1.0, "Y": 0.0}}]}, "perspective_c4_x": {"Points": [{"interpolation": 2, "co": {"X": 1.0, "Y": -1.0}}]}, "perspective_c1_x": {"Points": [{"interpolation": 2, "co": {"X": 1.0, "Y": -1.0}}]}, "file_id": "991RFD2R1F", "rotation": {"Points": [{"interpolation": 2, "co": {"X": 1.0, "Y": 0.0}}]}, "id": "NG5RG0J90S", "wave_color": {"blue": {"Points": [{"interpolation": 0, "handle_left": {"X": 0.5, "Y": 1.0}, "handle_right": {"X": 0.5, "Y": 0.0}, "co": {"X": 1.0, "Y": 255.0}, "handle_type": 0}]}, "green": {"Points": [{"interpolation": 0, "handle_left": {"X": 0.5, "Y": 1.0}, "handle_right": {"X": 0.5, "Y": 0.0}, "co": {"X": 1.0, "Y": 123.0}, "handle_type": 0}]}, "alpha": {"Points": [{"interpolation": 0, "handle_left": {"X": 0.5, "Y": 1.0}, "handle_right": {"X": 0.5, "Y": 0.0}, "co": {"X": 1.0, "Y": 255.0}, "handle_type": 0}]}, "red": {"Points": [{"interpolation": 0, "handle_left": {"X": 0.5, "Y": 1.0}, "handle_right": {"X": 0.5, "Y": 0.0}, "co": {"X": 1.0, "Y": 0.0}, "handle_type": 0}]}}, "reader": {"height": 720, "pixel_ratio": {"num": 1, "den": 1}, "has_single_image": false, "audio_timebase": {"num": 1, "den": 44100}, "audio_stream_index": 1, "display_ratio": {"num": 16, "den": 9}, "channel_layout": 3, "has_audio": true, "video_timebase": {"num": 1, "den": 15360}, "video_bit_rate": 2766400, "duration": 14.11564636230469, "fps": {"num": 60, "den": 1}, "channels": 2, "has_video": true, "video_stream_index": 0, "width": 1280, "acodec": "aac", "top_field_first": true, "pixel_format": 0, "vcodec": "h264", "file_size": "4887538", "path": "C:/VS/Video/2018-03-11_17-29-06.mp4", "type": "FFmpegReader", "sample_rate": 44100, "interlaced_frame": false, "video_length": "848", "audio_bit_rate": 97309}, "display": 0, "anchor": 0, "perspective_c3_y": {"Points": [{"interpolation": 2, "co": {"X": 1.0, "Y": -1.0}}]}, "scale_y": {"Points": [{"interpolation": 2, "co": {"X": 1.0, "Y": 1.0}}]}, "crop_width": {"Points": [{"interpolation": 2, "co": {"X": 1.0, "Y": -1.0}}]}, "position": 74.533125, "crop_y": {"Points": [{"interpolation": 2, "co": {"X": 1.0, "Y": 0.0}}]}, "channel_mapping": {"Points": [{"interpolation": 2, "co": {"X": 1.0, "Y": -1.0}}]}, "effects": [], "layer": 4, "shear_x": {"Points": [{"interpolation": 2, "co": {"X": 1.0, "Y": 0.0}}]}, "alpha": {"Points": [{"interpolation": 2, "co": {"X": 1.0, "Y": 1.0}}]}, "perspective_c2_x": {"Points": [{"interpolation": 2, "co": {"X": 1.0, "Y": -1.0}}]}, "duration": 14.11564636230469, "image": "C:\\Users\\yifan\\.openshot_qt\\thumbnail\\NG5RG0J90S-198.png", "scale_x": {"Points": [{"interpolation": 2, "co": {"X": 1.0, "Y": 1.0}}]}, "location_y": {"Points": [{"interpolation": 2, "co": {"X": 1.0, "Y": 0.0}}]}, "start": 3.291666666666657, "title": "2018-03-11_17-29-06.mp4", "crop_x": {"Points": [{"interpolation": 2, "co": {"X": 1.0, "Y": 0.0}}]}}, "type": "update", "key": ["clips", {"id": "NG5RG0J90S"}], "partial": false, "value": {"end": 14.11564636230469, "start": 3.291666666666657, "position": 75.083125, "image": "C:\\Users\\yifan\\.openshot_qt\\thumbnail\\NG5RG0J90S-198.png", "id": "NG5RG0J90S", "layer": 4}}, {"old_values": {"waveform": false, "volume": {"Points": [{"interpolation": 2, "co": {"X": 1.0, "Y": 1.0}}]}, "perspective_c2_y": {"Points": [{"interpolation": 2, "co": {"X": 1.0, "Y": -1.0}}]}, "crop_height": {"Points": [{"interpolation": 2, "co": {"X": 1.0, "Y": -1.0}}]}, "has_audio": {"Points": [{"interpolation": 2, "co": {"X": 1.0, "Y": -1.0}}]}, "location_x": {"Points": [{"interpolation": 2, "co": {"X": 1.0, "Y": 0.0}}]}, "time": {"Points": [{"interpolation": 2, "co": {"X": 1.0, "Y": 1.0}}]}, "scale": 1, "perspective_c3_x": {"Points": [{"interpolation": 2, "co": {"X": 1.0, "Y": -1.0}}]}, "end": 14.11564636230469, "has_video": {"Points": [{"interpolation": 2, "co": {"X": 1.0, "Y": -1.0}}]}, "channel_filter": {"Points": [{"interpolation": 2, "co": {"X": 1.0, "Y": -1.0}}]}, "gravity": 4, "perspective_c4_y": {"Points": [{"interpolation": 2, "co": {"X": 1.0, "Y": -1.0}}]}, "perspective_c1_y": {"Points": [{"interpolation": 2, "co": {"X": 1.0, "Y": -1.0}}]}, "shear_y": {"Points": [{"interpolation": 2, "co": {"X": 1.0, "Y": 0.0}}]}, "perspective_c4_x": {"Points": [{"interpolation": 2, "co": {"X": 1.0, "Y": -1.0}}]}, "perspective_c1_x": {"Points": [{"interpolation": 2, "co": {"X": 1.0, "Y": -1.0}}]}, "file_id": "991RFD2R1F", "rotation": {"Points": [{"interpolation": 2, "co": {"X": 1.0, "Y": 0.0}}]}, "id": "NG5RG0J90S", "wave_color": {"blue": {"Points": [{"interpolation": 0, "handle_left": {"X": 0.5, "Y": 1.0}, "handle_right": {"X": 0.5, "Y": 0.0}, "co": {"X": 1.0, "Y": 255.0}, "handle_type": 0}]}, "green": {"Points": [{"interpolation": 0, "handle_left": {"X": 0.5, "Y": 1.0}, "handle_right": {"X": 0.5, "Y": 0.0}, "co": {"X": 1.0, "Y": 123.0}, "handle_type": 0}]}, "alpha": {"Points": [{"interpolation": 0, "handle_left": {"X": 0.5, "Y": 1.0}, "handle_right": {"X": 0.5, "Y": 0.0}, "co": {"X": 1.0, "Y": 255.0}, "handle_type": 0}]}, "red": {"Points": [{"interpolation": 0, "handle_left": {"X": 0.5, "Y": 1.0}, "handle_right": {"X": 0.5, "Y": 0.0}, "co": {"X": 1.0, "Y": 0.0}, "handle_type": 0}]}}, "reader": {"height": 720, "pixel_ratio": {"num": 1, "den": 1}, "has_single_image": false, "audio_timebase": {"num": 1, "den": 44100}, "audio_stream_index": 1, "display_ratio": {"num": 16, "den": 9}, "channel_layout": 3, "has_audio": true, "video_timebase": {"num": 1, "den": 15360}, "video_bit_rate": 2766400, "duration": 14.11564636230469, "fps": {"num": 60, "den": 1}, "channels": 2, "has_video": true, "video_stream_index": 0, "width": 1280, "acodec": "aac", "top_field_first": true, "pixel_format": 0, "vcodec": "h264", "file_size": "4887538", "path": "C:/VS/Video/2018-03-11_17-29-06.mp4", "type": "FFmpegReader", "sample_rate": 44100, "interlaced_frame": false, "video_length": "848", "audio_bit_rate": 97309}, "display": 0, "anchor": 0, "perspective_c3_y": {"Points": [{"interpolation": 2, "co": {"X": 1.0, "Y": -1.0}}]}, "scale_y": {"Points": [{"interpolation": 2, "co": {"X": 1.0, "Y": 1.0}}]}, "crop_width": {"Points": [{"interpolation": 2, "co": {"X": 1.0, "Y": -1.0}}]}, "position": 75.083125, "crop_y": {"Points": [{"interpolation": 2, "co": {"X": 1.0, "Y": 0.0}}]}, "channel_mapping": {"Points": [{"interpolation": 2, "co": {"X": 1.0, "Y": -1.0}}]}, "effects": [], "layer": 4, "shear_x": {"Points": [{"interpolation": 2, "co": {"X": 1.0, "Y": 0.0}}]}, "alpha": {"Points": [{"interpolation": 2, "co": {"X": 1.0, "Y": 1.0}}]}, "perspective_c2_x": {"Points": [{"interpolation": 2, "co": {"X": 1.0, "Y": -1.0}}]}, "duration": 14.11564636230469, "image": "C:\\Users\\yifan\\.openshot_qt\\thumbnail\\NG5RG0J90S-198.png", "scale_x": {"Points": [{"interpolation": 2, "co": {"X": 1.0, "Y": 1.0}}]}, "location_y": {"Points": [{"interpolation": 2, "co": {"X": 1.0, "Y": 0.0}}]}, "start": 3.291666666666657, "title": "2018-03-11_17-29-06.mp4", "crop_x": {"Points": [{"interpolation": 2, "co": {"X": 1.0, "Y": 0.0}}]}}, "type": "update", "key": ["clips", {"id": "NG5RG0J90S"}], "partial": false, "value": {"end": 14.11564636230469, "start": 3.291666666666657, "position": 74.783125, "image": "C:\\Users\\yifan\\.openshot_qt\\thumbnail\\NG5RG0J90S-198.png", "id": "NG5RG0J90S", "layer": 4}}, {"old_values": {"waveform": false, "volume": {"Points": [{"interpolation": 2, "co": {"X": 1.0, "Y": 1.0}}]}, "perspective_c2_y": {"Points": [{"interpolation": 2, "co": {"X": 1.0, "Y": -1.0}}]}, "crop_height": {"Points": [{"interpolation": 2, "co": {"X": 1.0, "Y": -1.0}}]}, "has_audio": {"Points": [{"interpolation": 2, "co": {"X": 1.0, "Y": -1.0}}]}, "location_x": {"Points": [{"interpolation": 2, "co": {"X": 1.0, "Y": 0.0}}]}, "time": {"Points": [{"interpolation": 2, "co": {"X": 1.0, "Y": 1.0}}]}, "scale": 1, "perspective_c3_x": {"Points": [{"interpolation": 2, "co": {"X": 1.0, "Y": -1.0}}]}, "end": 14.11564636230469, "has_video": {"Points": [{"interpolation": 2, "co": {"X": 1.0, "Y": -1.0}}]}, "channel_filter": {"Points": [{"interpolation": 2, "co": {"X": 1.0, "Y": -1.0}}]}, "gravity": 4, "perspective_c4_y": {"Points": [{"interpolation": 2, "co": {"X": 1.0, "Y": -1.0}}]}, "perspective_c1_y": {"Points": [{"interpolation": 2, "co": {"X": 1.0, "Y": -1.0}}]}, "shear_y": {"Points": [{"interpolation": 2, "co": {"X": 1.0, "Y": 0.0}}]}, "perspective_c4_x": {"Points": [{"interpolation": 2, "co": {"X": 1.0, "Y": -1.0}}]}, "perspective_c1_x": {"Points": [{"interpolation": 2, "co": {"X": 1.0, "Y": -1.0}}]}, "file_id": "991RFD2R1F", "rotation": {"Points": [{"interpolation": 2, "co": {"X": 1.0, "Y": 0.0}}]}, "id": "NG5RG0J90S", "wave_color": {"blue": {"Points": [{"interpolation": 0, "handle_left": {"X": 0.5, "Y": 1.0}, "handle_right": {"X": 0.5, "Y": 0.0}, "co": {"X": 1.0, "Y": 255.0}, "handle_type": 0}]}, "green": {"Points": [{"interpolation": 0, "handle_left": {"X": 0.5, "Y": 1.0}, "handle_right": {"X": 0.5, "Y": 0.0}, "co": {"X": 1.0, "Y": 123.0}, "handle_type": 0}]}, "alpha": {"Points": [{"interpolation": 0, "handle_left": {"X": 0.5, "Y": 1.0}, "handle_right": {"X": 0.5, "Y": 0.0}, "co": {"X": 1.0, "Y": 255.0}, "handle_type": 0}]}, "red": {"Points": [{"interpolation": 0, "handle_left": {"X": 0.5, "Y": 1.0}, "handle_right": {"X": 0.5, "Y": 0.0}, "co": {"X": 1.0, "Y": 0.0}, "handle_type": 0}]}}, "reader": {"height": 720, "pixel_ratio": {"num": 1, "den": 1}, "has_single_image": false, "audio_timebase": {"num": 1, "den": 44100}, "audio_stream_index": 1, "display_ratio": {"num": 16, "den": 9}, "channel_layout": 3, "has_audio": true, "video_timebase": {"num": 1, "den": 15360}, "video_bit_rate": 2766400, "duration": 14.11564636230469, "fps": {"num": 60, "den": 1}, "channels": 2, "has_video": true, "video_stream_index": 0, "width": 1280, "acodec": "aac", "top_field_first": true, "pixel_format": 0, "vcodec": "h264", "file_size": "4887538", "path": "C:/VS/Video/2018-03-11_17-29-06.mp4", "type": "FFmpegReader", "sample_rate": 44100, "interlaced_frame": false, "video_length": "848", "audio_bit_rate": 97309}, "display": 0, "anchor": 0, "perspective_c3_y": {"Points": [{"interpolation": 2, "co": {"X": 1.0, "Y": -1.0}}]}, "scale_y": {"Points": [{"interpolation": 2, "co": {"X": 1.0, "Y": 1.0}}]}, "crop_width": {"Points": [{"interpolation": 2, "co": {"X": 1.0, "Y": -1.0}}]}, "position": 74.783125, "crop_y": {"Points": [{"interpolation": 2, "co": {"X": 1.0, "Y": 0.0}}]}, "channel_mapping": {"Points": [{"interpolation": 2, "co": {"X": 1.0, "Y": -1.0}}]}, "effects": [], "layer": 4, "shear_x": {"Points": [{"interpolation": 2, "co": {"X": 1.0, "Y": 0.0}}]}, "alpha": {"Points": [{"interpolation": 2, "co": {"X": 1.0, "Y": 1.0}}]}, "perspective_c2_x": {"Points": [{"interpolation": 2, "co": {"X": 1.0, "Y": -1.0}}]}, "duration": 14.11564636230469, "image": "C:\\Users\\yifan\\.openshot_qt\\thumbnail\\NG5RG0J90S-198.png", "scale_x": {"Points": [{"interpolation": 2, "co": {"X": 1.0, "Y": 1.0}}]}, "location_y": {"Points": [{"interpolation": 2, "co": {"X": 1.0, "Y": 0.0}}]}, "start": 3.291666666666657, "title": "2018-03-11_17-29-06.mp4", "crop_x": {"Points": [{"interpolation": 2, "co": {"X": 1.0, "Y": 0.0}}]}}, "type": "update", "key": ["clips", {"id": "NG5RG0J90S"}], "partial": false, "value": {"end": 14.11564636230469, "start": 3.291666666666657, "position": 74.743125, "image": "C:\\Users\\yifan\\.openshot_qt\\thumbnail\\NG5RG0J90S-198.png", "id": "NG5RG0J90S", "layer": 4}}, {"old_values": {"waveform": false, "volume": {"Points": [{"interpolation": 2, "co": {"X": 1.0, "Y": 1.0}}]}, "perspective_c2_y": {"Points": [{"interpolation": 2, "co": {"X": 1.0, "Y": -1.0}}]}, "crop_height": {"Points": [{"interpolation": 2, "co": {"X": 1.0, "Y": -1.0}}]}, "has_audio": {"Points": [{"interpolation": 2, "co": {"X": 1.0, "Y": -1.0}}]}, "location_x": {"Points": [{"interpolation": 2, "co": {"X": 1.0, "Y": 0.0}}]}, "time": {"Points": [{"interpolation": 2, "co": {"X": 1.0, "Y": 1.0}}]}, "scale": 1, "perspective_c3_x": {"Points": [{"interpolation": 2, "co": {"X": 1.0, "Y": -1.0}}]}, "end": 14.11564636230469, "has_video": {"Points": [{"interpolation": 2, "co": {"X": 1.0, "Y": -1.0}}]}, "channel_filter": {"Points": [{"interpolation": 2, "co": {"X": 1.0, "Y": -1.0}}]}, "gravity": 4, "perspective_c4_y": {"Points": [{"interpolation": 2, "co": {"X": 1.0, "Y": -1.0}}]}, "perspective_c1_y": {"Points": [{"interpolation": 2, "co": {"X": 1.0, "Y": -1.0}}]}, "shear_y": {"Points": [{"interpolation": 2, "co": {"X": 1.0, "Y": 0.0}}]}, "perspective_c4_x": {"Points": [{"interpolation": 2, "co": {"X": 1.0, "Y": -1.0}}]}, "perspective_c1_x": {"Points": [{"interpolation": 2, "co": {"X": 1.0, "Y": -1.0}}]}, "file_id": "991RFD2R1F", "rotation": {"Points": [{"interpolation": 2, "co": {"X": 1.0, "Y": 0.0}}]}, "id": "NG5RG0J90S", "wave_color": {"blue": {"Points": [{"interpolation": 0, "handle_left": {"X": 0.5, "Y": 1.0}, "handle_right": {"X": 0.5, "Y": 0.0}, "co": {"X": 1.0, "Y": 255.0}, "handle_type": 0}]}, "green": {"Points": [{"interpolation": 0, "handle_left": {"X": 0.5, "Y": 1.0}, "handle_right": {"X": 0.5, "Y": 0.0}, "co": {"X": 1.0, "Y": 123.0}, "handle_type": 0}]}, "alpha": {"Points": [{"interpolation": 0, "handle_left": {"X": 0.5, "Y": 1.0}, "handle_right": {"X": 0.5, "Y": 0.0}, "co": {"X": 1.0, "Y": 255.0}, "handle_type": 0}]}, "red": {"Points": [{"interpolation": 0, "handle_left": {"X": 0.5, "Y": 1.0}, "handle_right": {"X": 0.5, "Y": 0.0}, "co": {"X": 1.0, "Y": 0.0}, "handle_type": 0}]}}, "reader": {"height": 720, "pixel_ratio": {"num": 1, "den": 1}, "has_single_image": false, "audio_timebase": {"num": 1, "den": 44100}, "audio_stream_index": 1, "display_ratio": {"num": 16, "den": 9}, "channel_layout": 3, "has_audio": true, "video_timebase": {"num": 1, "den": 15360}, "video_bit_rate": 2766400, "duration": 14.11564636230469, "fps": {"num": 60, "den": 1}, "channels": 2, "has_video": true, "video_stream_index": 0, "width": 1280, "acodec": "aac", "top_field_first": true, "pixel_format": 0, "vcodec": "h264", "file_size": "4887538", "path": "C:/VS/Video/2018-03-11_17-29-06.mp4", "type": "FFmpegReader", "sample_rate": 44100, "interlaced_frame": false, "video_length": "848", "audio_bit_rate": 97309}, "display": 0, "anchor": 0, "perspective_c3_y": {"Points": [{"interpolation": 2, "co": {"X": 1.0, "Y": -1.0}}]}, "scale_y": {"Points": [{"interpolation": 2, "co": {"X": 1.0, "Y": 1.0}}]}, "crop_width": {"Points": [{"interpolation": 2, "co": {"X": 1.0, "Y": -1.0}}]}, "position": 74.743125, "crop_y": {"Points": [{"interpolation": 2, "co": {"X": 1.0, "Y": 0.0}}]}, "channel_mapping": {"Points": [{"interpolation": 2, "co": {"X": 1.0, "Y": -1.0}}]}, "effects": [], "layer": 4, "shear_x": {"Points": [{"interpolation": 2, "co": {"X": 1.0, "Y": 0.0}}]}, "alpha": {"Points": [{"interpolation": 2, "co": {"X": 1.0, "Y": 1.0}}]}, "perspective_c2_x": {"Points": [{"interpolation": 2, "co": {"X": 1.0, "Y": -1.0}}]}, "duration": 14.11564636230469, "image": "C:\\Users\\yifan\\.openshot_qt\\thumbnail\\NG5RG0J90S-198.png", "scale_x": {"Points": [{"interpolation": 2, "co": {"X": 1.0, "Y": 1.0}}]}, "location_y": {"Points": [{"interpolation": 2, "co": {"X": 1.0, "Y": 0.0}}]}, "start": 3.291666666666657, "title": "2018-03-11_17-29-06.mp4", "crop_x": {"Points": [{"interpolation": 2, "co": {"X": 1.0, "Y": 0.0}}]}}, "type": "update", "key": ["clips", {"id": "NG5RG0J90S"}], "partial": false, "value": {"end": 14.11564636230469, "start": 3.291666666666657, "position": 74.533125, "image": "C:\\Users\\yifan\\.openshot_qt\\thumbnail\\NG5RG0J90S-198.png", "id": "NG5RG0J90S", "layer": 4}}, {"old_values": {"waveform": false, "volume": {"Points": [{"interpolation": 2, "co": {"X": 1.0, "Y": 1.0}}]}, "perspective_c2_y": {"Points": [{"interpolation": 2, "co": {"X": 1.0, "Y": -1.0}}]}, "crop_height": {"Points": [{"interpolation": 2, "co": {"X": 1.0, "Y": -1.0}}]}, "has_audio": {"Points": [{"interpolation": 2, "co": {"X": 1.0, "Y": -1.0}}]}, "location_x": {"Points": [{"interpolation": 2, "co": {"X": 1.0, "Y": 0.0}}]}, "time": {"Points": [{"interpolation": 2, "co": {"X": 1.0, "Y": 1.0}}]}, "scale": 1, "perspective_c3_x": {"Points": [{"interpolation": 2, "co": {"X": 1.0, "Y": -1.0}}]}, "end": 14.11564636230469, "has_video": {"Points": [{"interpolation": 2, "co": {"X": 1.0, "Y": -1.0}}]}, "channel_filter": {"Points": [{"interpolation": 2, "co": {"X": 1.0, "Y": -1.0}}]}, "gravity": 4, "perspective_c4_y": {"Points": [{"interpolation": 2, "co": {"X": 1.0, "Y": -1.0}}]}, "perspective_c1_y": {"Points": [{"interpolation": 2, "co": {"X": 1.0, "Y": -1.0}}]}, "shear_y": {"Points": [{"interpolation": 2, "co": {"X": 1.0, "Y": 0.0}}]}, "perspective_c4_x": {"Points": [{"interpolation": 2, "co": {"X": 1.0, "Y": -1.0}}]}, "perspective_c1_x": {"Points": [{"interpolation": 2, "co": {"X": 1.0, "Y": -1.0}}]}, "file_id": "991RFD2R1F", "rotation": {"Points": [{"interpolation": 2, "co": {"X": 1.0, "Y": 0.0}}]}, "id": "NG5RG0J90S", "wave_color": {"blue": {"Points": [{"interpolation": 0, "handle_left": {"X": 0.5, "Y": 1.0}, "handle_right": {"X": 0.5, "Y": 0.0}, "co": {"X": 1.0, "Y": 255.0}, "handle_type": 0}]}, "green": {"Points": [{"interpolation": 0, "handle_left": {"X": 0.5, "Y": 1.0}, "handle_right": {"X": 0.5, "Y": 0.0}, "co": {"X": 1.0, "Y": 123.0}, "handle_type": 0}]}, "alpha": {"Points": [{"interpolation": 0, "handle_left": {"X": 0.5, "Y": 1.0}, "handle_right": {"X": 0.5, "Y": 0.0}, "co": {"X": 1.0, "Y": 255.0}, "handle_type": 0}]}, "red": {"Points": [{"interpolation": 0, "handle_left": {"X": 0.5, "Y": 1.0}, "handle_right": {"X": 0.5, "Y": 0.0}, "co": {"X": 1.0, "Y": 0.0}, "handle_type": 0}]}}, "reader": {"height": 720, "pixel_ratio": {"num": 1, "den": 1}, "has_single_image": false, "audio_timebase": {"num": 1, "den": 44100}, "audio_stream_index": 1, "display_ratio": {"num": 16, "den": 9}, "channel_layout": 3, "has_audio": true, "video_timebase": {"num": 1, "den": 15360}, "video_bit_rate": 2766400, "duration": 14.11564636230469, "fps": {"num": 60, "den": 1}, "channels": 2, "has_video": true, "video_stream_index": 0, "width": 1280, "acodec": "aac", "top_field_first": true, "pixel_format": 0, "vcodec": "h264", "file_size": "4887538", "path": "C:/VS/Video/2018-03-11_17-29-06.mp4", "type": "FFmpegReader", "sample_rate": 44100, "interlaced_frame": false, "video_length": "848", "audio_bit_rate": 97309}, "display": 0, "anchor": 0, "perspective_c3_y": {"Points": [{"interpolation": 2, "co": {"X": 1.0, "Y": -1.0}}]}, "scale_y": {"Points": [{"interpolation": 2, "co": {"X": 1.0, "Y": 1.0}}]}, "crop_width": {"Points": [{"interpolation": 2, "co": {"X": 1.0, "Y": -1.0}}]}, "position": 74.533125, "crop_y": {"Points": [{"interpolation": 2, "co": {"X": 1.0, "Y": 0.0}}]}, "channel_mapping": {"Points": [{"interpolation": 2, "co": {"X": 1.0, "Y": -1.0}}]}, "effects": [], "layer": 4, "shear_x": {"Points": [{"interpolation": 2, "co": {"X": 1.0, "Y": 0.0}}]}, "alpha": {"Points": [{"interpolation": 2, "co": {"X": 1.0, "Y": 1.0}}]}, "perspective_c2_x": {"Points": [{"interpolation": 2, "co": {"X": 1.0, "Y": -1.0}}]}, "duration": 14.11564636230469, "image": "C:\\Users\\yifan\\.openshot_qt\\thumbnail\\NG5RG0J90S-198.png", "scale_x": {"Points": [{"interpolation": 2, "co": {"X": 1.0, "Y": 1.0}}]}, "location_y": {"Points": [{"interpolation": 2, "co": {"X": 1.0, "Y": 0.0}}]}, "start": 3.291666666666657, "title": "2018-03-11_17-29-06.mp4", "crop_x": {"Points": [{"interpolation": 2, "co": {"X": 1.0, "Y": 0.0}}]}}, "type": "update", "key": ["clips", {"id": "NG5RG0J90S"}], "partial": false, "value": {"waveform": false, "volume": {"Points": [{"interpolation": 2, "co": {"X": 1.0, "Y": 1.0}}]}, "perspective_c2_y": {"Points": [{"interpolation": 2, "co": {"X": 1.0, "Y": -1.0}}]}, "crop_height": {"Points": [{"interpolation": 2, "co": {"X": 1.0, "Y": -1.0}}]}, "has_audio": {"Points": [{"interpolation": 2, "co": {"X": 1.0, "Y": -1.0}}]}, "location_x": {"Points": [{"interpolation": 2, "co": {"X": 1.0, "Y": 0.0}}]}, "time": {"Points": [{"interpolation": 2, "co": {"X": 1.0, "Y": 1.0}}]}, "scale": 1, "perspective_c3_x": {"Points": [{"interpolation": 2, "co": {"X": 1.0, "Y": -1.0}}]}, "end": 12.05020833333333, "has_video": {"Points": [{"interpolation": 2, "co": {"X": 1.0, "Y": -1.0}}]}, "channel_filter": {"Points": [{"interpolation": 2, "co": {"X": 1.0, "Y": -1.0}}]}, "gravity": 4, "perspective_c4_y": {"Points": [{"interpolation": 2, "co": {"X": 1.0, "Y": -1.0}}]}, "perspective_c1_y": {"Points": [{"interpolation": 2, "co": {"X": 1.0, "Y": -1.0}}]}, "shear_y": {"Points": [{"interpolation": 2, "co": {"X": 1.0, "Y": 0.0}}]}, "perspective_c4_x": {"Points": [{"interpolation": 2, "co": {"X": 1.0, "Y": -1.0}}]}, "perspective_c1_x": {"Points": [{"interpolation": 2, "co": {"X": 1.0, "Y": -1.0}}]}, "file_id": "991RFD2R1F", "rotation": {"Points": [{"interpolation": 2, "co": {"X": 1.0, "Y": 0.0}}]}, "id": "NG5RG0J90S", "wave_color": {"blue": {"Points": [{"interpolation": 0, "handle_left": {"X": 0.5, "Y": 1.0}, "handle_right": {"X": 0.5, "Y": 0.0}, "co": {"X": 1.0, "Y": 255.0}, "handle_type": 0}]}, "green": {"Points": [{"interpolation": 0, "handle_left": {"X": 0.5, "Y": 1.0}, "handle_right": {"X": 0.5, "Y": 0.0}, "co": {"X": 1.0, "Y": 123.0}, "handle_type": 0}]}, "alpha": {"Points": [{"interpolation": 0, "handle_left": {"X": 0.5, "Y": 1.0}, "handle_right": {"X": 0.5, "Y": 0.0}, "co": {"X": 1.0, "Y": 255.0}, "handle_type": 0}]}, "red": {"Points": [{"interpolation": 0, "handle_left": {"X": 0.5, "Y": 1.0}, "handle_right": {"X": 0.5, "Y": 0.0}, "co": {"X": 1.0, "Y": 0.0}, "handle_type": 0}]}}, "display": 0, "anchor": 0, "perspective_c3_y": {"Points": [{"interpolation": 2, "co": {"X": 1.0, "Y": -1.0}}]}, "scale_y": {"Points": [{"interpolation": 2, "co": {"X": 1.0, "Y": 1.0}}]}, "crop_width": {"Points": [{"interpolation": 2, "co": {"X": 1.0, "Y": -1.0}}]}, "position": 74.533125, "crop_y": {"Points": [{"interpolation": 2, "co": {"X": 1.0, "Y": 0.0}}]}, "channel_mapping": {"Points": [{"interpolation": 2, "co": {"X": 1.0, "Y": -1.0}}]}, "effects": [], "layer": 4, "shear_x": {"Points": [{"interpolation": 2, "co": {"X": 1.0, "Y": 0.0}}]}, "alpha": {"Points": [{"interpolation": 2, "co": {"X": 1.0, "Y": 1.0}}]}, "perspective_c2_x": {"Points": [{"interpolation": 2, "co": {"X": 1.0, "Y": -1.0}}]}, "duration": 14.11564636230469, "image": "C:\\Users\\yifan\\.openshot_qt\\thumbnail\\NG5RG0J90S-198.png", "scale_x": {"Points": [{"interpolation": 2, "co": {"X": 1.0, "Y": 1.0}}]}, "location_y": {"Points": [{"interpolation": 2, "co": {"X": 1.0, "Y": 0.0}}]}, "start": 3.291666666666657, "title": "2018-03-11_17-29-06.mp4", "crop_x": {"Points": [{"interpolation": 2, "co": {"X": 1.0, "Y": 0.0}}]}}}, {"old_values": [{"waveform": false, "volume": {"Points": [{"interpolation": 2, "co": {"X": 1.0, "Y": 1.0}}]}, "perspective_c2_y": {"Points": [{"interpolation": 2, "co": {"X": 1.0, "Y": -1.0}}]}, "crop_height": {"Points": [{"interpolation": 2, "co": {"X": 1.0, "Y": -1.0}}]}, "has_audio": {"Points": [{"interpolation": 2, "co": {"X": 1.0, "Y": -1.0}}]}, "location_x": {"Points": [{"interpolation": 2, "co": {"X": 1.0, "Y": 0.0}}]}, "time": {"Points": [{"interpolation": 2, "co": {"X": 1.0, "Y": 1.0}}]}, "scale": 1, "perspective_c3_x": {"Points": [{"interpolation": 2, "co": {"X": 1.0, "Y": -1.0}}]}, "end": 9.625, "has_video": {"Points": [{"interpolation": 2, "co": {"X": 1.0, "Y": -1.0}}]}, "channel_filter": {"Points": [{"interpolation": 2, "co": {"X": 1.0, "Y": -1.0}}]}, "gravity": 4, "perspective_c4_y": {"Points": [{"interpolation": 2, "co": {"X": 1.0, "Y": -1.0}}]}, "perspective_c1_y": {"Points": [{"interpolation": 2, "co": {"X": 1.0, "Y": -1.0}}]}, "shear_y": {"Points": [{"interpolation": 2, "co": {"X": 1.0, "Y": 0.0}}]}, "perspective_c4_x": {"Points": [{"interpolation": 2, "co": {"X": 1.0, "Y": -1.0}}]}, "perspective_c1_x": {"Points": [{"interpolation": 2, "co": {"X": 1.0, "Y": -1.0}}]}, "file_id": "UEMWFW66UU", "rotation": {"Points": [{"interpolation": 2, "co": {"X": 1.0, "Y": 0.0}}]}, "id": "GLRMZCUPL8", "wave_color": {"blue": {"Points": [{"interpolation": 0, "handle_left": {"X": 0.5, "Y": 1.0}, "handle_right": {"X": 0.5, "Y": 0.0}, "co": {"X": 1.0, "Y": 255.0}, "handle_type": 0}]}, "green": {"Points": [{"interpolation": 0, "handle_left": {"X": 0.5, "Y": 1.0}, "handle_right": {"X": 0.5, "Y": 0.0}, "co": {"X": 1.0, "Y": 123.0}, "handle_type": 0}]}, "alpha": {"Points": [{"interpolation": 0, "handle_left": {"X": 0.5, "Y": 1.0}, "handle_right": {"X": 0.5, "Y": 0.0}, "co": {"X": 1.0, "Y": 255.0}, "handle_type": 0}]}, "red": {"Points": [{"interpolation": 0, "handle_left": {"X": 0.5, "Y": 1.0}, "handle_right": {"X": 0.5, "Y": 0.0}, "co": {"X": 1.0, "Y": 0.0}, "handle_type": 0}]}}, "reader": {"height": 720, "pixel_ratio": {"num": 1, "den": 1}, "has_single_image": false, "audio_timebase": {"num": 1, "den": 44100}, "audio_stream_index": 1, "display_ratio": {"num": 16, "den": 9}, "channel_layout": 3, "has_audio": true, "video_timebase": {"num": 1, "den": 15360}, "video_bit_rate": 899354, "duration": 10.1927433013916, "fps": {"num": 30, "den": 1}, "channels": 2, "has_video": true, "video_stream_index": 0, "width": 1280, "acodec": "aac", "top_field_first": true, "pixel_format": 0, "vcodec": "h264", "file_size": "1154209", "path": "C:/VS/Video/2018-03-11_17-18-09.mp4", "type": "FFmpegReader", "sample_rate": 44100, "interlaced_frame": false, "video_length": "308", "audio_bit_rate": 97355}, "display": 0, "anchor": 0, "perspective_c3_y": {"Points": [{"interpolation": 2, "co": {"X": 1.0, "Y": -1.0}}]}, "scale_y": {"Points": [{"interpolation": 2, "co": {"X": 1.0, "Y": 1.0}}]}, "crop_width": {"Points": [{"interpolation": 2, "co": {"X": 1.0, "Y": -1.0}}]}, "position": 0, "crop_y": {"Points": [{"interpolation": 2, "co": {"X": 1.0, "Y": 0.0}}]}, "channel_mapping": {"Points": [{"interpolation": 2, "co": {"X": 1.0, "Y": -1.0}}]}, "effects": [], "layer": 4, "shear_x": {"Points": [{"interpolation": 2, "co": {"X": 1.0, "Y": 0.0}}]}, "alpha": {"Points": [{"interpolation": 2, "co": {"X": 1.0, "Y": 1.0}}]}, "perspective_c2_x": {"Points": [{"interpolation": 2, "co": {"X": 1.0, "Y": -1.0}}]}, "duration": 10.1927433013916, "image": "C:\\Users\\yifan\\.openshot_qt\\thumbnail\\UEMWFW66UU.png", "scale_x": {"Points": [{"interpolation": 2, "co": {"X": 1.0, "Y": 1.0}}]}, "location_y": {"Points": [{"interpolation": 2, "co": {"X": 1.0, "Y": 0.0}}]}, "start": 0, "title": "2018-03-11_17-18-09.mp4", "crop_x": {"Points": [{"interpolation": 2, "co": {"X": 1.0, "Y": 0.0}}]}}, {"waveform": false, "volume": {"Points": [{"interpolation": 2, "co": {"X": 1.0, "Y": 1.0}}]}, "perspective_c2_y": {"Points": [{"interpolation": 2, "co": {"X": 1.0, "Y": -1.0}}]}, "crop_height": {"Points": [{"interpolation": 2, "co": {"X": 1.0, "Y": -1.0}}]}, "has_audio": {"Points": [{"interpolation": 2, "co": {"X": 1.0, "Y": -1.0}}]}, "location_x": {"Points": [{"interpolation": 2, "co": {"X": 1.0, "Y": 0.0}}]}, "time": {"Points": [{"interpolation": 2, "co": {"X": 1.0, "Y": 1.0}}]}, "scale": 1, "perspective_c3_x": {"Points": [{"interpolation": 2, "co": {"X": 1.0, "Y": -1.0}}]}, "end": 11.1904764175415, "has_video": {"Points": [{"interpolation": 2, "co": {"X": 1.0, "Y": -1.0}}]}, "channel_filter": {"Points": [{"interpolation": 2, "co": {"X": 1.0, "Y": -1.0}}]}, "gravity": 4, "perspective_c4_y": {"Points": [{"interpolation": 2, "co": {"X": 1.0, "Y": -1.0}}]}, "perspective_c1_y": {"Points": [{"interpolation": 2, "co": {"X": 1.0, "Y": -1.0}}]}, "shear_y": {"Points": [{"interpolation": 2, "co": {"X": 1.0, "Y": 0.0}}]}, "perspective_c4_x": {"Points": [{"interpolation": 2, "co": {"X": 1.0, "Y": -1.0}}]}, "perspective_c1_x": {"Points": [{"interpolation": 2, "co": {"X": 1.0, "Y": -1.0}}]}, "file_id": "T8PAWZIGV3", "rotation": {"Points": [{"interpolation": 2, "co": {"X": 1.0, "Y": 0.0}}]}, "id": "PL6FQV7VV9", "wave_color": {"blue": {"Points": [{"interpolation": 0, "handle_left": {"X": 0.5, "Y": 1.0}, "handle_right": {"X": 0.5, "Y": 0.0}, "co": {"X": 1.0, "Y": 255.0}, "handle_type": 0}]}, "green": {"Points": [{"interpolation": 0, "handle_left": {"X": 0.5, "Y": 1.0}, "handle_right": {"X": 0.5, "Y": 0.0}, "co": {"X": 1.0, "Y": 123.0}, "handle_type": 0}]}, "alpha": {"Points": [{"interpolation": 0, "handle_left": {"X": 0.5, "Y": 1.0}, "handle_right": {"X": 0.5, "Y": 0.0}, "co": {"X": 1.0, "Y": 255.0}, "handle_type": 0}]}, "red": {"Points": [{"interpolation": 0, "handle_left": {"X": 0.5, "Y": 1.0}, "handle_right": {"X": 0.5, "Y": 0.0}, "co": {"X": 1.0, "Y": 0.0}, "handle_type": 0}]}}, "reader": {"height": 720, "pixel_ratio": {"num": 1, "den": 1}, "has_single_image": false, "audio_timebase": {"num": 1, "den": 44100}, "audio_stream_index": 1, "display_ratio": {"num": 16, "den": 9}, "channel_layout": 3, "has_audio": true, "video_timebase": {"num": 1, "den": 15360}, "video_bit_rate": 748484, "duration": 11.1904764175415, "fps": {"num": 30, "den": 1}, "channels": 2, "has_video": true, "video_stream_index": 0, "width": 1280, "acodec": "aac", "top_field_first": true, "pixel_format": 0, "vcodec": "h264", "file_size": "1054147", "path": "C:/VS/Video/2018-03-11_17-18-49.mp4", "type": "FFmpegReader", "sample_rate": 44100, "interlaced_frame": false, "video_length": "338", "audio_bit_rate": 97344}, "display": 0, "anchor": 0, "perspective_c3_y": {"Points": [{"interpolation": 2, "co": {"X": 1.0, "Y": -1.0}}]}, "scale_y": {"Points": [{"interpolation": 2, "co": {"X": 1.0, "Y": 1.0}}]}, "crop_width": {"Points": [{"interpolation": 2, "co": {"X": 1.0, "Y": -1.0}}]}, "position": 9.385, "crop_y": {"Points": [{"interpolation": 2, "co": {"X": 1.0, "Y": 0.0}}]}, "channel_mapping": {"Points": [{"interpolation": 2, "co": {"X": 1.0, "Y": -1.0}}]}, "effects": [], "layer": 4, "shear_x": {"Points": [{"interpolation": 2, "co": {"X": 1.0, "Y": 0.0}}]}, "alpha": {"Points": [{"interpolation": 2, "co": {"X": 1.0, "Y": 1.0}}, {"interpolation": 0, "handle_left": {"X": 0.5, "Y": 1.0}, "handle_right": {"X": 0.5, "Y": 0.0}, "co": {"X": 1.0, "Y": 0.0}, "handle_type": 0}, {"interpolation": 0, "handle_left": {"X": 0.5, "Y": 1.0}, "handle_right": {"X": 0.5, "Y": 0.0}, "co": {"X": 25.0, "Y": 1.0}, "handle_type": 0}]}, "perspective_c2_x": {"Points": [{"interpolation": 2, "co": {"X": 1.0, "Y": -1.0}}]}, "duration": 11.1904764175415, "image": "C:\\Users\\yifan\\.openshot_qt\\thumbnail\\T8PAWZIGV3.png", "scale_x": {"Points": [{"interpolation": 2, "co": {"X": 1.0, "Y": 1.0}}]}, "location_y": {"Points": [{"interpolation": 2, "co": {"X": 1.0, "Y": 0.0}}]}, "start": 0, "title": "2018-03-11_17-18-49.mp4", "crop_x": {"Points": [{"interpolation": 2, "co": {"X": 1.0, "Y": 0.0}}]}}, {"waveform": false, "volume": {"Points": [{"interpolation": 2, "co": {"X": 1.0, "Y": 1.0}}]}, "perspective_c2_y": {"Points": [{"interpolation": 2, "co": {"X": 1.0, "Y": -1.0}}]}, "crop_height": {"Points": [{"interpolation": 2, "co": {"X": 1.0, "Y": -1.0}}]}, "has_audio": {"Points": [{"interpolation": 2, "co": {"X": 1.0, "Y": -1.0}}]}, "location_x": {"Points": [{"interpolation": 2, "co": {"X": 1.0, "Y": 0.0}}]}, "time": {"Points": [{"interpolation": 2, "co": {"X": 1.0, "Y": 1.0}}]}, "scale": 1, "perspective_c3_x": {"Points": [{"interpolation": 2, "co": {"X": 1.0, "Y": -1.0}}]}, "end": 14.65079402923584, "has_video": {"Points": [{"interpolation": 2, "co": {"X": 1.0, "Y": -1.0}}]}, "channel_filter": {"Points": [{"interpolation": 2, "co": {"X": 1.0, "Y": -1.0}}]}, "gravity": 4, "perspective_c4_y": {"Points": [{"interpolation": 2, "co": {"X": 1.0, "Y": -1.0}}]}, "perspective_c1_y": {"Points": [{"interpolation": 2, "co": {"X": 1.0, "Y": -1.0}}]}, "shear_y": {"Points": [{"interpolation": 2, "co": {"X": 1.0, "Y": 0.0}}]}, "perspective_c4_x": {"Points": [{"interpolation": 2, "co": {"X": 1.0, "Y": -1.0}}]}, "perspective_c1_x": {"Points": [{"interpolation": 2, "co": {"X": 1.0, "Y": -1.0}}]}, "file_id": "4N4N7L5ZEP", "rotation": {"Points": [{"interpolation": 2, "co": {"X": 1.0, "Y": 0.0}}]}, "id": "YKOLD1EBO6", "wave_color": {"blue": {"Points": [{"interpolation": 0, "handle_left": {"X": 0.5, "Y": 1.0}, "handle_right": {"X": 0.5, "Y": 0.0}, "co": {"X": 1.0, "Y": 255.0}, "handle_type": 0}]}, "green": {"Points": [{"interpolation": 0, "handle_left": {"X": 0.5, "Y": 1.0}, "handle_right": {"X": 0.5, "Y": 0.0}, "co": {"X": 1.0, "Y": 123.0}, "handle_type": 0}]}, "alpha": {"Points": [{"interpolation": 0, "handle_left": {"X": 0.5, "Y": 1.0}, "handle_right": {"X": 0.5, "Y": 0.0}, "co": {"X": 1.0, "Y": 255.0}, "handle_type": 0}]}, "red": {"Points": [{"interpolation": 0, "handle_left": {"X": 0.5, "Y": 1.0}, "handle_right": {"X": 0.5, "Y": 0.0}, "co": {"X": 1.0, "Y": 0.0}, "handle_type": 0}]}}, "reader": {"height": 720, "pixel_ratio": {"num": 1, "den": 1}, "has_single_image": false, "audio_timebase": {"num": 1, "den": 44100}, "audio_stream_index": 1, "display_ratio": {"num": 16, "den": 9}, "channel_layout": 3, "has_audio": true, "video_timebase": {"num": 1, "den": 15360}, "video_bit_rate": 3738793, "duration": 14.65079402923584, "fps": {"num": 60, "den": 1}, "channels": 2, "has_video": true, "video_stream_index": 0, "width": 1280, "acodec": "aac", "top_field_first": true, "pixel_format": 0, "vcodec": "h264", "file_size": "6854610", "path": "C:/VS/Video/2018-03-11_17-21-13.mp4", "type": "FFmpegReader", "sample_rate": 44100, "interlaced_frame": false, "video_length": "880", "audio_bit_rate": 97296}, "display": 0, "anchor": 0, "perspective_c3_y": {"Points": [{"interpolation": 2, "co": {"X": 1.0, "Y": -1.0}}]}, "scale_y": {"Points": [{"interpolation": 2, "co": {"X": 1.0, "Y": 1.0}}]}, "crop_width": {"Points": [{"interpolation": 2, "co": {"X": 1.0, "Y": -1.0}}]}, "position": 20.5753125, "crop_y": {"Points": [{"interpolation": 2, "co": {"X": 1.0, "Y": 0.0}}]}, "channel_mapping": {"Points": [{"interpolation": 2, "co": {"X": 1.0, "Y": -1.0}}]}, "effects": [], "layer": 4, "shear_x": {"Points": [{"interpolation": 2, "co": {"X": 1.0, "Y": 0.0}}]}, "alpha": {"Points": [{"interpolation": 2, "co": {"X": 1.0, "Y": 1.0}}]}, "perspective_c2_x": {"Points": [{"interpolation": 2, "co": {"X": 1.0, "Y": -1.0}}]}, "duration": 14.65079402923584, "image": "C:\\Users\\yifan\\.openshot_qt\\thumbnail\\YKOLD1EBO6-361.png", "scale_x": {"Points": [{"interpolation": 2, "co": {"X": 1.0, "Y": 1.0}}]}, "location_y": {"Points": [{"interpolation": 2, "co": {"X": 1.0, "Y": 0.0}}]}, "start": 6.008020833333333, "title": "2018-03-11_17-21-13.mp4", "crop_x": {"Points": [{"interpolation": 2, "co": {"X": 1.0, "Y": 0.0}}]}}, {"waveform": false, "volume": {"Points": [{"interpolation": 2, "co": {"X": 1.0, "Y": 1.0}}]}, "perspective_c2_y": {"Points": [{"interpolation": 2, "co": {"X": 1.0, "Y": -1.0}}]}, "crop_height": {"Points": [{"interpolation": 2, "co": {"X": 1.0, "Y": -1.0}}]}, "has_audio": {"Points": [{"interpolation": 2, "co": {"X": 1.0, "Y": -1.0}}]}, "location_x": {"Points": [{"interpolation": 2, "co": {"X": 1.0, "Y": 0.0}}]}, "time": {"Points": [{"interpolation": 2, "co": {"X": 1.0, "Y": 1.0}}]}, "scale": 1, "perspective_c3_x": {"Points": [{"interpolation": 2, "co": {"X": 1.0, "Y": -1.0}}]}, "end": 10.68027210235596, "has_video": {"Points": [{"interpolation": 2, "co": {"X": 1.0, "Y": -1.0}}]}, "channel_filter": {"Points": [{"interpolation": 2, "co": {"X": 1.0, "Y": -1.0}}]}, "gravity": 4, "perspective_c4_y": {"Points": [{"interpolation": 2, "co": {"X": 1.0, "Y": -1.0}}]}, "perspective_c1_y": {"Points": [{"interpolation": 2, "co": {"X": 1.0, "Y": -1.0}}]}, "shear_y": {"Points": [{"interpolation": 2, "co": {"X": 1.0, "Y": 0.0}}]}, "perspective_c4_x": {"Points": [{"interpolation": 2, "co": {"X": 1.0, "Y": -1.0}}]}, "perspective_c1_x": {"Points": [{"interpolation": 2, "co": {"X": 1.0, "Y": -1.0}}]}, "file_id": "XVWX27G7GK", "rotation": {"Points": [{"interpolation": 2, "co": {"X": 1.0, "Y": 0.0}}]}, "id": "QHMHVMBNVT", "wave_color": {"blue": {"Points": [{"interpolation": 0, "handle_left": {"X": 0.5, "Y": 1.0}, "handle_right": {"X": 0.5, "Y": 0.0}, "co": {"X": 1.0, "Y": 255.0}, "handle_type": 0}]}, "green": {"Points": [{"interpolation": 0, "handle_left": {"X": 0.5, "Y": 1.0}, "handle_right": {"X": 0.5, "Y": 0.0}, "co": {"X": 1.0, "Y": 123.0}, "handle_type": 0}]}, "alpha": {"Points": [{"interpolation": 0, "handle_left": {"X": 0.5, "Y": 1.0}, "handle_right": {"X": 0.5, "Y": 0.0}, "co": {"X": 1.0, "Y": 255.0}, "handle_type": 0}]}, "red": {"Points": [{"interpolation": 0, "handle_left": {"X": 0.5, "Y": 1.0}, "handle_right": {"X": 0.5, "Y": 0.0}, "co": {"X": 1.0, "Y": 0.0}, "handle_type": 0}]}}, "reader": {"height": 720, "pixel_ratio": {"num": 1, "den": 1}, "has_single_image": false, "audio_timebase": {"num": 1, "den": 44100}, "audio_stream_index": 1, "display_ratio": {"num": 16, "den": 9}, "channel_layout": 3, "has_audio": true, "video_timebase": {"num": 1, "den": 15360}, "video_bit_rate": 1180663, "duration": 10.68027210235596, "fps": {"num": 60, "den": 1}, "channels": 2, "has_video": true, "video_stream_index": 0, "width": 1280, "acodec": "aac", "top_field_first": true, "pixel_format": 0, "vcodec": "h264", "file_size": "1579137", "path": "C:/VS/Video/2018-03-11_17-21-49.mp4", "type": "FFmpegReader", "sample_rate": 44100, "interlaced_frame": false, "video_length": "642", "audio_bit_rate": 97347}, "display": 0, "anchor": 0, "perspective_c3_y": {"Points": [{"interpolation": 2, "co": {"X": 1.0, "Y": -1.0}}]}, "scale_y": {"Points": [{"interpolation": 2, "co": {"X": 1.0, "Y": 1.0}}]}, "crop_width": {"Points": [{"interpolation": 2, "co": {"X": 1.0, "Y": -1.0}}]}, "position": 29.218085695902506, "crop_y": {"Points": [{"interpolation": 2, "co": {"X": 1.0, "Y": 0.0}}]}, "channel_mapping": {"Points": [{"interpolation": 2, "co": {"X": 1.0, "Y": -1.0}}]}, "effects": [], "layer": 4, "shear_x": {"Points": [{"interpolation": 2, "co": {"X": 1.0, "Y": 0.0}}]}, "alpha": {"Points": [{"interpolation": 2, "co": {"X": 1.0, "Y": 1.0}}]}, "perspective_c2_x": {"Points": [{"interpolation": 2, "co": {"X": 1.0, "Y": -1.0}}]}, "duration": 10.68027210235596, "image": "C:\\Users\\yifan\\.openshot_qt\\thumbnail\\XVWX27G7GK.png", "scale_x": {"Points": [{"interpolation": 2, "co": {"X": 1.0, "Y": 1.0}}]}, "location_y": {"Points": [{"interpolation": 2, "co": {"X": 1.0, "Y": 0.0}}]}, "start": 0, "title": "2018-03-11_17-21-49.mp4", "crop_x": {"Points": [{"interpolation": 2, "co": {"X": 1.0, "Y": 0.0}}]}}, {"waveform": false, "volume": {"Points": [{"interpolation": 2, "co": {"X": 1.0, "Y": 1.0}}]}, "perspective_c2_y": {"Points": [{"interpolation": 2, "co": {"X": 1.0, "Y": -1.0}}]}, "crop_height": {"Points": [{"interpolation": 2, "co": {"X": 1.0, "Y": -1.0}}]}, "has_audio": {"Points": [{"interpolation": 2, "co": {"X": 1.0, "Y": -1.0}}]}, "location_x": {"Points": [{"interpolation": 2, "co": {"X": 1.0, "Y": 0.0}}]}, "time": {"Points": [{"interpolation": 2, "co": {"X": 1.0, "Y": 1.0}}]}, "scale": 1, "perspective_c3_x": {"Points": [{"interpolation": 2, "co": {"X": 1.0, "Y": -1.0}}]}, "end": 6.601642201741534, "has_video": {"Points": [{"interpolation": 2, "co": {"X": 1.0, "Y": -1.0}}]}, "channel_filter": {"Points": [{"interpolation": 2, "co": {"X": 1.0, "Y": -1.0}}]}, "gravity": 4, "perspective_c4_y": {"Points": [{"interpolation": 2, "co": {"X": 1.0, "Y": -1.0}}]}, "perspective_c1_y": {"Points": [{"interpolation": 2, "co": {"X": 1.0, "Y": -1.0}}]}, "shear_y": {"Points": [{"interpolation": 2, "co": {"X": 1.0, "Y": 0.0}}]}, "perspective_c4_x": {"Points": [{"interpolation": 2, "co": {"X": 1.0, "Y": -1.0}}]}, "perspective_c1_x": {"Points": [{"interpolation": 2, "co": {"X": 1.0, "Y": -1.0}}]}, "file_id": "GH0TMMFPLE", "rotation": {"Points": [{"interpolation": 2, "co": {"X": 1.0, "Y": 0.0}}]}, "id": "1B3HU028O6", "wave_color": {"blue": {"Points": [{"interpolation": 0, "handle_left": {"X": 0.5, "Y": 1.0}, "handle_right": {"X": 0.5, "Y": 0.0}, "co": {"X": 1.0, "Y": 255.0}, "handle_type": 0}]}, "green": {"Points": [{"interpolation": 0, "handle_left": {"X": 0.5, "Y": 1.0}, "handle_right": {"X": 0.5, "Y": 0.0}, "co": {"X": 1.0, "Y": 123.0}, "handle_type": 0}]}, "alpha": {"Points": [{"interpolation": 0, "handle_left": {"X": 0.5, "Y": 1.0}, "handle_right": {"X": 0.5, "Y": 0.0}, "co": {"X": 1.0, "Y": 255.0}, "handle_type": 0}]}, "red": {"Points": [{"interpolation": 0, "handle_left": {"X": 0.5, "Y": 1.0}, "handle_right": {"X": 0.5, "Y": 0.0}, "co": {"X": 1.0, "Y": 0.0}, "handle_type": 0}]}}, "reader": {"height": 720, "pixel_ratio": {"num": 1, "den": 1}, "has_single_image": false, "audio_timebase": {"num": 1, "den": 44100}, "audio_stream_index": 1, "display_ratio": {"num": 16, "den": 9}, "channel_layout": 3, "has_audio": true, "video_timebase": {"num": 1, "den": 15360}, "video_bit_rate": 2437931, "duration": 7.126984119415283, "fps": {"num": 60, "den": 1}, "channels": 2, "has_video": true, "video_stream_index": 0, "width": 1280, "acodec": "aac", "top_field_first": true, "pixel_format": 0, "vcodec": "h264", "file_size": "2174025", "path": "C:/VS/Video/2018-03-11_17-22-13.mp4", "type": "FFmpegReader", "sample_rate": 44100, "interlaced_frame": false, "video_length": "428", "audio_bit_rate": 97450}, "display": 0, "anchor": 0, "perspective_c3_y": {"Points": [{"interpolation": 2, "co": {"X": 1.0, "Y": -1.0}}]}, "scale_y": {"Points": [{"interpolation": 2, "co": {"X": 1.0, "Y": 1.0}}]}, "crop_width": {"Points": [{"interpolation": 2, "co": {"X": 1.0, "Y": -1.0}}]}, "position": 39.898357798258466, "crop_y": {"Points": [{"interpolation": 2, "co": {"X": 1.0, "Y": 0.0}}]}, "channel_mapping": {"Points": [{"interpolation": 2, "co": {"X": 1.0, "Y": -1.0}}]}, "effects": [], "layer": 4, "shear_x": {"Points": [{"interpolation": 2, "co": {"X": 1.0, "Y": 0.0}}]}, "alpha": {"Points": [{"interpolation": 2, "co": {"X": 1.0, "Y": 1.0}}]}, "perspective_c2_x": {"Points": [{"interpolation": 2, "co": {"X": 1.0, "Y": -1.0}}]}, "duration": 7.126984119415283, "image": "C:\\Users\\yifan\\.openshot_qt\\thumbnail\\GH0TMMFPLE.png", "scale_x": {"Points": [{"interpolation": 2, "co": {"X": 1.0, "Y": 1.0}}]}, "location_y": {"Points": [{"interpolation": 2, "co": {"X": 1.0, "Y": 0.0}}]}, "start": 0, "title": "2018-03-11_17-22-13.mp4", "crop_x": {"Points": [{"interpolation": 2, "co": {"X": 1.0, "Y": 0.0}}]}}, {"waveform": false, "volume": {"Points": [{"interpolation": 2, "co": {"X": 1.0, "Y": 1.0}}]}, "perspective_c2_y": {"Points": [{"interpolation": 2, "co": {"X": 1.0, "Y": -1.0}}]}, "crop_height": {"Points": [{"interpolation": 2, "co": {"X": 1.0, "Y": -1.0}}]}, "has_audio": {"Points": [{"interpolation": 2, "co": {"X": 1.0, "Y": -1.0}}]}, "location_x": {"Points": [{"interpolation": 2, "co": {"X": 1.0, "Y": 0.0}}]}, "time": {"Points": [{"interpolation": 2, "co": {"X": 1.0, "Y": 1.0}}]}, "scale": 1, "perspective_c3_x": {"Points": [{"interpolation": 2, "co": {"X": 1.0, "Y": -1.0}}]}, "end": 153.6000213623047, "has_video": {"Points": [{"interpolation": 2, "co": {"X": 1.0, "Y": -1.0}}]}, "channel_filter": {"Points": [{"interpolation": 2, "co": {"X": 1.0, "Y": -1.0}}]}, "gravity": 4, "perspective_c4_y": {"Points": [{"interpolation": 2, "co": {"X": 1.0, "Y": -1.0}}]}, "perspective_c1_y": {"Points": [{"interpolation": 2, "co": {"X": 1.0, "Y": -1.0}}]}, "shear_y": {"Points": [{"interpolation": 2, "co": {"X": 1.0, "Y": 0.0}}]}, "perspective_c4_x": {"Points": [{"interpolation": 2, "co": {"X": 1.0, "Y": -1.0}}]}, "perspective_c1_x": {"Points": [{"interpolation": 2, "co": {"X": 1.0, "Y": -1.0}}]}, "file_id": "1C7ASWD835", "rotation": {"Points": [{"interpolation": 2, "co": {"X": 1.0, "Y": 0.0}}]}, "id": "0JWVPAIAY7", "wave_color": {"blue": {"Points": [{"interpolation": 0, "handle_left": {"X": 0.5, "Y": 1.0}, "handle_right": {"X": 0.5, "Y": 0.0}, "co": {"X": 1.0, "Y": 255.0}, "handle_type": 0}]}, "green": {"Points": [{"interpolation": 0, "handle_left": {"X": 0.5, "Y": 1.0}, "handle_right": {"X": 0.5, "Y": 0.0}, "co": {"X": 1.0, "Y": 123.0}, "handle_type": 0}]}, "alpha": {"Points": [{"interpolation": 0, "handle_left": {"X": 0.5, "Y": 1.0}, "handle_right": {"X": 0.5, "Y": 0.0}, "co": {"X": 1.0, "Y": 255.0}, "handle_type": 0}]}, "red": {"Points": [{"interpolation": 0, "handle_left": {"X": 0.5, "Y": 1.0}, "handle_right": {"X": 0.5, "Y": 0.0}, "co": {"X": 1.0, "Y": 0.0}, "handle_type": 0}]}}, "reader": {"height": 480, "pixel_ratio": {"num": 1, "den": 1}, "has_single_image": false, "audio_timebase": {"num": 1, "den": 44100}, "audio_stream_index": 0, "display_ratio": {"num": 1, "den": 1}, "channel_layout": 3, "has_audio": true, "video_timebase": {"num": 1, "den": 24}, "video_bit_rate": 0, "duration": 153.6000213623047, "fps": {"num": 24, "den": 1}, "channels": 2, "has_video": false, "video_stream_index": -1, "width": 720, "acodec": "pcm_f32le", "top_field_first": true, "pixel_format": -1, "vcodec": "", "file_size": "54192082", "path": "C:/VS/MovementTesting/Assets/Music/Final Boss.wav", "type": "FFmpegReader", "sample_rate": 44100, "interlaced_frame": false, "video_length": "3686", "audio_bit_rate": 2822400}, "display": 0, "anchor": 0, "perspective_c3_y": {"Points": [{"interpolation": 2, "co": {"X": 1.0, "Y": -1.0}}]}, "scale_y": {"Points": [{"interpolation": 2, "co": {"X": 1.0, "Y": 1.0}}]}, "crop_width": {"Points": [{"interpolation": 2, "co": {"X": 1.0, "Y": -1.0}}]}, "position": 0.04166666666666666, "crop_y": {"Points": [{"interpolation": 2, "co": {"X": 1.0, "Y": 0.0}}]}, "channel_mapping": {"Points": [{"interpolation": 2, "co": {"X": 1.0, "Y": -1.0}}]}, "effects": [], "layer": 3, "shear_x": {"Points": [{"interpolation": 2, "co": {"X": 1.0, "Y": 0.0}}]}, "alpha": {"Points": [{"interpolation": 2, "co": {"X": 1.0, "Y": 1.0}}]}, "perspective_c2_x": {"Points": [{"interpolation": 2, "co": {"X": 1.0, "Y": -1.0}}]}, "duration": 153.6000213623047, "image": "C:\\Program Files\\OpenShot Video Editor\\images\\AudioThumbnail.png", "scale_x": {"Points": [{"interpolation": 2, "co": {"X": 1.0, "Y": 1.0}}]}, "location_y": {"Points": [{"interpolation": 2, "co": {"X": 1.0, "Y": 0.0}}]}, "start": 0, "title": "Final Boss.wav", "crop_x": {"Points": [{"interpolation": 2, "co": {"X": 1.0, "Y": 0.0}}]}}, {"waveform": false, "volume": {"Points": [{"interpolation": 2, "co": {"X": 1.0, "Y": 1.0}}]}, "perspective_c2_y": {"Points": [{"interpolation": 2, "co": {"X": 1.0, "Y": -1.0}}]}, "crop_height": {"Points": [{"interpolation": 2, "co": {"X": 1.0, "Y": -1.0}}]}, "has_audio": {"Points": [{"interpolation": 2, "co": {"X": 1.0, "Y": -1.0}}]}, "location_x": {"Points": [{"interpolation": 2, "co": {"X": 1.0, "Y": 0.0}}]}, "time": {"Points": [{"interpolation": 2, "co": {"X": 1.0, "Y": 1.0}}]}, "scale": 1, "perspective_c3_x": {"Points": [{"interpolation": 2, "co": {"X": 1.0, "Y": -1.0}}]}, "end": 9.915, "has_video": {"Points": [{"interpolation": 2, "co": {"X": 1.0, "Y": -1.0}}]}, "channel_filter": {"Points": [{"interpolation": 2, "co": {"X": 1.0, "Y": -1.0}}]}, "gravity": 4, "perspective_c4_y": {"Points": [{"interpolation": 2, "co": {"X": 1.0, "Y": -1.0}}]}, "perspective_c1_y": {"Points": [{"interpolation": 2, "co": {"X": 1.0, "Y": -1.0}}]}, "shear_y": {"Points": [{"interpolation": 2, "co": {"X": 1.0, "Y": 0.0}}]}, "perspective_c4_x": {"Points": [{"interpolation": 2, "co": {"X": 1.0, "Y": -1.0}}]}, "perspective_c1_x": {"Points": [{"interpolation": 2, "co": {"X": 1.0, "Y": -1.0}}]}, "file_id": "DCOSRPQLUE", "rotation": {"Points": [{"interpolation": 2, "co": {"X": 1.0, "Y": 0.0}}]}, "id": "9N232ZSCDX", "wave_color": {"blue": {"Points": [{"interpolation": 0, "handle_left": {"X": 0.5, "Y": 1.0}, "handle_right": {"X": 0.5, "Y": 0.0}, "co": {"X": 1.0, "Y": 255.0}, "handle_type": 0}]}, "green": {"Points": [{"interpolation": 0, "handle_left": {"X": 0.5, "Y": 1.0}, "handle_right": {"X": 0.5, "Y": 0.0}, "co": {"X": 1.0, "Y": 123.0}, "handle_type": 0}]}, "alpha": {"Points": [{"interpolation": 0, "handle_left": {"X": 0.5, "Y": 1.0}, "handle_right": {"X": 0.5, "Y": 0.0}, "co": {"X": 1.0, "Y": 255.0}, "handle_type": 0}]}, "red": {"Points": [{"interpolation": 0, "handle_left": {"X": 0.5, "Y": 1.0}, "handle_right": {"X": 0.5, "Y": 0.0}, "co": {"X": 1.0, "Y": 0.0}, "handle_type": 0}]}}, "reader": {"height": 720, "pixel_ratio": {"num": 1, "den": 1}, "has_single_image": false, "audio_timebase": {"num": 1, "den": 44100}, "audio_stream_index": 1, "display_ratio": {"num": 16, "den": 9}, "channel_layout": 3, "has_audio": true, "video_timebase": {"num": 1, "den": 15360}, "video_bit_rate": 2996517, "duration": 11.63265323638916, "fps": {"num": 60, "den": 1}, "channels": 2, "has_video": true, "video_stream_index": 0, "width": 1280, "acodec": "aac", "top_field_first": true, "pixel_format": 0, "vcodec": "h264", "file_size": "4363678", "path": "C:/VS/Video/2018-03-11_17-25-52.mp4", "type": "FFmpegReader", "sample_rate": 44100, "interlaced_frame": false, "video_length": "699", "audio_bit_rate": 97328}, "display": 0, "anchor": 0, "perspective_c3_y": {"Points": [{"interpolation": 2, "co": {"X": 1.0, "Y": -1.0}}]}, "scale_y": {"Points": [{"interpolation": 2, "co": {"X": 1.0, "Y": 1.0}}]}, "crop_width": {"Points": [{"interpolation": 2, "co": {"X": 1.0, "Y": -1.0}}]}, "position": 45.96, "crop_y": {"Points": [{"interpolation": 2, "co": {"X": 1.0, "Y": 0.0}}]}, "channel_mapping": {"Points": [{"interpolation": 2, "co": {"X": 1.0, "Y": -1.0}}]}, "effects": [], "layer": 4, "shear_x": {"Points": [{"interpolation": 2, "co": {"X": 1.0, "Y": 0.0}}]}, "alpha": {"Points": [{"interpolation": 2, "co": {"X": 1.0, "Y": 1.0}}]}, "perspective_c2_x": {"Points": [{"interpolation": 2, "co": {"X": 1.0, "Y": -1.0}}]}, "duration": 11.63265323638916, "image": "C:\\Users\\yifan\\.openshot_qt\\thumbnail\\DCOSRPQLUE.png", "scale_x": {"Points": [{"interpolation": 2, "co": {"X": 1.0, "Y": 1.0}}]}, "location_y": {"Points": [{"interpolation": 2, "co": {"X": 1.0, "Y": 0.0}}]}, "start": 0, "title": "2018-03-11_17-25-52.mp4", "crop_x": {"Points": [{"interpolation": 2, "co": {"X": 1.0, "Y": 0.0}}]}}, {"waveform": false, "volume": {"Points": [{"interpolation": 2, "co": {"X": 1.0, "Y": 1.0}}]}, "perspective_c2_y": {"Points": [{"interpolation": 2, "co": {"X": 1.0, "Y": -1.0}}]}, "crop_height": {"Points": [{"interpolation": 2, "co": {"X": 1.0, "Y": -1.0}}]}, "has_audio": {"Points": [{"interpolation": 2, "co": {"X": 1.0, "Y": -1.0}}]}, "location_x": {"Points": [{"interpolation": 2, "co": {"X": 1.0, "Y": 0.0}}]}, "time": {"Points": [{"interpolation": 2, "co": {"X": 1.0, "Y": 1.0}}]}, "scale": 1, "perspective_c3_x": {"Points": [{"interpolation": 2, "co": {"X": 1.0, "Y": -1.0}}]}, "end": 22.499999999999993, "has_video": {"Points": [{"interpolation": 2, "co": {"X": 1.0, "Y": -1.0}}]}, "channel_filter": {"Points": [{"interpolation": 2, "co": {"X": 1.0, "Y": -1.0}}]}, "gravity": 4, "perspective_c4_y": {"Points": [{"interpolation": 2, "co": {"X": 1.0, "Y": -1.0}}]}, "perspective_c1_y": {"Points": [{"interpolation": 2, "co": {"X": 1.0, "Y": -1.0}}]}, "shear_y": {"Points": [{"interpolation": 2, "co": {"X": 1.0, "Y": 0.0}}]}, "perspective_c4_x": {"Points": [{"interpolation": 2, "co": {"X": 1.0, "Y": -1.0}}]}, "perspective_c1_x": {"Points": [{"interpolation": 2, "co": {"X": 1.0, "Y": -1.0}}]}, "file_id": "PBZDJATIGN", "rotation": {"Points": [{"interpolation": 2, "co": {"X": 1.0, "Y": 0.0}}]}, "id": "TGURL6WJII", "wave_color": {"blue": {"Points": [{"interpolation": 0, "handle_left": {"X": 0.5, "Y": 1.0}, "handle_right": {"X": 0.5, "Y": 0.0}, "co": {"X": 1.0, "Y": 255.0}, "handle_type": 0}]}, "green": {"Points": [{"interpolation": 0, "handle_left": {"X": 0.5, "Y": 1.0}, "handle_right": {"X": 0.5, "Y": 0.0}, "co": {"X": 1.0, "Y": 123.0}, "handle_type": 0}]}, "alpha": {"Points": [{"interpolation": 0, "handle_left": {"X": 0.5, "Y": 1.0}, "handle_right": {"X": 0.5, "Y": 0.0}, "co": {"X": 1.0, "Y": 255.0}, "handle_type": 0}]}, "red": {"Points": [{"interpolation": 0, "handle_left": {"X": 0.5, "Y": 1.0}, "handle_right": {"X": 0.5, "Y": 0.0}, "co": {"X": 1.0, "Y": 0.0}, "handle_type": 0}]}}, "reader": {"height": 720, "pixel_ratio": {"num": 1, "den": 1}, "has_single_image": false, "audio_timebase": {"num": 1, "den": 44100}, "audio_stream_index": 1, "display_ratio": {"num": 16, "den": 9}, "channel_layout": 3, "has_audio": true, "video_timebase": {"num": 1, "den": 15360}, "video_bit_rate": 3160877, "duration": 22.94104385375977, "fps": {"num": 60, "den": 1}, "channels": 2, "has_video": true, "video_stream_index": 0, "width": 1280, "acodec": "aac", "top_field_first": true, "pixel_format": 0, "vcodec": "h264", "file_size": "9074485", "path": "C:/VS/Video/2018-03-11_17-28-25.mp4", "type": "FFmpegReader", "sample_rate": 44100, "interlaced_frame": false, "video_length": "1378", "audio_bit_rate": 97243}, "display": 0, "anchor": 0, "perspective_c3_y": {"Points": [{"interpolation": 2, "co": {"X": 1.0, "Y": -1.0}}]}, "scale_y": {"Points": [{"interpolation": 2, "co": {"X": 1.0, "Y": 1.0}}]}, "crop_width": {"Points": [{"interpolation": 2, "co": {"X": 1.0, "Y": -1.0}}]}, "position": 55.875, "crop_y": {"Points": [{"interpolation": 2, "co": {"X": 1.0, "Y": 0.0}}]}, "channel_mapping": {"Points": [{"interpolation": 2, "co": {"X": 1.0, "Y": -1.0}}]}, "effects": [], "layer": 4, "shear_x": {"Points": [{"interpolation": 2, "co": {"X": 1.0, "Y": 0.0}}]}, "alpha": {"Points": [{"interpolation": 2, "co": {"X": 1.0, "Y": 1.0}}]}, "perspective_c2_x": {"Points": [{"interpolation": 2, "co": {"X": 1.0, "Y": -1.0}}]}, "duration": 22.94104385375977, "image": "C:\\Users\\yifan\\.openshot_qt\\thumbnail\\TGURL6WJII-198.png", "scale_x": {"Points": [{"interpolation": 2, "co": {"X": 1.0, "Y": 1.0}}]}, "location_y": {"Points": [{"interpolation": 2, "co": {"X": 1.0, "Y": 0.0}}]}, "start": 3.2916666666666643, "title": "2018-03-11_17-28-25.mp4", "crop_x": {"Points": [{"interpolation": 2, "co": {"X": 1.0, "Y": 0.0}}]}}, {"waveform": false, "volume": {"Points": [{"interpolation": 2, "co": {"X": 1.0, "Y": 1.0}}]}, "perspective_c2_y": {"Points": [{"interpolation": 2, "co": {"X": 1.0, "Y": -1.0}}]}, "crop_height": {"Points": [{"interpolation": 2, "co": {"X": 1.0, "Y": -1.0}}]}, "has_audio": {"Points": [{"interpolation": 2, "co": {"X": 1.0, "Y": -1.0}}]}, "location_x": {"Points": [{"interpolation": 2, "co": {"X": 1.0, "Y": 0.0}}]}, "time": {"Points": [{"interpolation": 2, "co": {"X": 1.0, "Y": 1.0}}]}, "scale": 1, "perspective_c3_x": {"Points": [{"interpolation": 2, "co": {"X": 1.0, "Y": -1.0}}]}, "end": 12.05020833333333, "has_video": {"Points": [{"interpolation": 2, "co": {"X": 1.0, "Y": -1.0}}]}, "channel_filter": {"Points": [{"interpolation": 2, "co": {"X": 1.0, "Y": -1.0}}]}, "gravity": 4, "perspective_c4_y": {"Points": [{"interpolation": 2, "co": {"X": 1.0, "Y": -1.0}}]}, "perspective_c1_y": {"Points": [{"interpolation": 2, "co": {"X": 1.0, "Y": -1.0}}]}, "shear_y": {"Points": [{"interpolation": 2, "co": {"X": 1.0, "Y": 0.0}}]}, "perspective_c4_x": {"Points": [{"interpolation": 2, "co": {"X": 1.0, "Y": -1.0}}]}, "perspective_c1_x": {"Points": [{"interpolation": 2, "co": {"X": 1.0, "Y": -1.0}}]}, "file_id": "991RFD2R1F", "rotation": {"Points": [{"interpolation": 2, "co": {"X": 1.0, "Y": 0.0}}]}, "id": "NG5RG0J90S", "wave_color": {"blue": {"Points": [{"interpolation": 0, "handle_left": {"X": 0.5, "Y": 1.0}, "handle_right": {"X": 0.5, "Y": 0.0}, "co": {"X": 1.0, "Y": 255.0}, "handle_type": 0}]}, "green": {"Points": [{"interpolation": 0, "handle_left": {"X": 0.5, "Y": 1.0}, "handle_right": {"X": 0.5, "Y": 0.0}, "co": {"X": 1.0, "Y": 123.0}, "handle_type": 0}]}, "alpha": {"Points": [{"interpolation": 0, "handle_left": {"X": 0.5, "Y": 1.0}, "handle_right": {"X": 0.5, "Y": 0.0}, "co": {"X": 1.0, "Y": 255.0}, "handle_type": 0}]}, "red": {"Points": [{"interpolation": 0, "handle_left": {"X": 0.5, "Y": 1.0}, "handle_right": {"X": 0.5, "Y": 0.0}, "co": {"X": 1.0, "Y": 0.0}, "handle_type": 0}]}}, "reader": {"height": 720, "pixel_ratio": {"num": 1, "den": 1}, "has_single_image": false, "audio_timebase": {"num": 1, "den": 44100}, "audio_stream_index": 1, "display_ratio": {"num": 16, "den": 9}, "channel_layout": 3, "has_audio": true, "video_timebase": {"num": 1, "den": 15360}, "video_bit_rate": 2766400, "duration": 14.11564636230469, "fps": {"num": 60, "den": 1}, "channels": 2, "has_video": true, "video_stream_index": 0, "width": 1280, "acodec": "aac", "top_field_first": true, "pixel_format": 0, "vcodec": "h264", "file_size": "4887538", "path": "C:/VS/Video/2018-03-11_17-29-06.mp4", "type": "FFmpegReader", "sample_rate": 44100, "interlaced_frame": false, "video_length": "848", "audio_bit_rate": 97309}, "display": 0, "anchor": 0, "perspective_c3_y": {"Points": [{"interpolation": 2, "co": {"X": 1.0, "Y": -1.0}}]}, "scale_y": {"Points": [{"interpolation": 2, "co": {"X": 1.0, "Y": 1.0}}]}, "crop_width": {"Points": [{"interpolation": 2, "co": {"X": 1.0, "Y": -1.0}}]}, "position": 74.533125, "crop_y": {"Points": [{"interpolation": 2, "co": {"X": 1.0, "Y": 0.0}}]}, "channel_mapping": {"Points": [{"interpolation": 2, "co": {"X": 1.0, "Y": -1.0}}]}, "effects": [], "layer": 4, "shear_x": {"Points": [{"interpolation": 2, "co": {"X": 1.0, "Y": 0.0}}]}, "alpha": {"Points": [{"interpolation": 2, "co": {"X": 1.0, "Y": 1.0}}]}, "perspective_c2_x": {"Points": [{"interpolation": 2, "co": {"X": 1.0, "Y": -1.0}}]}, "duration": 14.11564636230469, "image": "C:\\Users\\yifan\\.openshot_qt\\thumbnail\\NG5RG0J90S-198.png", "scale_x": {"Points": [{"interpolation": 2, "co": {"X": 1.0, "Y": 1.0}}]}, "location_y": {"Points": [{"interpolation": 2, "co": {"X": 1.0, "Y": 0.0}}]}, "start": 3.291666666666657, "title": "2018-03-11_17-29-06.mp4", "crop_x": {"Points": [{"interpolation": 2, "co": {"X": 1.0, "Y": 0.0}}]}}], "type": "insert", "key": ["clips"], "partial": false, "value": {"waveform": false, "channel_mapping": {"Points": [{"interpolation": 2, "co": {"X": 1.0, "Y": -1.0}}]}, "perspective_c2_y": {"Points": [{"interpolation": 2, "co": {"X": 1.0, "Y": -1.0}}]}, "reader": {"height": 720, "channel_layout": 3, "has_video": true, "audio_timebase": {"num": 1, "den": 44100}, "audio_stream_index": 1, "display_ratio": {"num": 16, "den": 9}, "pixel_ratio": {"num": 1, "den": 1}, "video_length": "894", "has_audio": true, "video_timebase": {"num": 1, "den": 15360}, "vcodec": "h264", "duration": 14.8820858001709, "fps": {"num": 60, "den": 1}, "has_single_image": false, "video_stream_index": 0, "width": 1280, "acodec": "aac", "top_field_first": true, "pixel_format": 0, "video_bit_rate": 3341283, "file_size": "6223141", "path": "C:/VS/Video/2018-03-11_17-29-26.mp4", "type": "FFmpegReader", "sample_rate": 44100, "interlaced_frame": false, "channels": 2, "audio_bit_rate": 97300}, "crop_height": {"Points": [{"interpolation": 2, "co": {"X": 1.0, "Y": -1.0}}]}, "time": {"Points": [{"interpolation": 2, "co": {"X": 1.0, "Y": 1.0}}]}, "has_audio": {"Points": [{"interpolation": 2, "co": {"X": 1.0, "Y": -1.0}}]}, "scale": 1, "perspective_c3_x": {"Points": [{"interpolation": 2, "co": {"X": 1.0, "Y": -1.0}}]}, "display": 0, "scale_x": {"Points": [{"interpolation": 2, "co": {"X": 1.0, "Y": 1.0}}]}, "gravity": 4, "end": 3.999999999999986, "perspective_c1_y": {"Points": [{"interpolation": 2, "co": {"X": 1.0, "Y": -1.0}}]}, "perspective_c3_y": {"Points": [{"interpolation": 2, "co": {"X": 1.0, "Y": -1.0}}]}, "shear_y": {"Points": [{"interpolation": 2, "co": {"X": 1.0, "Y": 0.0}}]}, "perspective_c4_x": {"Points": [{"interpolation": 2, "co": {"X": 1.0, "Y": -1.0}}]}, "perspective_c1_x": {"Points": [{"interpolation": 2, "co": {"X": 1.0, "Y": -1.0}}]}, "file_id": "YWBK3SLP7U", "rotation": {"Points": [{"interpolation": 2, "co": {"X": 1.0, "Y": 0.0}}]}, "id": "I5QPGK3C2F", "wave_color": {"blue": {"Points": [{"interpolation": 0, "handle_left": {"X": 0.5, "Y": 1.0}, "handle_right": {"X": 0.5, "Y": 0.0}, "co": {"X": 1.0, "Y": 255.0}, "handle_type": 0}]}, "green": {"Points": [{"interpolation": 0, "handle_left": {"X": 0.5, "Y": 1.0}, "handle_right": {"X": 0.5, "Y": 0.0}, "co": {"X": 1.0, "Y": 123.0}, "handle_type": 0}]}, "alpha": {"Points": [{"interpolation": 0, "handle_left": {"X": 0.5, "Y": 1.0}, "handle_right": {"X": 0.5, "Y": 0.0}, "co": {"X": 1.0, "Y": 255.0}, "handle_type": 0}]}, "red": {"Points": [{"interpolation": 0, "handle_left": {"X": 0.5, "Y": 1.0}, "handle_right": {"X": 0.5, "Y": 0.0}, "co": {"X": 1.0, "Y": 0.0}, "handle_type": 0}]}}, "has_video": {"Points": [{"interpolation": 2, "co": {"X": 1.0, "Y": -1.0}}]}, "anchor": 0, "location_x": {"Points": [{"interpolation": 2, "co": {"X": 1.0, "Y": 0.0}}]}, "scale_y": {"Points": [{"interpolation": 2, "co": {"X": 1.0, "Y": 1.0}}]}, "crop_width": {"Points": [{"interpolation": 2, "co": {"X": 1.0, "Y": -1.0}}]}, "position": 82.5515625, "effects": [], "volume": {"Points": [{"interpolation": 2, "co": {"X": 1.0, "Y": 1.0}}]}, "channel_filter": {"Points": [{"interpolation": 2, "co": {"X": 1.0, "Y": -1.0}}]}, "layer": 4, "shear_x": {"Points": [{"interpolation": 2, "co": {"X": 1.0, "Y": 0.0}}]}, "alpha": {"Points": [{"interpolation": 2, "co": {"X": 1.0, "Y": 1.0}}]}, "perspective_c2_x": {"Points": [{"interpolation": 2, "co": {"X": 1.0, "Y": -1.0}}]}, "duration": 14.8820858001709, "start": 0, "image": "C:\\Users\\yifan\\.openshot_qt\\thumbnail\\YWBK3SLP7U.png", "perspective_c4_y": {"Points": [{"interpolation": 2, "co": {"X": 1.0, "Y": -1.0}}]}, "location_y": {"Points": [{"interpolation": 2, "co": {"X": 1.0, "Y": 0.0}}]}, "crop_y": {"Points": [{"interpolation": 2, "co": {"X": 1.0, "Y": 0.0}}]}, "title": "2018-03-11_17-29-26.mp4", "crop_x": {"Points": [{"interpolation": 2, "co": {"X": 1.0, "Y": 0.0}}]}}}, {"old_values": {"waveform": false, "channel_mapping": {"Points": [{"interpolation": 2, "co": {"X": 1.0, "Y": -1.0}}]}, "perspective_c2_y": {"Points": [{"interpolation": 2, "co": {"X": 1.0, "Y": -1.0}}]}, "crop_height": {"Points": [{"interpolation": 2, "co": {"X": 1.0, "Y": -1.0}}]}, "has_audio": {"Points": [{"interpolation": 2, "co": {"X": 1.0, "Y": -1.0}}]}, "crop_y": {"Points": [{"interpolation": 2, "co": {"X": 1.0, "Y": 0.0}}]}, "perspective_c2_x": {"Points": [{"interpolation": 2, "co": {"X": 1.0, "Y": -1.0}}]}, "scale": 1, "perspective_c3_x": {"Points": [{"interpolation": 2, "co": {"X": 1.0, "Y": -1.0}}]}, "end": 14.8820858001709, "gravity": 4, "perspective_c4_y": {"Points": [{"interpolation": 2, "co": {"X": 1.0, "Y": -1.0}}]}, "perspective_c1_y": {"Points": [{"interpolation": 2, "co": {"X": 1.0, "Y": -1.0}}]}, "perspective_c3_y": {"Points": [{"interpolation": 2, "co": {"X": 1.0, "Y": -1.0}}]}, "shear_y": {"Points": [{"interpolation": 2, "co": {"X": 1.0, "Y": 0.0}}]}, "perspective_c4_x": {"Points": [{"interpolation": 2, "co": {"X": 1.0, "Y": -1.0}}]}, "perspective_c1_x": {"Points": [{"interpolation": 2, "co": {"X": 1.0, "Y": -1.0}}]}, "file_id": "YWBK3SLP7U", "rotation": {"Points": [{"interpolation": 2, "co": {"X": 1.0, "Y": 0.0}}]}, "layer": 4, "duration": 14.8820858001709, "reader": {"height": 720, "pixel_ratio": {"num": 1, "den": 1}, "has_single_image": false, "audio_timebase": {"num": 1, "den": 44100}, "audio_stream_index": 1, "display_ratio": {"num": 16, "den": 9}, "channel_layout": 3, "has_audio": true, "video_timebase": {"num": 1, "den": 15360}, "video_bit_rate": 3341283, "duration": 14.8820858001709, "fps": {"num": 60, "den": 1}, "channels": 2, "has_video": true, "video_stream_index": 0, "width": 1280, "acodec": "aac", "top_field_first": true, "pixel_format": 0, "vcodec": "h264", "file_size": "6223141", "path": "C:/VS/Video/2018-03-11_17-29-26.mp4", "type": "FFmpegReader", "sample_rate": 44100, "interlaced_frame": false, "video_length": "894", "audio_bit_rate": 97300}, "has_video": {"Points": [{"interpolation": 2, "co": {"X": 1.0, "Y": -1.0}}]}, "anchor": 0, "location_x": {"Points": [{"interpolation": 2, "co": {"X": 1.0, "Y": 0.0}}]}, "scale_y": {"Points": [{"interpolation": 2, "co": {"X": 1.0, "Y": 1.0}}]}, "crop_width": {"Points": [{"interpolation": 2, "co": {"X": 1.0, "Y": -1.0}}]}, "position": 79.24, "effects": [], "volume": {"Points": [{"interpolation": 2, "co": {"X": 1.0, "Y": 1.0}}]}, "channel_filter": {"Points": [{"interpolation": 2, "co": {"X": 1.0, "Y": -1.0}}]}, "display": 0, "id": "I5QPGK3C2F", "shear_x": {"Points": [{"interpolation": 2, "co": {"X": 1.0, "Y": 0.0}}]}, "alpha": {"Points": [{"interpolation": 2, "co": {"X": 1.0, "Y": 1.0}}]}, "wave_color": {"blue": {"Points": [{"interpolation": 0, "handle_left": {"X": 0.5, "Y": 1.0}, "handle_right": {"X": 0.5, "Y": 0.0}, "co": {"X": 1.0, "Y": 255.0}, "handle_type": 0}]}, "green": {"Points": [{"interpolation": 0, "handle_left": {"X": 0.5, "Y": 1.0}, "handle_right": {"X": 0.5, "Y": 0.0}, "co": {"X": 1.0, "Y": 123.0}, "handle_type": 0}]}, "alpha": {"Points": [{"interpolation": 0, "handle_left": {"X": 0.5, "Y": 1.0}, "handle_right": {"X": 0.5, "Y": 0.0}, "co": {"X": 1.0, "Y": 255.0}, "handle_type": 0}]}, "red": {"Points": [{"interpolation": 0, "handle_left": {"X": 0.5, "Y": 1.0}, "handle_right": {"X": 0.5, "Y": 0.0}, "co": {"X": 1.0, "Y": 0.0}, "handle_type": 0}]}}, "image": "C:\\Users\\yifan\\.openshot_qt\\thumbnail\\YWBK3SLP7U.png", "scale_x": {"Points": [{"interpolation": 2, "co": {"X": 1.0, "Y": 1.0}}]}, "location_y": {"Points": [{"interpolation": 2, "co": {"X": 1.0, "Y": 0.0}}]}, "start": 0.0, "title": "2018-03-11_17-29-26.mp4", "time": {"Points": [{"interpolation": 2, "co": {"X": 1.0, "Y": 1.0}}]}, "crop_x": {"Points": [{"interpolation": 2, "co": {"X": 1.0, "Y": 0.0}}]}}, "type": "update", "key": ["clips", {"id": "I5QPGK3C2F"}], "partial": false, "value": {"end": 14.8820858001709, "start": 0, "position": 83.29166666666669, "image": "C:\\Users\\yifan\\.openshot_qt\\thumbnail\\YWBK3SLP7U.png", "id": "I5QPGK3C2F", "layer": 4}}, {"old_values": {"waveform": false, "volume": {"Points": [{"interpolation": 2, "co": {"X": 1.0, "Y": 1.0}}]}, "perspective_c2_y": {"Points": [{"interpolation": 2, "co": {"X": 1.0, "Y": -1.0}}]}, "crop_height": {"Points": [{"interpolation": 2, "co": {"X": 1.0, "Y": -1.0}}]}, "has_audio": {"Points": [{"interpolation": 2, "co": {"X": 1.0, "Y": -1.0}}]}, "location_x": {"Points": [{"interpolation": 2, "co": {"X": 1.0, "Y": 0.0}}]}, "time": {"Points": [{"interpolation": 2, "co": {"X": 1.0, "Y": 1.0}}]}, "scale": 1, "perspective_c3_x": {"Points": [{"interpolation": 2, "co": {"X": 1.0, "Y": -1.0}}]}, "end": 14.8820858001709, "has_video": {"Points": [{"interpolation": 2, "co": {"X": 1.0, "Y": -1.0}}]}, "channel_filter": {"Points": [{"interpolation": 2, "co": {"X": 1.0, "Y": -1.0}}]}, "gravity": 4, "perspective_c4_y": {"Points": [{"interpolation": 2, "co": {"X": 1.0, "Y": -1.0}}]}, "perspective_c1_y": {"Points": [{"interpolation": 2, "co": {"X": 1.0, "Y": -1.0}}]}, "shear_y": {"Points": [{"interpolation": 2, "co": {"X": 1.0, "Y": 0.0}}]}, "perspective_c4_x": {"Points": [{"interpolation": 2, "co": {"X": 1.0, "Y": -1.0}}]}, "perspective_c1_x": {"Points": [{"interpolation": 2, "co": {"X": 1.0, "Y": -1.0}}]}, "file_id": "YWBK3SLP7U", "rotation": {"Points": [{"interpolation": 2, "co": {"X": 1.0, "Y": 0.0}}]}, "id": "I5QPGK3C2F", "wave_color": {"blue": {"Points": [{"interpolation": 0, "handle_left": {"X": 0.5, "Y": 1.0}, "handle_right": {"X": 0.5, "Y": 0.0}, "co": {"X": 1.0, "Y": 255.0}, "handle_type": 0}]}, "green": {"Points": [{"interpolation": 0, "handle_left": {"X": 0.5, "Y": 1.0}, "handle_right": {"X": 0.5, "Y": 0.0}, "co": {"X": 1.0, "Y": 123.0}, "handle_type": 0}]}, "alpha": {"Points": [{"interpolation": 0, "handle_left": {"X": 0.5, "Y": 1.0}, "handle_right": {"X": 0.5, "Y": 0.0}, "co": {"X": 1.0, "Y": 255.0}, "handle_type": 0}]}, "red": {"Points": [{"interpolation": 0, "handle_left": {"X": 0.5, "Y": 1.0}, "handle_right": {"X": 0.5, "Y": 0.0}, "co": {"X": 1.0, "Y": 0.0}, "handle_type": 0}]}}, "reader": {"height": 720, "pixel_ratio": {"num": 1, "den": 1}, "has_single_image": false, "audio_timebase": {"num": 1, "den": 44100}, "audio_stream_index": 1, "display_ratio": {"num": 16, "den": 9}, "channel_layout": 3, "has_audio": true, "video_timebase": {"num": 1, "den": 15360}, "video_bit_rate": 3341283, "duration": 14.8820858001709, "fps": {"num": 60, "den": 1}, "channels": 2, "has_video": true, "video_stream_index": 0, "width": 1280, "acodec": "aac", "top_field_first": true, "pixel_format": 0, "vcodec": "h264", "file_size": "6223141", "path": "C:/VS/Video/2018-03-11_17-29-26.mp4", "type": "FFmpegReader", "sample_rate": 44100, "interlaced_frame": false, "video_length": "894", "audio_bit_rate": 97300}, "display": 0, "anchor": 0, "perspective_c3_y": {"Points": [{"interpolation": 2, "co": {"X": 1.0, "Y": -1.0}}]}, "scale_y": {"Points": [{"interpolation": 2, "co": {"X": 1.0, "Y": 1.0}}]}, "crop_width": {"Points": [{"interpolation": 2, "co": {"X": 1.0, "Y": -1.0}}]}, "position": 83.29166666666669, "crop_y": {"Points": [{"interpolation": 2, "co": {"X": 1.0, "Y": 0.0}}]}, "channel_mapping": {"Points": [{"interpolation": 2, "co": {"X": 1.0, "Y": -1.0}}]}, "effects": [], "layer": 4, "shear_x": {"Points": [{"interpolation": 2, "co": {"X": 1.0, "Y": 0.0}}]}, "alpha": {"Points": [{"interpolation": 2, "co": {"X": 1.0, "Y": 1.0}}]}, "perspective_c2_x": {"Points": [{"interpolation": 2, "co": {"X": 1.0, "Y": -1.0}}]}, "duration": 14.8820858001709, "image": "C:\\Users\\yifan\\.openshot_qt\\thumbnail\\YWBK3SLP7U.png", "scale_x": {"Points": [{"interpolation": 2, "co": {"X": 1.0, "Y": 1.0}}]}, "location_y": {"Points": [{"interpolation": 2, "co": {"X": 1.0, "Y": 0.0}}]}, "start": 0, "title": "2018-03-11_17-29-26.mp4", "crop_x": {"Points": [{"interpolation": 2, "co": {"X": 1.0, "Y": 0.0}}]}}, "type": "update", "key": ["clips", {"id": "I5QPGK3C2F"}], "partial": false, "value": {"waveform": false, "volume": {"Points": [{"interpolation": 2, "co": {"X": 1.0, "Y": 1.0}}]}, "perspective_c2_y": {"Points": [{"interpolation": 2, "co": {"X": 1.0, "Y": -1.0}}]}, "crop_height": {"Points": [{"interpolation": 2, "co": {"X": 1.0, "Y": -1.0}}]}, "has_audio": {"Points": [{"interpolation": 2, "co": {"X": 1.0, "Y": -1.0}}]}, "location_x": {"Points": [{"interpolation": 2, "co": {"X": 1.0, "Y": 0.0}}]}, "time": {"Points": [{"interpolation": 2, "co": {"X": 1.0, "Y": 1.0}}]}, "scale": 1, "perspective_c3_x": {"Points": [{"interpolation": 2, "co": {"X": 1.0, "Y": -1.0}}]}, "end": 3.999999999999986, "has_video": {"Points": [{"interpolation": 2, "co": {"X": 1.0, "Y": -1.0}}]}, "channel_filter": {"Points": [{"interpolation": 2, "co": {"X": 1.0, "Y": -1.0}}]}, "gravity": 4, "perspective_c4_y": {"Points": [{"interpolation": 2, "co": {"X": 1.0, "Y": -1.0}}]}, "perspective_c1_y": {"Points": [{"interpolation": 2, "co": {"X": 1.0, "Y": -1.0}}]}, "shear_y": {"Points": [{"interpolation": 2, "co": {"X": 1.0, "Y": 0.0}}]}, "perspective_c4_x": {"Points": [{"interpolation": 2, "co": {"X": 1.0, "Y": -1.0}}]}, "perspective_c1_x": {"Points": [{"interpolation": 2, "co": {"X": 1.0, "Y": -1.0}}]}, "file_id": "YWBK3SLP7U", "rotation": {"Points": [{"interpolation": 2, "co": {"X": 1.0, "Y": 0.0}}]}, "id": "I5QPGK3C2F", "wave_color": {"blue": {"Points": [{"interpolation": 0, "handle_left": {"X": 0.5, "Y": 1.0}, "handle_right": {"X": 0.5, "Y": 0.0}, "co": {"X": 1.0, "Y": 255.0}, "handle_type": 0}]}, "green": {"Points": [{"interpolation": 0, "handle_left": {"X": 0.5, "Y": 1.0}, "handle_right": {"X": 0.5, "Y": 0.0}, "co": {"X": 1.0, "Y": 123.0}, "handle_type": 0}]}, "alpha": {"Points": [{"interpolation": 0, "handle_left": {"X": 0.5, "Y": 1.0}, "handle_right": {"X": 0.5, "Y": 0.0}, "co": {"X": 1.0, "Y": 255.0}, "handle_type": 0}]}, "red": {"Points": [{"interpolation": 0, "handle_left": {"X": 0.5, "Y": 1.0}, "handle_right": {"X": 0.5, "Y": 0.0}, "co": {"X": 1.0, "Y": 0.0}, "handle_type": 0}]}}, "display": 0, "anchor": 0, "perspective_c3_y": {"Points": [{"interpolation": 2, "co": {"X": 1.0, "Y": -1.0}}]}, "scale_y": {"Points": [{"interpolation": 2, "co": {"X": 1.0, "Y": 1.0}}]}, "crop_width": {"Points": [{"interpolation": 2, "co": {"X": 1.0, "Y": -1.0}}]}, "position": 83.29166666666669, "crop_y": {"Points": [{"interpolation": 2, "co": {"X": 1.0, "Y": 0.0}}]}, "channel_mapping": {"Points": [{"interpolation": 2, "co": {"X": 1.0, "Y": -1.0}}]}, "effects": [], "layer": 4, "shear_x": {"Points": [{"interpolation": 2, "co": {"X": 1.0, "Y": 0.0}}]}, "alpha": {"Points": [{"interpolation": 2, "co": {"X": 1.0, "Y": 1.0}}]}, "perspective_c2_x": {"Points": [{"interpolation": 2, "co": {"X": 1.0, "Y": -1.0}}]}, "duration": 14.8820858001709, "image": "C:\\Users\\yifan\\.openshot_qt\\thumbnail\\YWBK3SLP7U.png", "scale_x": {"Points": [{"interpolation": 2, "co": {"X": 1.0, "Y": 1.0}}]}, "location_y": {"Points": [{"interpolation": 2, "co": {"X": 1.0, "Y": 0.0}}]}, "start": 0, "title": "2018-03-11_17-29-26.mp4", "crop_x": {"Points": [{"interpolation": 2, "co": {"X": 1.0, "Y": 0.0}}]}}}, {"old_values": {"waveform": false, "volume": {"Points": [{"interpolation": 2, "co": {"X": 1.0, "Y": 1.0}}]}, "perspective_c2_y": {"Points": [{"interpolation": 2, "co": {"X": 1.0, "Y": -1.0}}]}, "crop_height": {"Points": [{"interpolation": 2, "co": {"X": 1.0, "Y": -1.0}}]}, "has_audio": {"Points": [{"interpolation": 2, "co": {"X": 1.0, "Y": -1.0}}]}, "location_x": {"Points": [{"interpolation": 2, "co": {"X": 1.0, "Y": 0.0}}]}, "time": {"Points": [{"interpolation": 2, "co": {"X": 1.0, "Y": 1.0}}]}, "scale": 1, "perspective_c3_x": {"Points": [{"interpolation": 2, "co": {"X": 1.0, "Y": -1.0}}]}, "end": 3.999999999999986, "has_video": {"Points": [{"interpolation": 2, "co": {"X": 1.0, "Y": -1.0}}]}, "channel_filter": {"Points": [{"interpolation": 2, "co": {"X": 1.0, "Y": -1.0}}]}, "gravity": 4, "perspective_c4_y": {"Points": [{"interpolation": 2, "co": {"X": 1.0, "Y": -1.0}}]}, "perspective_c1_y": {"Points": [{"interpolation": 2, "co": {"X": 1.0, "Y": -1.0}}]}, "shear_y": {"Points": [{"interpolation": 2, "co": {"X": 1.0, "Y": 0.0}}]}, "perspective_c4_x": {"Points": [{"interpolation": 2, "co": {"X": 1.0, "Y": -1.0}}]}, "perspective_c1_x": {"Points": [{"interpolation": 2, "co": {"X": 1.0, "Y": -1.0}}]}, "file_id": "YWBK3SLP7U", "rotation": {"Points": [{"interpolation": 2, "co": {"X": 1.0, "Y": 0.0}}]}, "id": "I5QPGK3C2F", "wave_color": {"blue": {"Points": [{"interpolation": 0, "handle_left": {"X": 0.5, "Y": 1.0}, "handle_right": {"X": 0.5, "Y": 0.0}, "co": {"X": 1.0, "Y": 255.0}, "handle_type": 0}]}, "green": {"Points": [{"interpolation": 0, "handle_left": {"X": 0.5, "Y": 1.0}, "handle_right": {"X": 0.5, "Y": 0.0}, "co": {"X": 1.0, "Y": 123.0}, "handle_type": 0}]}, "alpha": {"Points": [{"interpolation": 0, "handle_left": {"X": 0.5, "Y": 1.0}, "handle_right": {"X": 0.5, "Y": 0.0}, "co": {"X": 1.0, "Y": 255.0}, "handle_type": 0}]}, "red": {"Points": [{"interpolation": 0, "handle_left": {"X": 0.5, "Y": 1.0}, "handle_right": {"X": 0.5, "Y": 0.0}, "co": {"X": 1.0, "Y": 0.0}, "handle_type": 0}]}}, "reader": {"height": 720, "pixel_ratio": {"num": 1, "den": 1}, "has_single_image": false, "audio_timebase": {"num": 1, "den": 44100}, "audio_stream_index": 1, "display_ratio": {"num": 16, "den": 9}, "channel_layout": 3, "has_audio": true, "video_timebase": {"num": 1, "den": 15360}, "video_bit_rate": 3341283, "duration": 14.8820858001709, "fps": {"num": 60, "den": 1}, "channels": 2, "has_video": true, "video_stream_index": 0, "width": 1280, "acodec": "aac", "top_field_first": true, "pixel_format": 0, "vcodec": "h264", "file_size": "6223141", "path": "C:/VS/Video/2018-03-11_17-29-26.mp4", "type": "FFmpegReader", "sample_rate": 44100, "interlaced_frame": false, "video_length": "894", "audio_bit_rate": 97300}, "display": 0, "anchor": 0, "perspective_c3_y": {"Points": [{"interpolation": 2, "co": {"X": 1.0, "Y": -1.0}}]}, "scale_y": {"Points": [{"interpolation": 2, "co": {"X": 1.0, "Y": 1.0}}]}, "crop_width": {"Points": [{"interpolation": 2, "co": {"X": 1.0, "Y": -1.0}}]}, "position": 83.29166666666669, "crop_y": {"Points": [{"interpolation": 2, "co": {"X": 1.0, "Y": 0.0}}]}, "channel_mapping": {"Points": [{"interpolation": 2, "co": {"X": 1.0, "Y": -1.0}}]}, "effects": [], "layer": 4, "shear_x": {"Points": [{"interpolation": 2, "co": {"X": 1.0, "Y": 0.0}}]}, "alpha": {"Points": [{"interpolation": 2, "co": {"X": 1.0, "Y": 1.0}}]}, "perspective_c2_x": {"Points": [{"interpolation": 2, "co": {"X": 1.0, "Y": -1.0}}]}, "duration": 14.8820858001709, "image": "C:\\Users\\yifan\\.openshot_qt\\thumbnail\\YWBK3SLP7U.png", "scale_x": {"Points": [{"interpolation": 2, "co": {"X": 1.0, "Y": 1.0}}]}, "location_y": {"Points": [{"interpolation": 2, "co": {"X": 1.0, "Y": 0.0}}]}, "start": 0, "title": "2018-03-11_17-29-26.mp4", "crop_x": {"Points": [{"interpolation": 2, "co": {"X": 1.0, "Y": 0.0}}]}}, "type": "update", "key": ["clips", {"id": "I5QPGK3C2F"}], "partial": false, "value": {"end": 3.999999999999986, "start": 0, "position": 82.5515625, "image": "C:\\Users\\yifan\\.openshot_qt\\thumbnail\\YWBK3SLP7U.png", "id": "I5QPGK3C2F", "layer": 4}}, {"old_values": [{"end": 0.5399999999999991, "replace_image": false, "start": 0, "title": "Transition", "contrast": {"Points": [{"interpolation": 2, "co": {"X": 1.0, "Y": 3.0}}]}, "position": 45.96, "reader": {"height": 576, "pixel_ratio": {"num": 1, "den": 1}, "has_single_image": true, "audio_timebase": {"num": 1, "den": 1}, "audio_stream_index": -1, "display_ratio": {"num": 5, "den": 4}, "channel_layout": 4, "has_audio": false, "video_timebase": {"num": 1, "den": 30}, "video_bit_rate": 0, "duration": 86400.0, "fps": {"num": 30, "den": 1}, "channels": 0, "has_video": true, "video_stream_index": -1, "width": 720, "acodec": "", "top_field_first": true, "pixel_format": -1, "vcodec": "", "file_size": "1658880", "path": "C:\\Program Files\\OpenShot Video Editor\\transitions\\common\\fade.svg", "type": "QtImageReader", "sample_rate": 0, "interlaced_frame": false, "video_length": "2592000", "audio_bit_rate": 0}, "type": "Mask", "brightness": {"Points": [{"interpolation": 0, "handle_left": {"X": 0.5, "Y": 1.0}, "handle_right": {"X": 0.5, "Y": 0.0}, "co": {"X": 1.0, "Y": 1.0}, "handle_type": 0}, {"interpolation": 0, "handle_left": {"X": 0.5, "Y": 1.0}, "handle_right": {"X": 0.5, "Y": 0.0}, "co": {"X": 14.0, "Y": -1.0}, "handle_type": 0}]}, "id": "W2AFYQUG6S", "layer": 4}, {"end": 0.5502083333333303, "replace_image": false, "start": 0, "title": "Transition", "contrast": {"Points": [{"interpolation": 2, "co": {"X": 1.0, "Y": 3.0}}]}, "position": 74.533125, "reader": {"height": 576, "pixel_ratio": {"num": 1, "den": 1}, "has_single_image": true, "audio_timebase": {"num": 1, "den": 1}, "audio_stream_index": -1, "display_ratio": {"num": 5, "den": 4}, "channel_layout": 4, "has_audio": false, "video_timebase": {"num": 1, "den": 30}, "video_bit_rate": 0, "duration": 86400.0, "fps": {"num": 30, "den": 1}, "channels": 0, "has_video": true, "video_stream_index": -1, "width": 720, "acodec": "", "top_field_first": true, "pixel_format": -1, "vcodec": "", "file_size": "1658880", "path": "C:\\Program Files\\OpenShot Video Editor\\transitions\\common\\fade.svg", "type": "QtImageReader", "sample_rate": 0, "interlaced_frame": false, "video_length": "2592000", "audio_bit_rate": 0}, "type": "Mask", "brightness": {"Points": [{"interpolation": 0, "handle_left": {"X": 0.5, "Y": 1.0}, "handle_right": {"X": 0.5, "Y": 0.0}, "co": {"X": 1.0, "Y": 1.0}, "handle_type": 0}, {"interpolation": 0, "handle_left": {"X": 0.5, "Y": 1.0}, "handle_right": {"X": 0.5, "Y": 0.0}, "co": {"X": 14.0, "Y": -1.0}, "handle_type": 0}]}, "id": "2ED1BNYUMM", "layer": 4}], "type": "insert", "key": ["effects"], "partial": false, "value": {"end": 0.7401041666666686, "replace_image": false, "start": 0, "brightness": {"Points": [{"interpolation": 0, "handle_left": {"X": 0.5, "Y": 1.0}, "handle_right": {"X": 0.5, "Y": 0.0}, "co": {"X": 1.0, "Y": 1.0}, "handle_type": 0}, {"interpolation": 0, "handle_left": {"X": 0.5, "Y": 1.0}, "handle_right": {"X": 0.5, "Y": 0.0}, "co": {"X": 19.0, "Y": -1.0}, "handle_type": 0}]}, "contrast": {"Points": [{"interpolation": 2, "co": {"X": 1.0, "Y": 3.0}}]}, "position": 82.5515625, "reader": {"height": 576, "channel_layout": 4, "has_video": true, "audio_timebase": {"num": 1, "den": 1}, "audio_stream_index": -1, "display_ratio": {"num": 5, "den": 4}, "pixel_ratio": {"num": 1, "den": 1}, "video_length": "2592000", "has_audio": false, "video_timebase": {"num": 1, "den": 30}, "vcodec": "", "duration": 86400.0, "fps": {"num": 30, "den": 1}, "has_single_image": true, "video_stream_index": -1, "width": 720, "acodec": "", "top_field_first": true, "pixel_format": -1, "video_bit_rate": 0, "file_size": "1658880", "path": "C:\\Program Files\\OpenShot Video Editor\\transitions\\common\\fade.svg", "type": "QtImageReader", "sample_rate": 0, "interlaced_frame": false, "channels": 0, "audio_bit_rate": 0}, "type": "Mask", "title": "Transition", "id": "SI356KZ7A2", "layer": 4}}, {"old_values": [{"waveform": false, "volume": {"Points": [{"interpolation": 2, "co": {"X": 1.0, "Y": 1.0}}]}, "perspective_c2_y": {"Points": [{"interpolation": 2, "co": {"X": 1.0, "Y": -1.0}}]}, "crop_height": {"Points": [{"interpolation": 2, "co": {"X": 1.0, "Y": -1.0}}]}, "has_audio": {"Points": [{"interpolation": 2, "co": {"X": 1.0, "Y": -1.0}}]}, "location_x": {"Points": [{"interpolation": 2, "co": {"X": 1.0, "Y": 0.0}}]}, "time": {"Points": [{"interpolation": 2, "co": {"X": 1.0, "Y": 1.0}}]}, "scale": 1, "perspective_c3_x": {"Points": [{"interpolation": 2, "co": {"X": 1.0, "Y": -1.0}}]}, "end": 9.625, "has_video": {"Points": [{"interpolation": 2, "co": {"X": 1.0, "Y": -1.0}}]}, "channel_filter": {"Points": [{"interpolation": 2, "co": {"X": 1.0, "Y": -1.0}}]}, "gravity": 4, "perspective_c4_y": {"Points": [{"interpolation": 2, "co": {"X": 1.0, "Y": -1.0}}]}, "perspective_c1_y": {"Points": [{"interpolation": 2, "co": {"X": 1.0, "Y": -1.0}}]}, "shear_y": {"Points": [{"interpolation": 2, "co": {"X": 1.0, "Y": 0.0}}]}, "perspective_c4_x": {"Points": [{"interpolation": 2, "co": {"X": 1.0, "Y": -1.0}}]}, "perspective_c1_x": {"Points": [{"interpolation": 2, "co": {"X": 1.0, "Y": -1.0}}]}, "file_id": "UEMWFW66UU", "rotation": {"Points": [{"interpolation": 2, "co": {"X": 1.0, "Y": 0.0}}]}, "id": "GLRMZCUPL8", "wave_color": {"blue": {"Points": [{"interpolation": 0, "handle_left": {"X": 0.5, "Y": 1.0}, "handle_right": {"X": 0.5, "Y": 0.0}, "co": {"X": 1.0, "Y": 255.0}, "handle_type": 0}]}, "green": {"Points": [{"interpolation": 0, "handle_left": {"X": 0.5, "Y": 1.0}, "handle_right": {"X": 0.5, "Y": 0.0}, "co": {"X": 1.0, "Y": 123.0}, "handle_type": 0}]}, "alpha": {"Points": [{"interpolation": 0, "handle_left": {"X": 0.5, "Y": 1.0}, "handle_right": {"X": 0.5, "Y": 0.0}, "co": {"X": 1.0, "Y": 255.0}, "handle_type": 0}]}, "red": {"Points": [{"interpolation": 0, "handle_left": {"X": 0.5, "Y": 1.0}, "handle_right": {"X": 0.5, "Y": 0.0}, "co": {"X": 1.0, "Y": 0.0}, "handle_type": 0}]}}, "reader": {"height": 720, "pixel_ratio": {"num": 1, "den": 1}, "has_single_image": false, "audio_timebase": {"num": 1, "den": 44100}, "audio_stream_index": 1, "display_ratio": {"num": 16, "den": 9}, "channel_layout": 3, "has_audio": true, "video_timebase": {"num": 1, "den": 15360}, "video_bit_rate": 899354, "duration": 10.1927433013916, "fps": {"num": 30, "den": 1}, "channels": 2, "has_video": true, "video_stream_index": 0, "width": 1280, "acodec": "aac", "top_field_first": true, "pixel_format": 0, "vcodec": "h264", "file_size": "1154209", "path": "C:/VS/Video/2018-03-11_17-18-09.mp4", "type": "FFmpegReader", "sample_rate": 44100, "interlaced_frame": false, "video_length": "308", "audio_bit_rate": 97355}, "display": 0, "anchor": 0, "perspective_c3_y": {"Points": [{"interpolation": 2, "co": {"X": 1.0, "Y": -1.0}}]}, "scale_y": {"Points": [{"interpolation": 2, "co": {"X": 1.0, "Y": 1.0}}]}, "crop_width": {"Points": [{"interpolation": 2, "co": {"X": 1.0, "Y": -1.0}}]}, "position": 0, "crop_y": {"Points": [{"interpolation": 2, "co": {"X": 1.0, "Y": 0.0}}]}, "channel_mapping": {"Points": [{"interpolation": 2, "co": {"X": 1.0, "Y": -1.0}}]}, "effects": [], "layer": 4, "shear_x": {"Points": [{"interpolation": 2, "co": {"X": 1.0, "Y": 0.0}}]}, "alpha": {"Points": [{"interpolation": 2, "co": {"X": 1.0, "Y": 1.0}}]}, "perspective_c2_x": {"Points": [{"interpolation": 2, "co": {"X": 1.0, "Y": -1.0}}]}, "duration": 10.1927433013916, "image": "C:\\Users\\yifan\\.openshot_qt\\thumbnail\\UEMWFW66UU.png", "scale_x": {"Points": [{"interpolation": 2, "co": {"X": 1.0, "Y": 1.0}}]}, "location_y": {"Points": [{"interpolation": 2, "co": {"X": 1.0, "Y": 0.0}}]}, "start": 0, "title": "2018-03-11_17-18-09.mp4", "crop_x": {"Points": [{"interpolation": 2, "co": {"X": 1.0, "Y": 0.0}}]}}, {"waveform": false, "volume": {"Points": [{"interpolation": 2, "co": {"X": 1.0, "Y": 1.0}}]}, "perspective_c2_y": {"Points": [{"interpolation": 2, "co": {"X": 1.0, "Y": -1.0}}]}, "crop_height": {"Points": [{"interpolation": 2, "co": {"X": 1.0, "Y": -1.0}}]}, "has_audio": {"Points": [{"interpolation": 2, "co": {"X": 1.0, "Y": -1.0}}]}, "location_x": {"Points": [{"interpolation": 2, "co": {"X": 1.0, "Y": 0.0}}]}, "time": {"Points": [{"interpolation": 2, "co": {"X": 1.0, "Y": 1.0}}]}, "scale": 1, "perspective_c3_x": {"Points": [{"interpolation": 2, "co": {"X": 1.0, "Y": -1.0}}]}, "end": 11.1904764175415, "has_video": {"Points": [{"interpolation": 2, "co": {"X": 1.0, "Y": -1.0}}]}, "channel_filter": {"Points": [{"interpolation": 2, "co": {"X": 1.0, "Y": -1.0}}]}, "gravity": 4, "perspective_c4_y": {"Points": [{"interpolation": 2, "co": {"X": 1.0, "Y": -1.0}}]}, "perspective_c1_y": {"Points": [{"interpolation": 2, "co": {"X": 1.0, "Y": -1.0}}]}, "shear_y": {"Points": [{"interpolation": 2, "co": {"X": 1.0, "Y": 0.0}}]}, "perspective_c4_x": {"Points": [{"interpolation": 2, "co": {"X": 1.0, "Y": -1.0}}]}, "perspective_c1_x": {"Points": [{"interpolation": 2, "co": {"X": 1.0, "Y": -1.0}}]}, "file_id": "T8PAWZIGV3", "rotation": {"Points": [{"interpolation": 2, "co": {"X": 1.0, "Y": 0.0}}]}, "id": "PL6FQV7VV9", "wave_color": {"blue": {"Points": [{"interpolation": 0, "handle_left": {"X": 0.5, "Y": 1.0}, "handle_right": {"X": 0.5, "Y": 0.0}, "co": {"X": 1.0, "Y": 255.0}, "handle_type": 0}]}, "green": {"Points": [{"interpolation": 0, "handle_left": {"X": 0.5, "Y": 1.0}, "handle_right": {"X": 0.5, "Y": 0.0}, "co": {"X": 1.0, "Y": 123.0}, "handle_type": 0}]}, "alpha": {"Points": [{"interpolation": 0, "handle_left": {"X": 0.5, "Y": 1.0}, "handle_right": {"X": 0.5, "Y": 0.0}, "co": {"X": 1.0, "Y": 255.0}, "handle_type": 0}]}, "red": {"Points": [{"interpolation": 0, "handle_left": {"X": 0.5, "Y": 1.0}, "handle_right": {"X": 0.5, "Y": 0.0}, "co": {"X": 1.0, "Y": 0.0}, "handle_type": 0}]}}, "reader": {"height": 720, "pixel_ratio": {"num": 1, "den": 1}, "has_single_image": false, "audio_timebase": {"num": 1, "den": 44100}, "audio_stream_index": 1, "display_ratio": {"num": 16, "den": 9}, "channel_layout": 3, "has_audio": true, "video_timebase": {"num": 1, "den": 15360}, "video_bit_rate": 748484, "duration": 11.1904764175415, "fps": {"num": 30, "den": 1}, "channels": 2, "has_video": true, "video_stream_index": 0, "width": 1280, "acodec": "aac", "top_field_first": true, "pixel_format": 0, "vcodec": "h264", "file_size": "1054147", "path": "C:/VS/Video/2018-03-11_17-18-49.mp4", "type": "FFmpegReader", "sample_rate": 44100, "interlaced_frame": false, "video_length": "338", "audio_bit_rate": 97344}, "display": 0, "anchor": 0, "perspective_c3_y": {"Points": [{"interpolation": 2, "co": {"X": 1.0, "Y": -1.0}}]}, "scale_y": {"Points": [{"interpolation": 2, "co": {"X": 1.0, "Y": 1.0}}]}, "crop_width": {"Points": [{"interpolation": 2, "co": {"X": 1.0, "Y": -1.0}}]}, "position": 9.385, "crop_y": {"Points": [{"interpolation": 2, "co": {"X": 1.0, "Y": 0.0}}]}, "channel_mapping": {"Points": [{"interpolation": 2, "co": {"X": 1.0, "Y": -1.0}}]}, "effects": [], "layer": 4, "shear_x": {"Points": [{"interpolation": 2, "co": {"X": 1.0, "Y": 0.0}}]}, "alpha": {"Points": [{"interpolation": 2, "co": {"X": 1.0, "Y": 1.0}}, {"interpolation": 0, "handle_left": {"X": 0.5, "Y": 1.0}, "handle_right": {"X": 0.5, "Y": 0.0}, "co": {"X": 1.0, "Y": 0.0}, "handle_type": 0}, {"interpolation": 0, "handle_left": {"X": 0.5, "Y": 1.0}, "handle_right": {"X": 0.5, "Y": 0.0}, "co": {"X": 25.0, "Y": 1.0}, "handle_type": 0}]}, "perspective_c2_x": {"Points": [{"interpolation": 2, "co": {"X": 1.0, "Y": -1.0}}]}, "duration": 11.1904764175415, "image": "C:\\Users\\yifan\\.openshot_qt\\thumbnail\\T8PAWZIGV3.png", "scale_x": {"Points": [{"interpolation": 2, "co": {"X": 1.0, "Y": 1.0}}]}, "location_y": {"Points": [{"interpolation": 2, "co": {"X": 1.0, "Y": 0.0}}]}, "start": 0, "title": "2018-03-11_17-18-49.mp4", "crop_x": {"Points": [{"interpolation": 2, "co": {"X": 1.0, "Y": 0.0}}]}}, {"waveform": false, "volume": {"Points": [{"interpolation": 2, "co": {"X": 1.0, "Y": 1.0}}]}, "perspective_c2_y": {"Points": [{"interpolation": 2, "co": {"X": 1.0, "Y": -1.0}}]}, "crop_height": {"Points": [{"interpolation": 2, "co": {"X": 1.0, "Y": -1.0}}]}, "has_audio": {"Points": [{"interpolation": 2, "co": {"X": 1.0, "Y": -1.0}}]}, "location_x": {"Points": [{"interpolation": 2, "co": {"X": 1.0, "Y": 0.0}}]}, "time": {"Points": [{"interpolation": 2, "co": {"X": 1.0, "Y": 1.0}}]}, "scale": 1, "perspective_c3_x": {"Points": [{"interpolation": 2, "co": {"X": 1.0, "Y": -1.0}}]}, "end": 14.65079402923584, "has_video": {"Points": [{"interpolation": 2, "co": {"X": 1.0, "Y": -1.0}}]}, "channel_filter": {"Points": [{"interpolation": 2, "co": {"X": 1.0, "Y": -1.0}}]}, "gravity": 4, "perspective_c4_y": {"Points": [{"interpolation": 2, "co": {"X": 1.0, "Y": -1.0}}]}, "perspective_c1_y": {"Points": [{"interpolation": 2, "co": {"X": 1.0, "Y": -1.0}}]}, "shear_y": {"Points": [{"interpolation": 2, "co": {"X": 1.0, "Y": 0.0}}]}, "perspective_c4_x": {"Points": [{"interpolation": 2, "co": {"X": 1.0, "Y": -1.0}}]}, "perspective_c1_x": {"Points": [{"interpolation": 2, "co": {"X": 1.0, "Y": -1.0}}]}, "file_id": "4N4N7L5ZEP", "rotation": {"Points": [{"interpolation": 2, "co": {"X": 1.0, "Y": 0.0}}]}, "id": "YKOLD1EBO6", "wave_color": {"blue": {"Points": [{"interpolation": 0, "handle_left": {"X": 0.5, "Y": 1.0}, "handle_right": {"X": 0.5, "Y": 0.0}, "co": {"X": 1.0, "Y": 255.0}, "handle_type": 0}]}, "green": {"Points": [{"interpolation": 0, "handle_left": {"X": 0.5, "Y": 1.0}, "handle_right": {"X": 0.5, "Y": 0.0}, "co": {"X": 1.0, "Y": 123.0}, "handle_type": 0}]}, "alpha": {"Points": [{"interpolation": 0, "handle_left": {"X": 0.5, "Y": 1.0}, "handle_right": {"X": 0.5, "Y": 0.0}, "co": {"X": 1.0, "Y": 255.0}, "handle_type": 0}]}, "red": {"Points": [{"interpolation": 0, "handle_left": {"X": 0.5, "Y": 1.0}, "handle_right": {"X": 0.5, "Y": 0.0}, "co": {"X": 1.0, "Y": 0.0}, "handle_type": 0}]}}, "reader": {"height": 720, "pixel_ratio": {"num": 1, "den": 1}, "has_single_image": false, "audio_timebase": {"num": 1, "den": 44100}, "audio_stream_index": 1, "display_ratio": {"num": 16, "den": 9}, "channel_layout": 3, "has_audio": true, "video_timebase": {"num": 1, "den": 15360}, "video_bit_rate": 3738793, "duration": 14.65079402923584, "fps": {"num": 60, "den": 1}, "channels": 2, "has_video": true, "video_stream_index": 0, "width": 1280, "acodec": "aac", "top_field_first": true, "pixel_format": 0, "vcodec": "h264", "file_size": "6854610", "path": "C:/VS/Video/2018-03-11_17-21-13.mp4", "type": "FFmpegReader", "sample_rate": 44100, "interlaced_frame": false, "video_length": "880", "audio_bit_rate": 97296}, "display": 0, "anchor": 0, "perspective_c3_y": {"Points": [{"interpolation": 2, "co": {"X": 1.0, "Y": -1.0}}]}, "scale_y": {"Points": [{"interpolation": 2, "co": {"X": 1.0, "Y": 1.0}}]}, "crop_width": {"Points": [{"interpolation": 2, "co": {"X": 1.0, "Y": -1.0}}]}, "position": 20.5753125, "crop_y": {"Points": [{"interpolation": 2, "co": {"X": 1.0, "Y": 0.0}}]}, "channel_mapping": {"Points": [{"interpolation": 2, "co": {"X": 1.0, "Y": -1.0}}]}, "effects": [], "layer": 4, "shear_x": {"Points": [{"interpolation": 2, "co": {"X": 1.0, "Y": 0.0}}]}, "alpha": {"Points": [{"interpolation": 2, "co": {"X": 1.0, "Y": 1.0}}]}, "perspective_c2_x": {"Points": [{"interpolation": 2, "co": {"X": 1.0, "Y": -1.0}}]}, "duration": 14.65079402923584, "image": "C:\\Users\\yifan\\.openshot_qt\\thumbnail\\YKOLD1EBO6-361.png", "scale_x": {"Points": [{"interpolation": 2, "co": {"X": 1.0, "Y": 1.0}}]}, "location_y": {"Points": [{"interpolation": 2, "co": {"X": 1.0, "Y": 0.0}}]}, "start": 6.008020833333333, "title": "2018-03-11_17-21-13.mp4", "crop_x": {"Points": [{"interpolation": 2, "co": {"X": 1.0, "Y": 0.0}}]}}, {"waveform": false, "volume": {"Points": [{"interpolation": 2, "co": {"X": 1.0, "Y": 1.0}}]}, "perspective_c2_y": {"Points": [{"interpolation": 2, "co": {"X": 1.0, "Y": -1.0}}]}, "crop_height": {"Points": [{"interpolation": 2, "co": {"X": 1.0, "Y": -1.0}}]}, "has_audio": {"Points": [{"interpolation": 2, "co": {"X": 1.0, "Y": -1.0}}]}, "location_x": {"Points": [{"interpolation": 2, "co": {"X": 1.0, "Y": 0.0}}]}, "time": {"Points": [{"interpolation": 2, "co": {"X": 1.0, "Y": 1.0}}]}, "scale": 1, "perspective_c3_x": {"Points": [{"interpolation": 2, "co": {"X": 1.0, "Y": -1.0}}]}, "end": 10.68027210235596, "has_video": {"Points": [{"interpolation": 2, "co": {"X": 1.0, "Y": -1.0}}]}, "channel_filter": {"Points": [{"interpolation": 2, "co": {"X": 1.0, "Y": -1.0}}]}, "gravity": 4, "perspective_c4_y": {"Points": [{"interpolation": 2, "co": {"X": 1.0, "Y": -1.0}}]}, "perspective_c1_y": {"Points": [{"interpolation": 2, "co": {"X": 1.0, "Y": -1.0}}]}, "shear_y": {"Points": [{"interpolation": 2, "co": {"X": 1.0, "Y": 0.0}}]}, "perspective_c4_x": {"Points": [{"interpolation": 2, "co": {"X": 1.0, "Y": -1.0}}]}, "perspective_c1_x": {"Points": [{"interpolation": 2, "co": {"X": 1.0, "Y": -1.0}}]}, "file_id": "XVWX27G7GK", "rotation": {"Points": [{"interpolation": 2, "co": {"X": 1.0, "Y": 0.0}}]}, "id": "QHMHVMBNVT", "wave_color": {"blue": {"Points": [{"interpolation": 0, "handle_left": {"X": 0.5, "Y": 1.0}, "handle_right": {"X": 0.5, "Y": 0.0}, "co": {"X": 1.0, "Y": 255.0}, "handle_type": 0}]}, "green": {"Points": [{"interpolation": 0, "handle_left": {"X": 0.5, "Y": 1.0}, "handle_right": {"X": 0.5, "Y": 0.0}, "co": {"X": 1.0, "Y": 123.0}, "handle_type": 0}]}, "alpha": {"Points": [{"interpolation": 0, "handle_left": {"X": 0.5, "Y": 1.0}, "handle_right": {"X": 0.5, "Y": 0.0}, "co": {"X": 1.0, "Y": 255.0}, "handle_type": 0}]}, "red": {"Points": [{"interpolation": 0, "handle_left": {"X": 0.5, "Y": 1.0}, "handle_right": {"X": 0.5, "Y": 0.0}, "co": {"X": 1.0, "Y": 0.0}, "handle_type": 0}]}}, "reader": {"height": 720, "pixel_ratio": {"num": 1, "den": 1}, "has_single_image": false, "audio_timebase": {"num": 1, "den": 44100}, "audio_stream_index": 1, "display_ratio": {"num": 16, "den": 9}, "channel_layout": 3, "has_audio": true, "video_timebase": {"num": 1, "den": 15360}, "video_bit_rate": 1180663, "duration": 10.68027210235596, "fps": {"num": 60, "den": 1}, "channels": 2, "has_video": true, "video_stream_index": 0, "width": 1280, "acodec": "aac", "top_field_first": true, "pixel_format": 0, "vcodec": "h264", "file_size": "1579137", "path": "C:/VS/Video/2018-03-11_17-21-49.mp4", "type": "FFmpegReader", "sample_rate": 44100, "interlaced_frame": false, "video_length": "642", "audio_bit_rate": 97347}, "display": 0, "anchor": 0, "perspective_c3_y": {"Points": [{"interpolation": 2, "co": {"X": 1.0, "Y": -1.0}}]}, "scale_y": {"Points": [{"interpolation": 2, "co": {"X": 1.0, "Y": 1.0}}]}, "crop_width": {"Points": [{"interpolation": 2, "co": {"X": 1.0, "Y": -1.0}}]}, "position": 29.218085695902506, "crop_y": {"Points": [{"interpolation": 2, "co": {"X": 1.0, "Y": 0.0}}]}, "channel_mapping": {"Points": [{"interpolation": 2, "co": {"X": 1.0, "Y": -1.0}}]}, "effects": [], "layer": 4, "shear_x": {"Points": [{"interpolation": 2, "co": {"X": 1.0, "Y": 0.0}}]}, "alpha": {"Points": [{"interpolation": 2, "co": {"X": 1.0, "Y": 1.0}}]}, "perspective_c2_x": {"Points": [{"interpolation": 2, "co": {"X": 1.0, "Y": -1.0}}]}, "duration": 10.68027210235596, "image": "C:\\Users\\yifan\\.openshot_qt\\thumbnail\\XVWX27G7GK.png", "scale_x": {"Points": [{"interpolation": 2, "co": {"X": 1.0, "Y": 1.0}}]}, "location_y": {"Points": [{"interpolation": 2, "co": {"X": 1.0, "Y": 0.0}}]}, "start": 0, "title": "2018-03-11_17-21-49.mp4", "crop_x": {"Points": [{"interpolation": 2, "co": {"X": 1.0, "Y": 0.0}}]}}, {"waveform": false, "volume": {"Points": [{"interpolation": 2, "co": {"X": 1.0, "Y": 1.0}}]}, "perspective_c2_y": {"Points": [{"interpolation": 2, "co": {"X": 1.0, "Y": -1.0}}]}, "crop_height": {"Points": [{"interpolation": 2, "co": {"X": 1.0, "Y": -1.0}}]}, "has_audio": {"Points": [{"interpolation": 2, "co": {"X": 1.0, "Y": -1.0}}]}, "location_x": {"Points": [{"interpolation": 2, "co": {"X": 1.0, "Y": 0.0}}]}, "time": {"Points": [{"interpolation": 2, "co": {"X": 1.0, "Y": 1.0}}]}, "scale": 1, "perspective_c3_x": {"Points": [{"interpolation": 2, "co": {"X": 1.0, "Y": -1.0}}]}, "end": 6.601642201741534, "has_video": {"Points": [{"interpolation": 2, "co": {"X": 1.0, "Y": -1.0}}]}, "channel_filter": {"Points": [{"interpolation": 2, "co": {"X": 1.0, "Y": -1.0}}]}, "gravity": 4, "perspective_c4_y": {"Points": [{"interpolation": 2, "co": {"X": 1.0, "Y": -1.0}}]}, "perspective_c1_y": {"Points": [{"interpolation": 2, "co": {"X": 1.0, "Y": -1.0}}]}, "shear_y": {"Points": [{"interpolation": 2, "co": {"X": 1.0, "Y": 0.0}}]}, "perspective_c4_x": {"Points": [{"interpolation": 2, "co": {"X": 1.0, "Y": -1.0}}]}, "perspective_c1_x": {"Points": [{"interpolation": 2, "co": {"X": 1.0, "Y": -1.0}}]}, "file_id": "GH0TMMFPLE", "rotation": {"Points": [{"interpolation": 2, "co": {"X": 1.0, "Y": 0.0}}]}, "id": "1B3HU028O6", "wave_color": {"blue": {"Points": [{"interpolation": 0, "handle_left": {"X": 0.5, "Y": 1.0}, "handle_right": {"X": 0.5, "Y": 0.0}, "co": {"X": 1.0, "Y": 255.0}, "handle_type": 0}]}, "green": {"Points": [{"interpolation": 0, "handle_left": {"X": 0.5, "Y": 1.0}, "handle_right": {"X": 0.5, "Y": 0.0}, "co": {"X": 1.0, "Y": 123.0}, "handle_type": 0}]}, "alpha": {"Points": [{"interpolation": 0, "handle_left": {"X": 0.5, "Y": 1.0}, "handle_right": {"X": 0.5, "Y": 0.0}, "co": {"X": 1.0, "Y": 255.0}, "handle_type": 0}]}, "red": {"Points": [{"interpolation": 0, "handle_left": {"X": 0.5, "Y": 1.0}, "handle_right": {"X": 0.5, "Y": 0.0}, "co": {"X": 1.0, "Y": 0.0}, "handle_type": 0}]}}, "reader": {"height": 720, "pixel_ratio": {"num": 1, "den": 1}, "has_single_image": false, "audio_timebase": {"num": 1, "den": 44100}, "audio_stream_index": 1, "display_ratio": {"num": 16, "den": 9}, "channel_layout": 3, "has_audio": true, "video_timebase": {"num": 1, "den": 15360}, "video_bit_rate": 2437931, "duration": 7.126984119415283, "fps": {"num": 60, "den": 1}, "channels": 2, "has_video": true, "video_stream_index": 0, "width": 1280, "acodec": "aac", "top_field_first": true, "pixel_format": 0, "vcodec": "h264", "file_size": "2174025", "path": "C:/VS/Video/2018-03-11_17-22-13.mp4", "type": "FFmpegReader", "sample_rate": 44100, "interlaced_frame": false, "video_length": "428", "audio_bit_rate": 97450}, "display": 0, "anchor": 0, "perspective_c3_y": {"Points": [{"interpolation": 2, "co": {"X": 1.0, "Y": -1.0}}]}, "scale_y": {"Points": [{"interpolation": 2, "co": {"X": 1.0, "Y": 1.0}}]}, "crop_width": {"Points": [{"interpolation": 2, "co": {"X": 1.0, "Y": -1.0}}]}, "position": 39.898357798258466, "crop_y": {"Points": [{"interpolation": 2, "co": {"X": 1.0, "Y": 0.0}}]}, "channel_mapping": {"Points": [{"interpolation": 2, "co": {"X": 1.0, "Y": -1.0}}]}, "effects": [], "layer": 4, "shear_x": {"Points": [{"interpolation": 2, "co": {"X": 1.0, "Y": 0.0}}]}, "alpha": {"Points": [{"interpolation": 2, "co": {"X": 1.0, "Y": 1.0}}]}, "perspective_c2_x": {"Points": [{"interpolation": 2, "co": {"X": 1.0, "Y": -1.0}}]}, "duration": 7.126984119415283, "image": "C:\\Users\\yifan\\.openshot_qt\\thumbnail\\GH0TMMFPLE.png", "scale_x": {"Points": [{"interpolation": 2, "co": {"X": 1.0, "Y": 1.0}}]}, "location_y": {"Points": [{"interpolation": 2, "co": {"X": 1.0, "Y": 0.0}}]}, "start": 0, "title": "2018-03-11_17-22-13.mp4", "crop_x": {"Points": [{"interpolation": 2, "co": {"X": 1.0, "Y": 0.0}}]}}, {"waveform": false, "volume": {"Points": [{"interpolation": 2, "co": {"X": 1.0, "Y": 1.0}}]}, "perspective_c2_y": {"Points": [{"interpolation": 2, "co": {"X": 1.0, "Y": -1.0}}]}, "crop_height": {"Points": [{"interpolation": 2, "co": {"X": 1.0, "Y": -1.0}}]}, "has_audio": {"Points": [{"interpolation": 2, "co": {"X": 1.0, "Y": -1.0}}]}, "location_x": {"Points": [{"interpolation": 2, "co": {"X": 1.0, "Y": 0.0}}]}, "time": {"Points": [{"interpolation": 2, "co": {"X": 1.0, "Y": 1.0}}]}, "scale": 1, "perspective_c3_x": {"Points": [{"interpolation": 2, "co": {"X": 1.0, "Y": -1.0}}]}, "end": 153.6000213623047, "has_video": {"Points": [{"interpolation": 2, "co": {"X": 1.0, "Y": -1.0}}]}, "channel_filter": {"Points": [{"interpolation": 2, "co": {"X": 1.0, "Y": -1.0}}]}, "gravity": 4, "perspective_c4_y": {"Points": [{"interpolation": 2, "co": {"X": 1.0, "Y": -1.0}}]}, "perspective_c1_y": {"Points": [{"interpolation": 2, "co": {"X": 1.0, "Y": -1.0}}]}, "shear_y": {"Points": [{"interpolation": 2, "co": {"X": 1.0, "Y": 0.0}}]}, "perspective_c4_x": {"Points": [{"interpolation": 2, "co": {"X": 1.0, "Y": -1.0}}]}, "perspective_c1_x": {"Points": [{"interpolation": 2, "co": {"X": 1.0, "Y": -1.0}}]}, "file_id": "1C7ASWD835", "rotation": {"Points": [{"interpolation": 2, "co": {"X": 1.0, "Y": 0.0}}]}, "id": "0JWVPAIAY7", "wave_color": {"blue": {"Points": [{"interpolation": 0, "handle_left": {"X": 0.5, "Y": 1.0}, "handle_right": {"X": 0.5, "Y": 0.0}, "co": {"X": 1.0, "Y": 255.0}, "handle_type": 0}]}, "green": {"Points": [{"interpolation": 0, "handle_left": {"X": 0.5, "Y": 1.0}, "handle_right": {"X": 0.5, "Y": 0.0}, "co": {"X": 1.0, "Y": 123.0}, "handle_type": 0}]}, "alpha": {"Points": [{"interpolation": 0, "handle_left": {"X": 0.5, "Y": 1.0}, "handle_right": {"X": 0.5, "Y": 0.0}, "co": {"X": 1.0, "Y": 255.0}, "handle_type": 0}]}, "red": {"Points": [{"interpolation": 0, "handle_left": {"X": 0.5, "Y": 1.0}, "handle_right": {"X": 0.5, "Y": 0.0}, "co": {"X": 1.0, "Y": 0.0}, "handle_type": 0}]}}, "reader": {"height": 480, "pixel_ratio": {"num": 1, "den": 1}, "has_single_image": false, "audio_timebase": {"num": 1, "den": 44100}, "audio_stream_index": 0, "display_ratio": {"num": 1, "den": 1}, "channel_layout": 3, "has_audio": true, "video_timebase": {"num": 1, "den": 24}, "video_bit_rate": 0, "duration": 153.6000213623047, "fps": {"num": 24, "den": 1}, "channels": 2, "has_video": false, "video_stream_index": -1, "width": 720, "acodec": "pcm_f32le", "top_field_first": true, "pixel_format": -1, "vcodec": "", "file_size": "54192082", "path": "C:/VS/MovementTesting/Assets/Music/Final Boss.wav", "type": "FFmpegReader", "sample_rate": 44100, "interlaced_frame": false, "video_length": "3686", "audio_bit_rate": 2822400}, "display": 0, "anchor": 0, "perspective_c3_y": {"Points": [{"interpolation": 2, "co": {"X": 1.0, "Y": -1.0}}]}, "scale_y": {"Points": [{"interpolation": 2, "co": {"X": 1.0, "Y": 1.0}}]}, "crop_width": {"Points": [{"interpolation": 2, "co": {"X": 1.0, "Y": -1.0}}]}, "position": 0.04166666666666666, "crop_y": {"Points": [{"interpolation": 2, "co": {"X": 1.0, "Y": 0.0}}]}, "channel_mapping": {"Points": [{"interpolation": 2, "co": {"X": 1.0, "Y": -1.0}}]}, "effects": [], "layer": 3, "shear_x": {"Points": [{"interpolation": 2, "co": {"X": 1.0, "Y": 0.0}}]}, "alpha": {"Points": [{"interpolation": 2, "co": {"X": 1.0, "Y": 1.0}}]}, "perspective_c2_x": {"Points": [{"interpolation": 2, "co": {"X": 1.0, "Y": -1.0}}]}, "duration": 153.6000213623047, "image": "C:\\Program Files\\OpenShot Video Editor\\images\\AudioThumbnail.png", "scale_x": {"Points": [{"interpolation": 2, "co": {"X": 1.0, "Y": 1.0}}]}, "location_y": {"Points": [{"interpolation": 2, "co": {"X": 1.0, "Y": 0.0}}]}, "start": 0, "title": "Final Boss.wav", "crop_x": {"Points": [{"interpolation": 2, "co": {"X": 1.0, "Y": 0.0}}]}}, {"waveform": false, "volume": {"Points": [{"interpolation": 2, "co": {"X": 1.0, "Y": 1.0}}]}, "perspective_c2_y": {"Points": [{"interpolation": 2, "co": {"X": 1.0, "Y": -1.0}}]}, "crop_height": {"Points": [{"interpolation": 2, "co": {"X": 1.0, "Y": -1.0}}]}, "has_audio": {"Points": [{"interpolation": 2, "co": {"X": 1.0, "Y": -1.0}}]}, "location_x": {"Points": [{"interpolation": 2, "co": {"X": 1.0, "Y": 0.0}}]}, "time": {"Points": [{"interpolation": 2, "co": {"X": 1.0, "Y": 1.0}}]}, "scale": 1, "perspective_c3_x": {"Points": [{"interpolation": 2, "co": {"X": 1.0, "Y": -1.0}}]}, "end": 9.915, "has_video": {"Points": [{"interpolation": 2, "co": {"X": 1.0, "Y": -1.0}}]}, "channel_filter": {"Points": [{"interpolation": 2, "co": {"X": 1.0, "Y": -1.0}}]}, "gravity": 4, "perspective_c4_y": {"Points": [{"interpolation": 2, "co": {"X": 1.0, "Y": -1.0}}]}, "perspective_c1_y": {"Points": [{"interpolation": 2, "co": {"X": 1.0, "Y": -1.0}}]}, "shear_y": {"Points": [{"interpolation": 2, "co": {"X": 1.0, "Y": 0.0}}]}, "perspective_c4_x": {"Points": [{"interpolation": 2, "co": {"X": 1.0, "Y": -1.0}}]}, "perspective_c1_x": {"Points": [{"interpolation": 2, "co": {"X": 1.0, "Y": -1.0}}]}, "file_id": "DCOSRPQLUE", "rotation": {"Points": [{"interpolation": 2, "co": {"X": 1.0, "Y": 0.0}}]}, "id": "9N232ZSCDX", "wave_color": {"blue": {"Points": [{"interpolation": 0, "handle_left": {"X": 0.5, "Y": 1.0}, "handle_right": {"X": 0.5, "Y": 0.0}, "co": {"X": 1.0, "Y": 255.0}, "handle_type": 0}]}, "green": {"Points": [{"interpolation": 0, "handle_left": {"X": 0.5, "Y": 1.0}, "handle_right": {"X": 0.5, "Y": 0.0}, "co": {"X": 1.0, "Y": 123.0}, "handle_type": 0}]}, "alpha": {"Points": [{"interpolation": 0, "handle_left": {"X": 0.5, "Y": 1.0}, "handle_right": {"X": 0.5, "Y": 0.0}, "co": {"X": 1.0, "Y": 255.0}, "handle_type": 0}]}, "red": {"Points": [{"interpolation": 0, "handle_left": {"X": 0.5, "Y": 1.0}, "handle_right": {"X": 0.5, "Y": 0.0}, "co": {"X": 1.0, "Y": 0.0}, "handle_type": 0}]}}, "reader": {"height": 720, "pixel_ratio": {"num": 1, "den": 1}, "has_single_image": false, "audio_timebase": {"num": 1, "den": 44100}, "audio_stream_index": 1, "display_ratio": {"num": 16, "den": 9}, "channel_layout": 3, "has_audio": true, "video_timebase": {"num": 1, "den": 15360}, "video_bit_rate": 2996517, "duration": 11.63265323638916, "fps": {"num": 60, "den": 1}, "channels": 2, "has_video": true, "video_stream_index": 0, "width": 1280, "acodec": "aac", "top_field_first": true, "pixel_format": 0, "vcodec": "h264", "file_size": "4363678", "path": "C:/VS/Video/2018-03-11_17-25-52.mp4", "type": "FFmpegReader", "sample_rate": 44100, "interlaced_frame": false, "video_length": "699", "audio_bit_rate": 97328}, "display": 0, "anchor": 0, "perspective_c3_y": {"Points": [{"interpolation": 2, "co": {"X": 1.0, "Y": -1.0}}]}, "scale_y": {"Points": [{"interpolation": 2, "co": {"X": 1.0, "Y": 1.0}}]}, "crop_width": {"Points": [{"interpolation": 2, "co": {"X": 1.0, "Y": -1.0}}]}, "position": 45.96, "crop_y": {"Points": [{"interpolation": 2, "co": {"X": 1.0, "Y": 0.0}}]}, "channel_mapping": {"Points": [{"interpolation": 2, "co": {"X": 1.0, "Y": -1.0}}]}, "effects": [], "layer": 4, "shear_x": {"Points": [{"interpolation": 2, "co": {"X": 1.0, "Y": 0.0}}]}, "alpha": {"Points": [{"interpolation": 2, "co": {"X": 1.0, "Y": 1.0}}]}, "perspective_c2_x": {"Points": [{"interpolation": 2, "co": {"X": 1.0, "Y": -1.0}}]}, "duration": 11.63265323638916, "image": "C:\\Users\\yifan\\.openshot_qt\\thumbnail\\DCOSRPQLUE.png", "scale_x": {"Points": [{"interpolation": 2, "co": {"X": 1.0, "Y": 1.0}}]}, "location_y": {"Points": [{"interpolation": 2, "co": {"X": 1.0, "Y": 0.0}}]}, "start": 0, "title": "2018-03-11_17-25-52.mp4", "crop_x": {"Points": [{"interpolation": 2, "co": {"X": 1.0, "Y": 0.0}}]}}, {"waveform": false, "volume": {"Points": [{"interpolation": 2, "co": {"X": 1.0, "Y": 1.0}}]}, "perspective_c2_y": {"Points": [{"interpolation": 2, "co": {"X": 1.0, "Y": -1.0}}]}, "crop_height": {"Points": [{"interpolation": 2, "co": {"X": 1.0, "Y": -1.0}}]}, "has_audio": {"Points": [{"interpolation": 2, "co": {"X": 1.0, "Y": -1.0}}]}, "location_x": {"Points": [{"interpolation": 2, "co": {"X": 1.0, "Y": 0.0}}]}, "time": {"Points": [{"interpolation": 2, "co": {"X": 1.0, "Y": 1.0}}]}, "scale": 1, "perspective_c3_x": {"Points": [{"interpolation": 2, "co": {"X": 1.0, "Y": -1.0}}]}, "end": 22.499999999999993, "has_video": {"Points": [{"interpolation": 2, "co": {"X": 1.0, "Y": -1.0}}]}, "channel_filter": {"Points": [{"interpolation": 2, "co": {"X": 1.0, "Y": -1.0}}]}, "gravity": 4, "perspective_c4_y": {"Points": [{"interpolation": 2, "co": {"X": 1.0, "Y": -1.0}}]}, "perspective_c1_y": {"Points": [{"interpolation": 2, "co": {"X": 1.0, "Y": -1.0}}]}, "shear_y": {"Points": [{"interpolation": 2, "co": {"X": 1.0, "Y": 0.0}}]}, "perspective_c4_x": {"Points": [{"interpolation": 2, "co": {"X": 1.0, "Y": -1.0}}]}, "perspective_c1_x": {"Points": [{"interpolation": 2, "co": {"X": 1.0, "Y": -1.0}}]}, "file_id": "PBZDJATIGN", "rotation": {"Points": [{"interpolation": 2, "co": {"X": 1.0, "Y": 0.0}}]}, "id": "TGURL6WJII", "wave_color": {"blue": {"Points": [{"interpolation": 0, "handle_left": {"X": 0.5, "Y": 1.0}, "handle_right": {"X": 0.5, "Y": 0.0}, "co": {"X": 1.0, "Y": 255.0}, "handle_type": 0}]}, "green": {"Points": [{"interpolation": 0, "handle_left": {"X": 0.5, "Y": 1.0}, "handle_right": {"X": 0.5, "Y": 0.0}, "co": {"X": 1.0, "Y": 123.0}, "handle_type": 0}]}, "alpha": {"Points": [{"interpolation": 0, "handle_left": {"X": 0.5, "Y": 1.0}, "handle_right": {"X": 0.5, "Y": 0.0}, "co": {"X": 1.0, "Y": 255.0}, "handle_type": 0}]}, "red": {"Points": [{"interpolation": 0, "handle_left": {"X": 0.5, "Y": 1.0}, "handle_right": {"X": 0.5, "Y": 0.0}, "co": {"X": 1.0, "Y": 0.0}, "handle_type": 0}]}}, "reader": {"height": 720, "pixel_ratio": {"num": 1, "den": 1}, "has_single_image": false, "audio_timebase": {"num": 1, "den": 44100}, "audio_stream_index": 1, "display_ratio": {"num": 16, "den": 9}, "channel_layout": 3, "has_audio": true, "video_timebase": {"num": 1, "den": 15360}, "video_bit_rate": 3160877, "duration": 22.94104385375977, "fps": {"num": 60, "den": 1}, "channels": 2, "has_video": true, "video_stream_index": 0, "width": 1280, "acodec": "aac", "top_field_first": true, "pixel_format": 0, "vcodec": "h264", "file_size": "9074485", "path": "C:/VS/Video/2018-03-11_17-28-25.mp4", "type": "FFmpegReader", "sample_rate": 44100, "interlaced_frame": false, "video_length": "1378", "audio_bit_rate": 97243}, "display": 0, "anchor": 0, "perspective_c3_y": {"Points": [{"interpolation": 2, "co": {"X": 1.0, "Y": -1.0}}]}, "scale_y": {"Points": [{"interpolation": 2, "co": {"X": 1.0, "Y": 1.0}}]}, "crop_width": {"Points": [{"interpolation": 2, "co": {"X": 1.0, "Y": -1.0}}]}, "position": 55.875, "crop_y": {"Points": [{"interpolation": 2, "co": {"X": 1.0, "Y": 0.0}}]}, "channel_mapping": {"Points": [{"interpolation": 2, "co": {"X": 1.0, "Y": -1.0}}]}, "effects": [], "layer": 4, "shear_x": {"Points": [{"interpolation": 2, "co": {"X": 1.0, "Y": 0.0}}]}, "alpha": {"Points": [{"interpolation": 2, "co": {"X": 1.0, "Y": 1.0}}]}, "perspective_c2_x": {"Points": [{"interpolation": 2, "co": {"X": 1.0, "Y": -1.0}}]}, "duration": 22.94104385375977, "image": "C:\\Users\\yifan\\.openshot_qt\\thumbnail\\TGURL6WJII-198.png", "scale_x": {"Points": [{"interpolation": 2, "co": {"X": 1.0, "Y": 1.0}}]}, "location_y": {"Points": [{"interpolation": 2, "co": {"X": 1.0, "Y": 0.0}}]}, "start": 3.2916666666666643, "title": "2018-03-11_17-28-25.mp4", "crop_x": {"Points": [{"interpolation": 2, "co": {"X": 1.0, "Y": 0.0}}]}}, {"waveform": false, "volume": {"Points": [{"interpolation": 2, "co": {"X": 1.0, "Y": 1.0}}]}, "perspective_c2_y": {"Points": [{"interpolation": 2, "co": {"X": 1.0, "Y": -1.0}}]}, "crop_height": {"Points": [{"interpolation": 2, "co": {"X": 1.0, "Y": -1.0}}]}, "has_audio": {"Points": [{"interpolation": 2, "co": {"X": 1.0, "Y": -1.0}}]}, "location_x": {"Points": [{"interpolation": 2, "co": {"X": 1.0, "Y": 0.0}}]}, "time": {"Points": [{"interpolation": 2, "co": {"X": 1.0, "Y": 1.0}}]}, "scale": 1, "perspective_c3_x": {"Points": [{"interpolation": 2, "co": {"X": 1.0, "Y": -1.0}}]}, "end": 12.05020833333333, "has_video": {"Points": [{"interpolation": 2, "co": {"X": 1.0, "Y": -1.0}}]}, "channel_filter": {"Points": [{"interpolation": 2, "co": {"X": 1.0, "Y": -1.0}}]}, "gravity": 4, "perspective_c4_y": {"Points": [{"interpolation": 2, "co": {"X": 1.0, "Y": -1.0}}]}, "perspective_c1_y": {"Points": [{"interpolation": 2, "co": {"X": 1.0, "Y": -1.0}}]}, "shear_y": {"Points": [{"interpolation": 2, "co": {"X": 1.0, "Y": 0.0}}]}, "perspective_c4_x": {"Points": [{"interpolation": 2, "co": {"X": 1.0, "Y": -1.0}}]}, "perspective_c1_x": {"Points": [{"interpolation": 2, "co": {"X": 1.0, "Y": -1.0}}]}, "file_id": "991RFD2R1F", "rotation": {"Points": [{"interpolation": 2, "co": {"X": 1.0, "Y": 0.0}}]}, "id": "NG5RG0J90S", "wave_color": {"blue": {"Points": [{"interpolation": 0, "handle_left": {"X": 0.5, "Y": 1.0}, "handle_right": {"X": 0.5, "Y": 0.0}, "co": {"X": 1.0, "Y": 255.0}, "handle_type": 0}]}, "green": {"Points": [{"interpolation": 0, "handle_left": {"X": 0.5, "Y": 1.0}, "handle_right": {"X": 0.5, "Y": 0.0}, "co": {"X": 1.0, "Y": 123.0}, "handle_type": 0}]}, "alpha": {"Points": [{"interpolation": 0, "handle_left": {"X": 0.5, "Y": 1.0}, "handle_right": {"X": 0.5, "Y": 0.0}, "co": {"X": 1.0, "Y": 255.0}, "handle_type": 0}]}, "red": {"Points": [{"interpolation": 0, "handle_left": {"X": 0.5, "Y": 1.0}, "handle_right": {"X": 0.5, "Y": 0.0}, "co": {"X": 1.0, "Y": 0.0}, "handle_type": 0}]}}, "reader": {"height": 720, "pixel_ratio": {"num": 1, "den": 1}, "has_single_image": false, "audio_timebase": {"num": 1, "den": 44100}, "audio_stream_index": 1, "display_ratio": {"num": 16, "den": 9}, "channel_layout": 3, "has_audio": true, "video_timebase": {"num": 1, "den": 15360}, "video_bit_rate": 2766400, "duration": 14.11564636230469, "fps": {"num": 60, "den": 1}, "channels": 2, "has_video": true, "video_stream_index": 0, "width": 1280, "acodec": "aac", "top_field_first": true, "pixel_format": 0, "vcodec": "h264", "file_size": "4887538", "path": "C:/VS/Video/2018-03-11_17-29-06.mp4", "type": "FFmpegReader", "sample_rate": 44100, "interlaced_frame": false, "video_length": "848", "audio_bit_rate": 97309}, "display": 0, "anchor": 0, "perspective_c3_y": {"Points": [{"interpolation": 2, "co": {"X": 1.0, "Y": -1.0}}]}, "scale_y": {"Points": [{"interpolation": 2, "co": {"X": 1.0, "Y": 1.0}}]}, "crop_width": {"Points": [{"interpolation": 2, "co": {"X": 1.0, "Y": -1.0}}]}, "position": 74.533125, "crop_y": {"Points": [{"interpolation": 2, "co": {"X": 1.0, "Y": 0.0}}]}, "channel_mapping": {"Points": [{"interpolation": 2, "co": {"X": 1.0, "Y": -1.0}}]}, "effects": [], "layer": 4, "shear_x": {"Points": [{"interpolation": 2, "co": {"X": 1.0, "Y": 0.0}}]}, "alpha": {"Points": [{"interpolation": 2, "co": {"X": 1.0, "Y": 1.0}}]}, "perspective_c2_x": {"Points": [{"interpolation": 2, "co": {"X": 1.0, "Y": -1.0}}]}, "duration": 14.11564636230469, "image": "C:\\Users\\yifan\\.openshot_qt\\thumbnail\\NG5RG0J90S-198.png", "scale_x": {"Points": [{"interpolation": 2, "co": {"X": 1.0, "Y": 1.0}}]}, "location_y": {"Points": [{"interpolation": 2, "co": {"X": 1.0, "Y": 0.0}}]}, "start": 3.291666666666657, "title": "2018-03-11_17-29-06.mp4", "crop_x": {"Points": [{"interpolation": 2, "co": {"X": 1.0, "Y": 0.0}}]}}, {"waveform": false, "volume": {"Points": [{"interpolation": 2, "co": {"X": 1.0, "Y": 1.0}}]}, "perspective_c2_y": {"Points": [{"interpolation": 2, "co": {"X": 1.0, "Y": -1.0}}]}, "crop_height": {"Points": [{"interpolation": 2, "co": {"X": 1.0, "Y": -1.0}}]}, "has_audio": {"Points": [{"interpolation": 2, "co": {"X": 1.0, "Y": -1.0}}]}, "location_x": {"Points": [{"interpolation": 2, "co": {"X": 1.0, "Y": 0.0}}]}, "time": {"Points": [{"interpolation": 2, "co": {"X": 1.0, "Y": 1.0}}]}, "scale": 1, "perspective_c3_x": {"Points": [{"interpolation": 2, "co": {"X": 1.0, "Y": -1.0}}]}, "end": 3.999999999999986, "has_video": {"Points": [{"interpolation": 2, "co": {"X": 1.0, "Y": -1.0}}]}, "channel_filter": {"Points": [{"interpolation": 2, "co": {"X": 1.0, "Y": -1.0}}]}, "gravity": 4, "perspective_c4_y": {"Points": [{"interpolation": 2, "co": {"X": 1.0, "Y": -1.0}}]}, "perspective_c1_y": {"Points": [{"interpolation": 2, "co": {"X": 1.0, "Y": -1.0}}]}, "shear_y": {"Points": [{"interpolation": 2, "co": {"X": 1.0, "Y": 0.0}}]}, "perspective_c4_x": {"Points": [{"interpolation": 2, "co": {"X": 1.0, "Y": -1.0}}]}, "perspective_c1_x": {"Points": [{"interpolation": 2, "co": {"X": 1.0, "Y": -1.0}}]}, "file_id": "YWBK3SLP7U", "rotation": {"Points": [{"interpolation": 2, "co": {"X": 1.0, "Y": 0.0}}]}, "id": "I5QPGK3C2F", "wave_color": {"blue": {"Points": [{"interpolation": 0, "handle_left": {"X": 0.5, "Y": 1.0}, "handle_right": {"X": 0.5, "Y": 0.0}, "co": {"X": 1.0, "Y": 255.0}, "handle_type": 0}]}, "green": {"Points": [{"interpolation": 0, "handle_left": {"X": 0.5, "Y": 1.0}, "handle_right": {"X": 0.5, "Y": 0.0}, "co": {"X": 1.0, "Y": 123.0}, "handle_type": 0}]}, "alpha": {"Points": [{"interpolation": 0, "handle_left": {"X": 0.5, "Y": 1.0}, "handle_right": {"X": 0.5, "Y": 0.0}, "co": {"X": 1.0, "Y": 255.0}, "handle_type": 0}]}, "red": {"Points": [{"interpolation": 0, "handle_left": {"X": 0.5, "Y": 1.0}, "handle_right": {"X": 0.5, "Y": 0.0}, "co": {"X": 1.0, "Y": 0.0}, "handle_type": 0}]}}, "reader": {"height": 720, "pixel_ratio": {"num": 1, "den": 1}, "has_single_image": false, "audio_timebase": {"num": 1, "den": 44100}, "audio_stream_index": 1, "display_ratio": {"num": 16, "den": 9}, "channel_layout": 3, "has_audio": true, "video_timebase": {"num": 1, "den": 15360}, "video_bit_rate": 3341283, "duration": 14.8820858001709, "fps": {"num": 60, "den": 1}, "channels": 2, "has_video": true, "video_stream_index": 0, "width": 1280, "acodec": "aac", "top_field_first": true, "pixel_format": 0, "vcodec": "h264", "file_size": "6223141", "path": "C:/VS/Video/2018-03-11_17-29-26.mp4", "type": "FFmpegReader", "sample_rate": 44100, "interlaced_frame": false, "video_length": "894", "audio_bit_rate": 97300}, "display": 0, "anchor": 0, "perspective_c3_y": {"Points": [{"interpolation": 2, "co": {"X": 1.0, "Y": -1.0}}]}, "scale_y": {"Points": [{"interpolation": 2, "co": {"X": 1.0, "Y": 1.0}}]}, "crop_width": {"Points": [{"interpolation": 2, "co": {"X": 1.0, "Y": -1.0}}]}, "position": 82.5515625, "crop_y": {"Points": [{"interpolation": 2, "co": {"X": 1.0, "Y": 0.0}}]}, "channel_mapping": {"Points": [{"interpolation": 2, "co": {"X": 1.0, "Y": -1.0}}]}, "effects": [], "layer": 4, "shear_x": {"Points": [{"interpolation": 2, "co": {"X": 1.0, "Y": 0.0}}]}, "alpha": {"Points": [{"interpolation": 2, "co": {"X": 1.0, "Y": 1.0}}]}, "perspective_c2_x": {"Points": [{"interpolation": 2, "co": {"X": 1.0, "Y": -1.0}}]}, "duration": 14.8820858001709, "image": "C:\\Users\\yifan\\.openshot_qt\\thumbnail\\YWBK3SLP7U.png", "scale_x": {"Points": [{"interpolation": 2, "co": {"X": 1.0, "Y": 1.0}}]}, "location_y": {"Points": [{"interpolation": 2, "co": {"X": 1.0, "Y": 0.0}}]}, "start": 0, "title": "2018-03-11_17-29-26.mp4", "crop_x": {"Points": [{"interpolation": 2, "co": {"X": 1.0, "Y": 0.0}}]}}], "type": "insert", "key": ["clips"], "partial": false, "value": {"waveform": false, "channel_mapping": {"Points": [{"interpolation": 2, "co": {"X": 1.0, "Y": -1.0}}]}, "perspective_c2_y": {"Points": [{"interpolation": 2, "co": {"X": 1.0, "Y": -1.0}}]}, "reader": {"height": 720, "channel_layout": 3, "has_video": true, "audio_timebase": {"num": 1, "den": 44100}, "audio_stream_index": 1, "display_ratio": {"num": 16, "den": 9}, "pixel_ratio": {"num": 1, "den": 1}, "video_length": "469", "has_audio": true, "video_timebase": {"num": 1, "den": 15360}, "vcodec": "h264", "duration": 7.777777671813965, "fps": {"num": 60, "den": 1}, "has_single_image": false, "video_stream_index": 0, "width": 1280, "acodec": "aac", "top_field_first": true, "pixel_format": 0, "video_bit_rate": 1071653, "file_size": "1047139", "path": "C:/VS/Video/2018-03-11_17-30-41.mov", "type": "FFmpegReader", "sample_rate": 44100, "interlaced_frame": false, "channels": 2, "audio_bit_rate": 97418}, "crop_height": {"Points": [{"interpolation": 2, "co": {"X": 1.0, "Y": -1.0}}]}, "time": {"Points": [{"interpolation": 2, "co": {"X": 1.0, "Y": 1.0}}]}, "has_audio": {"Points": [{"interpolation": 2, "co": {"X": 1.0, "Y": -1.0}}]}, "scale": 1, "perspective_c3_x": {"Points": [{"interpolation": 2, "co": {"X": 1.0, "Y": -1.0}}]}, "display": 0, "scale_x": {"Points": [{"interpolation": 2, "co": {"X": 1.0, "Y": 1.0}}]}, "gravity": 4, "end": 7.777777671813965, "perspective_c1_y": {"Points": [{"interpolation": 2, "co": {"X": 1.0, "Y": -1.0}}]}, "perspective_c3_y": {"Points": [{"interpolation": 2, "co": {"X": 1.0, "Y": -1.0}}]}, "shear_y": {"Points": [{"interpolation": 2, "co": {"X": 1.0, "Y": 0.0}}]}, "perspective_c4_x": {"Points": [{"interpolation": 2, "co": {"X": 1.0, "Y": -1.0}}]}, "perspective_c1_x": {"Points": [{"interpolation": 2, "co": {"X": 1.0, "Y": -1.0}}]}, "file_id": "NPKWPTBSBU", "rotation": {"Points": [{"interpolation": 2, "co": {"X": 1.0, "Y": 0.0}}]}, "id": "O37HUVEY8G", "wave_color": {"blue": {"Points": [{"interpolation": 0, "handle_left": {"X": 0.5, "Y": 1.0}, "handle_right": {"X": 0.5, "Y": 0.0}, "co": {"X": 1.0, "Y": 255.0}, "handle_type": 0}]}, "green": {"Points": [{"interpolation": 0, "handle_left": {"X": 0.5, "Y": 1.0}, "handle_right": {"X": 0.5, "Y": 0.0}, "co": {"X": 1.0, "Y": 123.0}, "handle_type": 0}]}, "alpha": {"Points": [{"interpolation": 0, "handle_left": {"X": 0.5, "Y": 1.0}, "handle_right": {"X": 0.5, "Y": 0.0}, "co": {"X": 1.0, "Y": 255.0}, "handle_type": 0}]}, "red": {"Points": [{"interpolation": 0, "handle_left": {"X": 0.5, "Y": 1.0}, "handle_right": {"X": 0.5, "Y": 0.0}, "co": {"X": 1.0, "Y": 0.0}, "handle_type": 0}]}}, "has_video": {"Points": [{"interpolation": 2, "co": {"X": 1.0, "Y": -1.0}}]}, "anchor": 0, "location_x": {"Points": [{"interpolation": 2, "co": {"X": 1.0, "Y": 0.0}}]}, "scale_y": {"Points": [{"interpolation": 2, "co": {"X": 1.0, "Y": 1.0}}]}, "crop_width": {"Points": [{"interpolation": 2, "co": {"X": 1.0, "Y": -1.0}}]}, "position": 86.5515625, "effects": [], "volume": {"Points": [{"interpolation": 2, "co": {"X": 1.0, "Y": 1.0}}]}, "channel_filter": {"Points": [{"interpolation": 2, "co": {"X": 1.0, "Y": -1.0}}]}, "layer": 4, "shear_x": {"Points": [{"interpolation": 2, "co": {"X": 1.0, "Y": 0.0}}]}, "alpha": {"Points": [{"interpolation": 2, "co": {"X": 1.0, "Y": 1.0}}]}, "perspective_c2_x": {"Points": [{"interpolation": 2, "co": {"X": 1.0, "Y": -1.0}}]}, "duration": 7.777777671813965, "start": 2.9901041666666828, "image": "C:\\Users\\yifan\\.openshot_qt\\thumbnail\\O37HUVEY8G-180.png", "perspective_c4_y": {"Points": [{"interpolation": 2, "co": {"X": 1.0, "Y": -1.0}}]}, "location_y": {"Points": [{"interpolation": 2, "co": {"X": 1.0, "Y": 0.0}}]}, "crop_y": {"Points": [{"interpolation": 2, "co": {"X": 1.0, "Y": 0.0}}]}, "title": "2018-03-11_17-30-41.mov", "crop_x": {"Points": [{"interpolation": 2, "co": {"X": 1.0, "Y": 0.0}}]}}}, {"old_values": {"waveform": false, "channel_mapping": {"Points": [{"interpolation": 2, "co": {"X": 1.0, "Y": -1.0}}]}, "perspective_c2_y": {"Points": [{"interpolation": 2, "co": {"X": 1.0, "Y": -1.0}}]}, "crop_height": {"Points": [{"interpolation": 2, "co": {"X": 1.0, "Y": -1.0}}]}, "has_audio": {"Points": [{"interpolation": 2, "co": {"X": 1.0, "Y": -1.0}}]}, "crop_y": {"Points": [{"interpolation": 2, "co": {"X": 1.0, "Y": 0.0}}]}, "perspective_c2_x": {"Points": [{"interpolation": 2, "co": {"X": 1.0, "Y": -1.0}}]}, "scale": 1, "perspective_c3_x": {"Points": [{"interpolation": 2, "co": {"X": 1.0, "Y": -1.0}}]}, "end": 7.777777671813965, "gravity": 4, "perspective_c4_y": {"Points": [{"interpolation": 2, "co": {"X": 1.0, "Y": -1.0}}]}, "perspective_c1_y": {"Points": [{"interpolation": 2, "co": {"X": 1.0, "Y": -1.0}}]}, "perspective_c3_y": {"Points": [{"interpolation": 2, "co": {"X": 1.0, "Y": -1.0}}]}, "shear_y": {"Points": [{"interpolation": 2, "co": {"X": 1.0, "Y": 0.0}}]}, "perspective_c4_x": {"Points": [{"interpolation": 2, "co": {"X": 1.0, "Y": -1.0}}]}, "perspective_c1_x": {"Points": [{"interpolation": 2, "co": {"X": 1.0, "Y": -1.0}}]}, "file_id": "NPKWPTBSBU", "rotation": {"Points": [{"interpolation": 2, "co": {"X": 1.0, "Y": 0.0}}]}, "layer": 4, "duration": 7.777777671813965, "reader": {"height": 720, "pixel_ratio": {"num": 1, "den": 1}, "has_single_image": false, "audio_timebase": {"num": 1, "den": 44100}, "audio_stream_index": 1, "display_ratio": {"num": 16, "den": 9}, "channel_layout": 3, "has_audio": true, "video_timebase": {"num": 1, "den": 15360}, "video_bit_rate": 1071653, "duration": 7.777777671813965, "fps": {"num": 60, "den": 1}, "channels": 2, "has_video": true, "video_stream_index": 0, "width": 1280, "acodec": "aac", "top_field_first": true, "pixel_format": 0, "vcodec": "h264", "file_size": "1047139", "path": "C:/VS/Video/2018-03-11_17-30-41.mov", "type": "FFmpegReader", "sample_rate": 44100, "interlaced_frame": false, "video_length": "469", "audio_bit_rate": 97418}, "has_video": {"Points": [{"interpolation": 2, "co": {"X": 1.0, "Y": -1.0}}]}, "anchor": 0, "location_x": {"Points": [{"interpolation": 2, "co": {"X": 1.0, "Y": 0.0}}]}, "scale_y": {"Points": [{"interpolation": 2, "co": {"X": 1.0, "Y": 1.0}}]}, "crop_width": {"Points": [{"interpolation": 2, "co": {"X": 1.0, "Y": -1.0}}]}, "position": 85.36, "effects": [], "volume": {"Points": [{"interpolation": 2, "co": {"X": 1.0, "Y": 1.0}}]}, "channel_filter": {"Points": [{"interpolation": 2, "co": {"X": 1.0, "Y": -1.0}}]}, "display": 0, "id": "O37HUVEY8G", "shear_x": {"Points": [{"interpolation": 2, "co": {"X": 1.0, "Y": 0.0}}]}, "alpha": {"Points": [{"interpolation": 2, "co": {"X": 1.0, "Y": 1.0}}]}, "wave_color": {"blue": {"Points": [{"interpolation": 0, "handle_left": {"X": 0.5, "Y": 1.0}, "handle_right": {"X": 0.5, "Y": 0.0}, "co": {"X": 1.0, "Y": 255.0}, "handle_type": 0}]}, "green": {"Points": [{"interpolation": 0, "handle_left": {"X": 0.5, "Y": 1.0}, "handle_right": {"X": 0.5, "Y": 0.0}, "co": {"X": 1.0, "Y": 123.0}, "handle_type": 0}]}, "alpha": {"Points": [{"interpolation": 0, "handle_left": {"X": 0.5, "Y": 1.0}, "handle_right": {"X": 0.5, "Y": 0.0}, "co": {"X": 1.0, "Y": 255.0}, "handle_type": 0}]}, "red": {"Points": [{"interpolation": 0, "handle_left": {"X": 0.5, "Y": 1.0}, "handle_right": {"X": 0.5, "Y": 0.0}, "co": {"X": 1.0, "Y": 0.0}, "handle_type": 0}]}}, "image": "C:\\Users\\yifan\\.openshot_qt\\thumbnail\\NPKWPTBSBU.png", "scale_x": {"Points": [{"interpolation": 2, "co": {"X": 1.0, "Y": 1.0}}]}, "location_y": {"Points": [{"interpolation": 2, "co": {"X": 1.0, "Y": 0.0}}]}, "start": 0.0, "title": "2018-03-11_17-30-41.mov", "time": {"Points": [{"interpolation": 2, "co": {"X": 1.0, "Y": 1.0}}]}, "crop_x": {"Points": [{"interpolation": 2, "co": {"X": 1.0, "Y": 0.0}}]}}, "type": "update", "key": ["clips", {"id": "O37HUVEY8G"}], "partial": false, "value": {"end": 7.777777671813965, "start": 0, "position": 86.55156249999999, "image": "C:\\Users\\yifan\\.openshot_qt\\thumbnail\\NPKWPTBSBU.png", "id": "O37HUVEY8G", "layer": 4}}, {"old_values": {"waveform": false, "volume": {"Points": [{"interpolation": 2, "co": {"X": 1.0, "Y": 1.0}}]}, "perspective_c2_y": {"Points": [{"interpolation": 2, "co": {"X": 1.0, "Y": -1.0}}]}, "crop_height": {"Points": [{"interpolation": 2, "co": {"X": 1.0, "Y": -1.0}}]}, "has_audio": {"Points": [{"interpolation": 2, "co": {"X": 1.0, "Y": -1.0}}]}, "location_x": {"Points": [{"interpolation": 2, "co": {"X": 1.0, "Y": 0.0}}]}, "time": {"Points": [{"interpolation": 2, "co": {"X": 1.0, "Y": 1.0}}]}, "scale": 1, "perspective_c3_x": {"Points": [{"interpolation": 2, "co": {"X": 1.0, "Y": -1.0}}]}, "end": 7.777777671813965, "has_video": {"Points": [{"interpolation": 2, "co": {"X": 1.0, "Y": -1.0}}]}, "channel_filter": {"Points": [{"interpolation": 2, "co": {"X": 1.0, "Y": -1.0}}]}, "gravity": 4, "perspective_c4_y": {"Points": [{"interpolation": 2, "co": {"X": 1.0, "Y": -1.0}}]}, "perspective_c1_y": {"Points": [{"interpolation": 2, "co": {"X": 1.0, "Y": -1.0}}]}, "shear_y": {"Points": [{"interpolation": 2, "co": {"X": 1.0, "Y": 0.0}}]}, "perspective_c4_x": {"Points": [{"interpolation": 2, "co": {"X": 1.0, "Y": -1.0}}]}, "perspective_c1_x": {"Points": [{"interpolation": 2, "co": {"X": 1.0, "Y": -1.0}}]}, "file_id": "NPKWPTBSBU", "rotation": {"Points": [{"interpolation": 2, "co": {"X": 1.0, "Y": 0.0}}]}, "id": "O37HUVEY8G", "wave_color": {"blue": {"Points": [{"interpolation": 0, "handle_left": {"X": 0.5, "Y": 1.0}, "handle_right": {"X": 0.5, "Y": 0.0}, "co": {"X": 1.0, "Y": 255.0}, "handle_type": 0}]}, "green": {"Points": [{"interpolation": 0, "handle_left": {"X": 0.5, "Y": 1.0}, "handle_right": {"X": 0.5, "Y": 0.0}, "co": {"X": 1.0, "Y": 123.0}, "handle_type": 0}]}, "alpha": {"Points": [{"interpolation": 0, "handle_left": {"X": 0.5, "Y": 1.0}, "handle_right": {"X": 0.5, "Y": 0.0}, "co": {"X": 1.0, "Y": 255.0}, "handle_type": 0}]}, "red": {"Points": [{"interpolation": 0, "handle_left": {"X": 0.5, "Y": 1.0}, "handle_right": {"X": 0.5, "Y": 0.0}, "co": {"X": 1.0, "Y": 0.0}, "handle_type": 0}]}}, "reader": {"height": 720, "pixel_ratio": {"num": 1, "den": 1}, "has_single_image": false, "audio_timebase": {"num": 1, "den": 44100}, "audio_stream_index": 1, "display_ratio": {"num": 16, "den": 9}, "channel_layout": 3, "has_audio": true, "video_timebase": {"num": 1, "den": 15360}, "video_bit_rate": 1071653, "duration": 7.777777671813965, "fps": {"num": 60, "den": 1}, "channels": 2, "has_video": true, "video_stream_index": 0, "width": 1280, "acodec": "aac", "top_field_first": true, "pixel_format": 0, "vcodec": "h264", "file_size": "1047139", "path": "C:/VS/Video/2018-03-11_17-30-41.mov", "type": "FFmpegReader", "sample_rate": 44100, "interlaced_frame": false, "video_length": "469", "audio_bit_rate": 97418}, "display": 0, "anchor": 0, "perspective_c3_y": {"Points": [{"interpolation": 2, "co": {"X": 1.0, "Y": -1.0}}]}, "scale_y": {"Points": [{"interpolation": 2, "co": {"X": 1.0, "Y": 1.0}}]}, "crop_width": {"Points": [{"interpolation": 2, "co": {"X": 1.0, "Y": -1.0}}]}, "position": 86.55156249999999, "crop_y": {"Points": [{"interpolation": 2, "co": {"X": 1.0, "Y": 0.0}}]}, "channel_mapping": {"Points": [{"interpolation": 2, "co": {"X": 1.0, "Y": -1.0}}]}, "effects": [], "layer": 4, "shear_x": {"Points": [{"interpolation": 2, "co": {"X": 1.0, "Y": 0.0}}]}, "alpha": {"Points": [{"interpolation": 2, "co": {"X": 1.0, "Y": 1.0}}]}, "perspective_c2_x": {"Points": [{"interpolation": 2, "co": {"X": 1.0, "Y": -1.0}}]}, "duration": 7.777777671813965, "image": "C:\\Users\\yifan\\.openshot_qt\\thumbnail\\NPKWPTBSBU.png", "scale_x": {"Points": [{"interpolation": 2, "co": {"X": 1.0, "Y": 1.0}}]}, "location_y": {"Points": [{"interpolation": 2, "co": {"X": 1.0, "Y": 0.0}}]}, "start": 0, "title": "2018-03-11_17-30-41.mov", "crop_x": {"Points": [{"interpolation": 2, "co": {"X": 1.0, "Y": 0.0}}]}}, "type": "update", "key": ["clips", {"id": "O37HUVEY8G"}], "partial": false, "value": {"waveform": false, "volume": {"Points": [{"interpolation": 2, "co": {"X": 1.0, "Y": 1.0}}]}, "perspective_c2_y": {"Points": [{"interpolation": 2, "co": {"X": 1.0, "Y": -1.0}}]}, "crop_height": {"Points": [{"interpolation": 2, "co": {"X": 1.0, "Y": -1.0}}]}, "has_audio": {"Points": [{"interpolation": 2, "co": {"X": 1.0, "Y": -1.0}}]}, "location_x": {"Points": [{"interpolation": 2, "co": {"X": 1.0, "Y": 0.0}}]}, "time": {"Points": [{"interpolation": 2, "co": {"X": 1.0, "Y": 1.0}}]}, "scale": 1, "perspective_c3_x": {"Points": [{"interpolation": 2, "co": {"X": 1.0, "Y": -1.0}}]}, "end": 7.777777671813965, "has_video": {"Points": [{"interpolation": 2, "co": {"X": 1.0, "Y": -1.0}}]}, "channel_filter": {"Points": [{"interpolation": 2, "co": {"X": 1.0, "Y": -1.0}}]}, "gravity": 4, "perspective_c4_y": {"Points": [{"interpolation": 2, "co": {"X": 1.0, "Y": -1.0}}]}, "perspective_c1_y": {"Points": [{"interpolation": 2, "co": {"X": 1.0, "Y": -1.0}}]}, "shear_y": {"Points": [{"interpolation": 2, "co": {"X": 1.0, "Y": 0.0}}]}, "perspective_c4_x": {"Points": [{"interpolation": 2, "co": {"X": 1.0, "Y": -1.0}}]}, "perspective_c1_x": {"Points": [{"interpolation": 2, "co": {"X": 1.0, "Y": -1.0}}]}, "file_id": "NPKWPTBSBU", "rotation": {"Points": [{"interpolation": 2, "co": {"X": 1.0, "Y": 0.0}}]}, "id": "O37HUVEY8G", "wave_color": {"blue": {"Points": [{"interpolation": 0, "handle_left": {"X": 0.5, "Y": 1.0}, "handle_right": {"X": 0.5, "Y": 0.0}, "co": {"X": 1.0, "Y": 255.0}, "handle_type": 0}]}, "green": {"Points": [{"interpolation": 0, "handle_left": {"X": 0.5, "Y": 1.0}, "handle_right": {"X": 0.5, "Y": 0.0}, "co": {"X": 1.0, "Y": 123.0}, "handle_type": 0}]}, "alpha": {"Points": [{"interpolation": 0, "handle_left": {"X": 0.5, "Y": 1.0}, "handle_right": {"X": 0.5, "Y": 0.0}, "co": {"X": 1.0, "Y": 255.0}, "handle_type": 0}]}, "red": {"Points": [{"interpolation": 0, "handle_left": {"X": 0.5, "Y": 1.0}, "handle_right": {"X": 0.5, "Y": 0.0}, "co": {"X": 1.0, "Y": 0.0}, "handle_type": 0}]}}, "display": 0, "anchor": 0, "perspective_c3_y": {"Points": [{"interpolation": 2, "co": {"X": 1.0, "Y": -1.0}}]}, "scale_y": {"Points": [{"interpolation": 2, "co": {"X": 1.0, "Y": 1.0}}]}, "crop_width": {"Points": [{"interpolation": 2, "co": {"X": 1.0, "Y": -1.0}}]}, "position": 89.54166666666667, "crop_y": {"Points": [{"interpolation": 2, "co": {"X": 1.0, "Y": 0.0}}]}, "channel_mapping": {"Points": [{"interpolation": 2, "co": {"X": 1.0, "Y": -1.0}}]}, "effects": [], "layer": 4, "shear_x": {"Points": [{"interpolation": 2, "co": {"X": 1.0, "Y": 0.0}}]}, "alpha": {"Points": [{"interpolation": 2, "co": {"X": 1.0, "Y": 1.0}}]}, "perspective_c2_x": {"Points": [{"interpolation": 2, "co": {"X": 1.0, "Y": -1.0}}]}, "duration": 7.777777671813965, "image": "C:\\Users\\yifan\\.openshot_qt\\thumbnail\\O37HUVEY8G-180.png", "scale_x": {"Points": [{"interpolation": 2, "co": {"X": 1.0, "Y": 1.0}}]}, "location_y": {"Points": [{"interpolation": 2, "co": {"X": 1.0, "Y": 0.0}}]}, "start": 2.9901041666666828, "title": "2018-03-11_17-30-41.mov", "crop_x": {"Points": [{"interpolation": 2, "co": {"X": 1.0, "Y": 0.0}}]}}}, {"old_values": {"waveform": false, "volume": {"Points": [{"interpolation": 2, "co": {"X": 1.0, "Y": 1.0}}]}, "perspective_c2_y": {"Points": [{"interpolation": 2, "co": {"X": 1.0, "Y": -1.0}}]}, "crop_height": {"Points": [{"interpolation": 2, "co": {"X": 1.0, "Y": -1.0}}]}, "has_audio": {"Points": [{"interpolation": 2, "co": {"X": 1.0, "Y": -1.0}}]}, "location_x": {"Points": [{"interpolation": 2, "co": {"X": 1.0, "Y": 0.0}}]}, "time": {"Points": [{"interpolation": 2, "co": {"X": 1.0, "Y": 1.0}}]}, "scale": 1, "perspective_c3_x": {"Points": [{"interpolation": 2, "co": {"X": 1.0, "Y": -1.0}}]}, "end": 7.777777671813965, "has_video": {"Points": [{"interpolation": 2, "co": {"X": 1.0, "Y": -1.0}}]}, "channel_filter": {"Points": [{"interpolation": 2, "co": {"X": 1.0, "Y": -1.0}}]}, "gravity": 4, "perspective_c4_y": {"Points": [{"interpolation": 2, "co": {"X": 1.0, "Y": -1.0}}]}, "perspective_c1_y": {"Points": [{"interpolation": 2, "co": {"X": 1.0, "Y": -1.0}}]}, "shear_y": {"Points": [{"interpolation": 2, "co": {"X": 1.0, "Y": 0.0}}]}, "perspective_c4_x": {"Points": [{"interpolation": 2, "co": {"X": 1.0, "Y": -1.0}}]}, "perspective_c1_x": {"Points": [{"interpolation": 2, "co": {"X": 1.0, "Y": -1.0}}]}, "file_id": "NPKWPTBSBU", "rotation": {"Points": [{"interpolation": 2, "co": {"X": 1.0, "Y": 0.0}}]}, "id": "O37HUVEY8G", "wave_color": {"blue": {"Points": [{"interpolation": 0, "handle_left": {"X": 0.5, "Y": 1.0}, "handle_right": {"X": 0.5, "Y": 0.0}, "co": {"X": 1.0, "Y": 255.0}, "handle_type": 0}]}, "green": {"Points": [{"interpolation": 0, "handle_left": {"X": 0.5, "Y": 1.0}, "handle_right": {"X": 0.5, "Y": 0.0}, "co": {"X": 1.0, "Y": 123.0}, "handle_type": 0}]}, "alpha": {"Points": [{"interpolation": 0, "handle_left": {"X": 0.5, "Y": 1.0}, "handle_right": {"X": 0.5, "Y": 0.0}, "co": {"X": 1.0, "Y": 255.0}, "handle_type": 0}]}, "red": {"Points": [{"interpolation": 0, "handle_left": {"X": 0.5, "Y": 1.0}, "handle_right": {"X": 0.5, "Y": 0.0}, "co": {"X": 1.0, "Y": 0.0}, "handle_type": 0}]}}, "reader": {"height": 720, "pixel_ratio": {"num": 1, "den": 1}, "has_single_image": false, "audio_timebase": {"num": 1, "den": 44100}, "audio_stream_index": 1, "display_ratio": {"num": 16, "den": 9}, "channel_layout": 3, "has_audio": true, "video_timebase": {"num": 1, "den": 15360}, "video_bit_rate": 1071653, "duration": 7.777777671813965, "fps": {"num": 60, "den": 1}, "channels": 2, "has_video": true, "video_stream_index": 0, "width": 1280, "acodec": "aac", "top_field_first": true, "pixel_format": 0, "vcodec": "h264", "file_size": "1047139", "path": "C:/VS/Video/2018-03-11_17-30-41.mov", "type": "FFmpegReader", "sample_rate": 44100, "interlaced_frame": false, "video_length": "469", "audio_bit_rate": 97418}, "display": 0, "anchor": 0, "perspective_c3_y": {"Points": [{"interpolation": 2, "co": {"X": 1.0, "Y": -1.0}}]}, "scale_y": {"Points": [{"interpolation": 2, "co": {"X": 1.0, "Y": 1.0}}]}, "crop_width": {"Points": [{"interpolation": 2, "co": {"X": 1.0, "Y": -1.0}}]}, "position": 89.54166666666667, "crop_y": {"Points": [{"interpolation": 2, "co": {"X": 1.0, "Y": 0.0}}]}, "channel_mapping": {"Points": [{"interpolation": 2, "co": {"X": 1.0, "Y": -1.0}}]}, "effects": [], "layer": 4, "shear_x": {"Points": [{"interpolation": 2, "co": {"X": 1.0, "Y": 0.0}}]}, "alpha": {"Points": [{"interpolation": 2, "co": {"X": 1.0, "Y": 1.0}}]}, "perspective_c2_x": {"Points": [{"interpolation": 2, "co": {"X": 1.0, "Y": -1.0}}]}, "duration": 7.777777671813965, "image": "C:\\Users\\yifan\\.openshot_qt\\thumbnail\\O37HUVEY8G-180.png", "scale_x": {"Points": [{"interpolation": 2, "co": {"X": 1.0, "Y": 1.0}}]}, "location_y": {"Points": [{"interpolation": 2, "co": {"X": 1.0, "Y": 0.0}}]}, "start": 2.9901041666666828, "title": "2018-03-11_17-30-41.mov", "crop_x": {"Points": [{"interpolation": 2, "co": {"X": 1.0, "Y": 0.0}}]}}, "type": "update", "key": ["clips", {"id": "O37HUVEY8G"}], "partial": false, "value": {"end": 7.777777671813965, "start": 2.9901041666666828, "position": 86.5515625, "image": "C:\\Users\\yifan\\.openshot_qt\\thumbnail\\O37HUVEY8G-180.png", "id": "O37HUVEY8G", "layer": 4}}]}, "files": [{"height": 720, "pixel_ratio": {"num": 1, "den": 1}, "has_single_image": false, "audio_timebase": {"num": 1, "den": 44100}, "audio_stream_index": 1, "display_ratio": {"num": 16, "den": 9}, "channel_layout": 3, "media_type": "video", "has_audio": true, "video_timebase": {"num": 1, "den": 15360}, "vcodec": "h264", "id": "UEMWFW66UU", "duration": 10.1927433013916, "fps": {"num": 30, "den": 1}, "channels": 2, "has_video": true, "video_stream_index": 0, "width": 1280, "acodec": "aac", "top_field_first": true, "pixel_format": 0, "video_bit_rate": 899354, "file_size": "1154209", "path": "..\\..\\Video\\2018-03-11_17-18-09.mp4", "type": "FFmpegReader", "sample_rate": 44100, "interlaced_frame": false, "video_length": "308", "audio_bit_rate": 97355}, {"height": 720, "pixel_ratio": {"num": 1, "den": 1}, "has_single_image": false, "audio_timebase": {"num": 1, "den": 44100}, "audio_stream_index": 1, "display_ratio": {"num": 16, "den": 9}, "channel_layout": 3, "media_type": "video", "has_audio": true, "video_timebase": {"num": 1, "den": 15360}, "vcodec": "h264", "id": "T8PAWZIGV3", "duration": 11.1904764175415, "fps": {"num": 30, "den": 1}, "channels": 2, "has_video": true, "video_stream_index": 0, "width": 1280, "acodec": "aac", "top_field_first": true, "pixel_format": 0, "video_bit_rate": 748484, "file_size": "1054147", "path": "..\\..\\Video\\2018-03-11_17-18-49.mp4", "type": "FFmpegReader", "sample_rate": 44100, "interlaced_frame": false, "video_length": "338", "audio_bit_rate": 97344}, {"height": 720, "pixel_ratio": {"num": 1, "den": 1}, "has_single_image": false, "audio_timebase": {"num": 1, "den": 44100}, "audio_stream_index": 1, "display_ratio": {"num": 16, "den": 9}, "channel_layout": 3, "media_type": "video", "has_audio": true, "video_timebase": {"num": 1, "den": 15360}, "vcodec": "h264", "id": "4N4N7L5ZEP", "duration": 14.65079402923584, "fps": {"num": 60, "den": 1}, "channels": 2, "has_video": true, "video_stream_index": 0, "width": 1280, "acodec": "aac", "top_field_first": true, "pixel_format": 0, "video_bit_rate": 3738793, "file_size": "6854610", "path": "..\\..\\Video\\2018-03-11_17-21-13.mp4", "type": "FFmpegReader", "sample_rate": 44100, "interlaced_frame": false, "video_length": "880", "audio_bit_rate": 97296}, {"height": 720, "pixel_ratio": {"num": 1, "den": 1}, "has_single_image": false, "audio_timebase": {"num": 1, "den": 44100}, "audio_stream_index": 1, "display_ratio": {"num": 16, "den": 9}, "channel_layout": 3, "media_type": "video", "has_audio": true, "video_timebase": {"num": 1, "den": 15360}, "vcodec": "h264", "id": "XVWX27G7GK", "duration": 10.68027210235596, "fps": {"num": 60, "den": 1}, "channels": 2, "has_video": true, "video_stream_index": 0, "width": 1280, "acodec": "aac", "top_field_first": true, "pixel_format": 0, "video_bit_rate": 1180663, "file_size": "1579137", "path": "..\\..\\Video\\2018-03-11_17-21-49.mp4", "type": "FFmpegReader", "sample_rate": 44100, "interlaced_frame": false, "video_length": "642", "audio_bit_rate": 97347}, {"height": 720, "pixel_ratio": {"num": 1, "den": 1}, "has_single_image": false, "audio_timebase": {"num": 1, "den": 44100}, "audio_stream_index": 1, "display_ratio": {"num": 16, "den": 9}, "channel_layout": 3, "media_type": "video", "has_audio": true, "video_timebase": {"num": 1, "den": 15360}, "vcodec": "h264", "id": "GH0TMMFPLE", "duration": 7.126984119415283, "fps": {"num": 60, "den": 1}, "channels": 2, "has_video": true, "video_stream_index": 0, "width": 1280, "acodec": "aac", "top_field_first": true, "pixel_format": 0, "video_bit_rate": 2437931, "file_size": "2174025", "path": "..\\..\\Video\\2018-03-11_17-22-13.mp4", "type": "FFmpegReader", "sample_rate": 44100, "interlaced_frame": false, "video_length": "428", "audio_bit_rate": 97450}, {"height": 720, "pixel_ratio": {"num": 1, "den": 1}, "has_single_image": false, "audio_timebase": {"num": 1, "den": 44100}, "audio_stream_index": 1, "display_ratio": {"num": 16, "den": 9}, "channel_layout": 3, "media_type": "video", "has_audio": true, "video_timebase": {"num": 1, "den": 15360}, "vcodec": "h264", "id": "DCOSRPQLUE", "duration": 11.63265323638916, "fps": {"num": 60, "den": 1}, "channels": 2, "has_video": true, "video_stream_index": 0, "width": 1280, "acodec": "aac", "top_field_first": true, "pixel_format": 0, "video_bit_rate": 2996517, "file_size": "4363678", "path": "..\\..\\Video\\2018-03-11_17-25-52.mp4", "type": "FFmpegReader", "sample_rate": 44100, "interlaced_frame": false, "video_length": "699", "audio_bit_rate": 97328}, {"height": 720, "pixel_ratio": {"num": 1, "den": 1}, "has_single_image": false, "audio_timebase": {"num": 1, "den": 44100}, "audio_stream_index": 1, "display_ratio": {"num": 16, "den": 9}, "channel_layout": 3, "media_type": "video", "has_audio": true, "video_timebase": {"num": 1, "den": 15360}, "vcodec": "h264", "id": "37DN54Y34O", "duration": 15.64852619171143, "fps": {"num": 60, "den": 1}, "channels": 2, "has_video": true, "video_stream_index": 0, "width": 1280, "acodec": "aac", "top_field_first": true, "pixel_format": 0, "video_bit_rate": 1412585, "file_size": "2769374", "path": "..\\..\\Video\\2018-03-11_17-26-58.mp4", "type": "FFmpegReader", "sample_rate": 44100, "interlaced_frame": false, "video_length": "941", "audio_bit_rate": 97292}, {"height": 720, "pixel_ratio": {"num": 1, "den": 1}, "has_single_image": false, "audio_timebase": {"num": 1, "den": 44100}, "audio_stream_index": 1, "display_ratio": {"num": 16, "den": 9}, "channel_layout": 3, "media_type": "video", "has_audio": true, "video_timebase": {"num": 1, "den": 15360}, "vcodec": "h264", "id": "RJBDVZG0R7", "duration": 14.8820858001709, "fps": {"num": 60, "den": 1}, "channels": 2, "has_video": true, "video_stream_index": 0, "width": 1280, "acodec": "aac", "top_field_first": true, "pixel_format": 0, "video_bit_rate": 2230084, "file_size": "4153532", "path": "..\\..\\Video\\2018-03-11_17-28-00.mp4", "type": "FFmpegReader", "sample_rate": 44100, "interlaced_frame": false, "video_length": "894", "audio_bit_rate": 97300}, {"height": 720, "pixel_ratio": {"num": 1, "den": 1}, "has_single_image": false, "audio_timebase": {"num": 1, "den": 44100}, "audio_stream_index": 1, "display_ratio": {"num": 16, "den": 9}, "channel_layout": 3, "media_type": "video", "has_audio": true, "video_timebase": {"num": 1, "den": 15360}, "vcodec": "h264", "id": "PBZDJATIGN", "duration": 22.94104385375977, "fps": {"num": 60, "den": 1}, "channels": 2, "has_video": true, "video_stream_index": 0, "width": 1280, "acodec": "aac", "top_field_first": true, "pixel_format": 0, "video_bit_rate": 3160877, "file_size": "9074485", "path": "..\\..\\Video\\2018-03-11_17-28-25.mp4", "type": "FFmpegReader", "sample_rate": 44100, "interlaced_frame": false, "video_length": "1378", "audio_bit_rate": 97243}, {"height": 720, "pixel_ratio": {"num": 1, "den": 1}, "has_single_image": false, "audio_timebase": {"num": 1, "den": 44100}, "audio_stream_index": 1, "display_ratio": {"num": 16, "den": 9}, "channel_layout": 3, "media_type": "video", "has_audio": true, "video_timebase": {"num": 1, "den": 15360}, "vcodec": "h264", "id": "991RFD2R1F", "duration": 14.11564636230469, "fps": {"num": 60, "den": 1}, "channels": 2, "has_video": true, "video_stream_index": 0, "width": 1280, "acodec": "aac", "top_field_first": true, "pixel_format": 0, "video_bit_rate": 2766400, "file_size": "4887538", "path": "..\\..\\Video\\2018-03-11_17-29-06.mp4", "type": "FFmpegReader", "sample_rate": 44100, "interlaced_frame": false, "video_length": "848", "audio_bit_rate": 97309}, {"height": 720, "pixel_ratio": {"num": 1, "den": 1}, "has_single_image": false, "audio_timebase": {"num": 1, "den": 44100}, "audio_stream_index": 1, "display_ratio": {"num": 16, "den": 9}, "channel_layout": 3, "media_type": "video", "has_audio": true, "video_timebase": {"num": 1, "den": 15360}, "vcodec": "h264", "id": "YWBK3SLP7U", "duration": 14.8820858001709, "fps": {"num": 60, "den": 1}, "channels": 2, "has_video": true, "video_stream_index": 0, "width": 1280, "acodec": "aac", "top_field_first": true, "pixel_format": 0, "video_bit_rate": 3341283, "file_size": "6223141", "path": "..\\..\\Video\\2018-03-11_17-29-26.mp4", "type": "FFmpegReader", "sample_rate": 44100, "interlaced_frame": false, "video_length": "894", "audio_bit_rate": 97300}, {"height": 720, "pixel_ratio": {"num": 1, "den": 1}, "has_single_image": false, "audio_timebase": {"num": 1, "den": 44100}, "audio_stream_index": 1, "display_ratio": {"num": 16, "den": 9}, "channel_layout": 3, "media_type": "video", "has_audio": true, "video_timebase": {"num": 1, "den": 15360}, "vcodec": "h264", "id": "NPKWPTBSBU", "duration": 7.777777671813965, "fps": {"num": 60, "den": 1}, "channels": 2, "has_video": true, "video_stream_index": 0, "width": 1280, "acodec": "aac", "top_field_first": true, "pixel_format": 0, "video_bit_rate": 1071653, "file_size": "1047139", "path": "..\\..\\Video\\2018-03-11_17-30-41.mov", "type": "FFmpegReader", "sample_rate": 44100, "interlaced_frame": false, "video_length": "469", "audio_bit_rate": 97418}, {"height": 480, "pixel_ratio": {"num": 1, "den": 1}, "has_single_image": false, "audio_timebase": {"num": 1, "den": 44100}, "audio_stream_index": 0, "display_ratio": {"num": 1, "den": 1}, "channel_layout": 3, "media_type": "audio", "has_audio": true, "video_timebase": {"num": 1, "den": 24}, "vcodec": "", "id": "1C7ASWD835", "duration": 153.6000213623047, "fps": {"num": 24, "den": 1}, "channels": 2, "has_video": false, "video_stream_index": -1, "width": 720, "acodec": "pcm_f32le", "top_field_first": true, "pixel_format": -1, "video_bit_rate": 0, "file_size": "54192082", "path": "..\\Assets\\Music\\Final Boss.wav", "type": "FFmpegReader", "sample_rate": 44100, "interlaced_frame": false, "video_length": "3686", "audio_bit_rate": 2822400}], "scale": 2, "export_path": "", "channel_layout": 3, "clips": [{"volume": {"Points": [{"interpolation": 2, "co": {"X": 1.0, "Y": 1.0}}]}, "perspective_c2_y": {"Points": [{"interpolation": 2, "co": {"X": 1.0, "Y": -1.0}}]}, "crop_height": {"Points": [{"interpolation": 2, "co": {"X": 1.0, "Y": -1.0}}]}, "time": {"Points": [{"interpolation": 2, "co": {"X": 1.0, "Y": 1.0}}]}, "scale": 1, "display": 0, "perspective_c1_x": {"Points": [{"interpolation": 2, "co": {"X": 1.0, "Y": -1.0}}]}, "duration": 10.1927433013916, "has_video": {"Points": [{"interpolation": 2, "co": {"X": 1.0, "Y": -1.0}}]}, "scale_y": {"Points": [{"interpolation": 2, "co": {"X": 1.0, "Y": 1.0}}]}, "reader": {"height": 720, "pixel_ratio": {"num": 1, "den": 1}, "has_single_image": false, "audio_timebase": {"num": 1, "den": 44100}, "audio_stream_index": 1, "display_ratio": {"num": 16, "den": 9}, "channel_layout": 3, "has_audio": true, "video_timebase": {"num": 1, "den": 15360}, "video_bit_rate": 899354, "duration": 10.1927433013916, "fps": {"num": 30, "den": 1}, "channels": 2, "has_video": true, "video_stream_index": 0, "width": 1280, "acodec": "aac", "top_field_first": true, "pixel_format": 0, "vcodec": "h264", "file_size": "1154209", "path": "..\\..\\Video\\2018-03-11_17-18-09.mp4", "type": "FFmpegReader", "sample_rate": 44100, "interlaced_frame": false, "video_length": "308", "audio_bit_rate": 97355}, "id": "GLRMZCUPL8", "shear_x": {"Points": [{"interpolation": 2, "co": {"X": 1.0, "Y": 0.0}}]}, "wave_color": {"blue": {"Points": [{"interpolation": 0, "handle_left": {"X": 0.5, "Y": 1.0}, "handle_right": {"X": 0.5, "Y": 0.0}, "co": {"X": 1.0, "Y": 255.0}, "handle_type": 0}]}, "green": {"Points": [{"interpolation": 0, "handle_left": {"X": 0.5, "Y": 1.0}, "handle_right": {"X": 0.5, "Y": 0.0}, "co": {"X": 1.0, "Y": 123.0}, "handle_type": 0}]}, "alpha": {"Points": [{"interpolation": 0, "handle_left": {"X": 0.5, "Y": 1.0}, "handle_right": {"X": 0.5, "Y": 0.0}, "co": {"X": 1.0, "Y": 255.0}, "handle_type": 0}]}, "red": {"Points": [{"interpolation": 0, "handle_left": {"X": 0.5, "Y": 1.0}, "handle_right": {"X": 0.5, "Y": 0.0}, "co": {"X": 1.0, "Y": 0.0}, "handle_type": 0}]}}, "location_y": {"Points": [{"interpolation": 2, "co": {"X": 1.0, "Y": 0.0}}]}, "crop_y": {"Points": [{"interpolation": 2, "co": {"X": 1.0, "Y": 0.0}}]}, "waveform": false, "anchor": 0, "perspective_c2_x": {"Points": [{"interpolation": 2, "co": {"X": 1.0, "Y": -1.0}}]}, "has_audio": {"Points": [{"interpolation": 2, "co": {"X": 1.0, "Y": -1.0}}]}, "perspective_c3_x": {"Points": [{"interpolation": 2, "co": {"X": 1.0, "Y": -1.0}}]}, "end": 9.625, "gravity": 4, "perspective_c4_y": {"Points": [{"interpolation": 2, "co": {"X": 1.0, "Y": -1.0}}]}, "perspective_c1_y": {"Points": [{"interpolation": 2, "co": {"X": 1.0, "Y": -1.0}}]}, "shear_y": {"Points": [{"interpolation": 2, "co": {"X": 1.0, "Y": 0.0}}]}, "perspective_c4_x": {"Points": [{"interpolation": 2, "co": {"X": 1.0, "Y": -1.0}}]}, "channel_filter": {"Points": [{"interpolation": 2, "co": {"X": 1.0, "Y": -1.0}}]}, "file_id": "UEMWFW66UU", "rotation": {"Points": [{"interpolation": 2, "co": {"X": 1.0, "Y": 0.0}}]}, "layer": 4, "location_x": {"Points": [{"interpolation": 2, "co": {"X": 1.0, "Y": 0.0}}]}, "start": 0, "perspective_c3_y": {"Points": [{"interpolation": 2, "co": {"X": 1.0, "Y": -1.0}}]}, "crop_width": {"Points": [{"interpolation": 2, "co": {"X": 1.0, "Y": -1.0}}]}, "position": 0, "channel_mapping": {"Points": [{"interpolation": 2, "co": {"X": 1.0, "Y": -1.0}}]}, "effects": [], "alpha": {"Points": [{"interpolation": 2, "co": {"X": 1.0, "Y": 1.0}}]}, "crop_x": {"Points": [{"interpolation": 2, "co": {"X": 1.0, "Y": 0.0}}]}, "image": "..\\..\\..\\Users\\yifan\\.openshot_qt\\thumbnail\\UEMWFW66UU.png", "scale_x": {"Points": [{"interpolation": 2, "co": {"X": 1.0, "Y": 1.0}}]}, "title": "2018-03-11_17-18-09.mp4"}, {"volume": {"Points": [{"interpolation": 2, "co": {"X": 1.0, "Y": 1.0}}]}, "perspective_c2_y": {"Points": [{"interpolation": 2, "co": {"X": 1.0, "Y": -1.0}}]}, "crop_height": {"Points": [{"interpolation": 2, "co": {"X": 1.0, "Y": -1.0}}]}, "time": {"Points": [{"interpolation": 2, "co": {"X": 1.0, "Y": 1.0}}]}, "scale": 1, "display": 0, "perspective_c1_x": {"Points": [{"interpolation": 2, "co": {"X": 1.0, "Y": -1.0}}]}, "duration": 11.1904764175415, "has_video": {"Points": [{"interpolation": 2, "co": {"X": 1.0, "Y": -1.0}}]}, "scale_y": {"Points": [{"interpolation": 2, "co": {"X": 1.0, "Y": 1.0}}]}, "reader": {"height": 720, "pixel_ratio": {"num": 1, "den": 1}, "has_single_image": false, "audio_timebase": {"num": 1, "den": 44100}, "audio_stream_index": 1, "display_ratio": {"num": 16, "den": 9}, "channel_layout": 3, "has_audio": true, "video_timebase": {"num": 1, "den": 15360}, "video_bit_rate": 748484, "duration": 11.1904764175415, "fps": {"num": 30, "den": 1}, "channels": 2, "has_video": true, "video_stream_index": 0, "width": 1280, "acodec": "aac", "top_field_first": true, "pixel_format": 0, "vcodec": "h264", "file_size": "1054147", "path": "..\\..\\Video\\2018-03-11_17-18-49.mp4", "type": "FFmpegReader", "sample_rate": 44100, "interlaced_frame": false, "video_length": "338", "audio_bit_rate": 97344}, "id": "PL6FQV7VV9", "shear_x": {"Points": [{"interpolation": 2, "co": {"X": 1.0, "Y": 0.0}}]}, "wave_color": {"blue": {"Points": [{"interpolation": 0, "handle_left": {"X": 0.5, "Y": 1.0}, "handle_right": {"X": 0.5, "Y": 0.0}, "co": {"X": 1.0, "Y": 255.0}, "handle_type": 0}]}, "green": {"Points": [{"interpolation": 0, "handle_left": {"X": 0.5, "Y": 1.0}, "handle_right": {"X": 0.5, "Y": 0.0}, "co": {"X": 1.0, "Y": 123.0}, "handle_type": 0}]}, "alpha": {"Points": [{"interpolation": 0, "handle_left": {"X": 0.5, "Y": 1.0}, "handle_right": {"X": 0.5, "Y": 0.0}, "co": {"X": 1.0, "Y": 255.0}, "handle_type": 0}]}, "red": {"Points": [{"interpolation": 0, "handle_left": {"X": 0.5, "Y": 1.0}, "handle_right": {"X": 0.5, "Y": 0.0}, "co": {"X": 1.0, "Y": 0.0}, "handle_type": 0}]}}, "location_y": {"Points": [{"interpolation": 2, "co": {"X": 1.0, "Y": 0.0}}]}, "crop_y": {"Points": [{"interpolation": 2, "co": {"X": 1.0, "Y": 0.0}}]}, "waveform": false, "anchor": 0, "perspective_c2_x": {"Points": [{"interpolation": 2, "co": {"X": 1.0, "Y": -1.0}}]}, "has_audio": {"Points": [{"interpolation": 2, "co": {"X": 1.0, "Y": -1.0}}]}, "perspective_c3_x": {"Points": [{"interpolation": 2, "co": {"X": 1.0, "Y": -1.0}}]}, "end": 11.1904764175415, "gravity": 4, "perspective_c4_y": {"Points": [{"interpolation": 2, "co": {"X": 1.0, "Y": -1.0}}]}, "perspective_c1_y": {"Points": [{"interpolation": 2, "co": {"X": 1.0, "Y": -1.0}}]}, "shear_y": {"Points": [{"interpolation": 2, "co": {"X": 1.0, "Y": 0.0}}]}, "perspective_c4_x": {"Points": [{"interpolation": 2, "co": {"X": 1.0, "Y": -1.0}}]}, "channel_filter": {"Points": [{"interpolation": 2, "co": {"X": 1.0, "Y": -1.0}}]}, "file_id": "T8PAWZIGV3", "rotation": {"Points": [{"interpolation": 2, "co": {"X": 1.0, "Y": 0.0}}]}, "layer": 4, "location_x": {"Points": [{"interpolation": 2, "co": {"X": 1.0, "Y": 0.0}}]}, "start": 0, "perspective_c3_y": {"Points": [{"interpolation": 2, "co": {"X": 1.0, "Y": -1.0}}]}, "crop_width": {"Points": [{"interpolation": 2, "co": {"X": 1.0, "Y": -1.0}}]}, "position": 9.385, "channel_mapping": {"Points": [{"interpolation": 2, "co": {"X": 1.0, "Y": -1.0}}]}, "effects": [], "alpha": {"Points": [{"interpolation": 2, "co": {"X": 1.0, "Y": 1.0}}, {"interpolation": 0, "handle_left": {"X": 0.5, "Y": 1.0}, "handle_right": {"X": 0.5, "Y": 0.0}, "co": {"X": 1.0, "Y": 0.0}, "handle_type": 0}, {"interpolation": 0, "handle_left": {"X": 0.5, "Y": 1.0}, "handle_right": {"X": 0.5, "Y": 0.0}, "co": {"X": 25.0, "Y": 1.0}, "handle_type": 0}]}, "crop_x": {"Points": [{"interpolation": 2, "co": {"X": 1.0, "Y": 0.0}}]}, "image": "..\\..\\..\\Users\\yifan\\.openshot_qt\\thumbnail\\T8PAWZIGV3.png", "scale_x": {"Points": [{"interpolation": 2, "co": {"X": 1.0, "Y": 1.0}}]}, "title": "2018-03-11_17-18-49.mp4"}, {"volume": {"Points": [{"interpolation": 2, "co": {"X": 1.0, "Y": 1.0}}]}, "perspective_c2_y": {"Points": [{"interpolation": 2, "co": {"X": 1.0, "Y": -1.0}}]}, "crop_height": {"Points": [{"interpolation": 2, "co": {"X": 1.0, "Y": -1.0}}]}, "time": {"Points": [{"interpolation": 2, "co": {"X": 1.0, "Y": 1.0}}]}, "scale": 1, "display": 0, "perspective_c1_x": {"Points": [{"interpolation": 2, "co": {"X": 1.0, "Y": -1.0}}]}, "duration": 14.65079402923584, "has_video": {"Points": [{"interpolation": 2, "co": {"X": 1.0, "Y": -1.0}}]}, "scale_y": {"Points": [{"interpolation": 2, "co": {"X": 1.0, "Y": 1.0}}]}, "reader": {"height": 720, "pixel_ratio": {"num": 1, "den": 1}, "has_single_image": false, "audio_timebase": {"num": 1, "den": 44100}, "audio_stream_index": 1, "display_ratio": {"num": 16, "den": 9}, "channel_layout": 3, "has_audio": true, "video_timebase": {"num": 1, "den": 15360}, "video_bit_rate": 3738793, "duration": 14.65079402923584, "fps": {"num": 60, "den": 1}, "channels": 2, "has_video": true, "video_stream_index": 0, "width": 1280, "acodec": "aac", "top_field_first": true, "pixel_format": 0, "vcodec": "h264", "file_size": "6854610", "path": "..\\..\\Video\\2018-03-11_17-21-13.mp4", "type": "FFmpegReader", "sample_rate": 44100, "interlaced_frame": false, "video_length": "880", "audio_bit_rate": 97296}, "id": "YKOLD1EBO6", "shear_x": {"Points": [{"interpolation": 2, "co": {"X": 1.0, "Y": 0.0}}]}, "wave_color": {"blue": {"Points": [{"interpolation": 0, "handle_left": {"X": 0.5, "Y": 1.0}, "handle_right": {"X": 0.5, "Y": 0.0}, "co": {"X": 1.0, "Y": 255.0}, "handle_type": 0}]}, "green": {"Points": [{"interpolation": 0, "handle_left": {"X": 0.5, "Y": 1.0}, "handle_right": {"X": 0.5, "Y": 0.0}, "co": {"X": 1.0, "Y": 123.0}, "handle_type": 0}]}, "alpha": {"Points": [{"interpolation": 0, "handle_left": {"X": 0.5, "Y": 1.0}, "handle_right": {"X": 0.5, "Y": 0.0}, "co": {"X": 1.0, "Y": 255.0}, "handle_type": 0}]}, "red": {"Points": [{"interpolation": 0, "handle_left": {"X": 0.5, "Y": 1.0}, "handle_right": {"X": 0.5, "Y": 0.0}, "co": {"X": 1.0, "Y": 0.0}, "handle_type": 0}]}}, "location_y": {"Points": [{"interpolation": 2, "co": {"X": 1.0, "Y": 0.0}}]}, "crop_y": {"Points": [{"interpolation": 2, "co": {"X": 1.0, "Y": 0.0}}]}, "waveform": false, "anchor": 0, "perspective_c2_x": {"Points": [{"interpolation": 2, "co": {"X": 1.0, "Y": -1.0}}]}, "has_audio": {"Points": [{"interpolation": 2, "co": {"X": 1.0, "Y": -1.0}}]}, "perspective_c3_x": {"Points": [{"interpolation": 2, "co": {"X": 1.0, "Y": -1.0}}]}, "end": 14.65079402923584, "gravity": 4, "perspective_c4_y": {"Points": [{"interpolation": 2, "co": {"X": 1.0, "Y": -1.0}}]}, "perspective_c1_y": {"Points": [{"interpolation": 2, "co": {"X": 1.0, "Y": -1.0}}]}, "shear_y": {"Points": [{"interpolation": 2, "co": {"X": 1.0, "Y": 0.0}}]}, "perspective_c4_x": {"Points": [{"interpolation": 2, "co": {"X": 1.0, "Y": -1.0}}]}, "channel_filter": {"Points": [{"interpolation": 2, "co": {"X": 1.0, "Y": -1.0}}]}, "file_id": "4N4N7L5ZEP", "rotation": {"Points": [{"interpolation": 2, "co": {"X": 1.0, "Y": 0.0}}]}, "layer": 4, "location_x": {"Points": [{"interpolation": 2, "co": {"X": 1.0, "Y": 0.0}}]}, "start": 6.008020833333333, "perspective_c3_y": {"Points": [{"interpolation": 2, "co": {"X": 1.0, "Y": -1.0}}]}, "crop_width": {"Points": [{"interpolation": 2, "co": {"X": 1.0, "Y": -1.0}}]}, "position": 20.5753125, "channel_mapping": {"Points": [{"interpolation": 2, "co": {"X": 1.0, "Y": -1.0}}]}, "effects": [], "alpha": {"Points": [{"interpolation": 2, "co": {"X": 1.0, "Y": 1.0}}]}, "crop_x": {"Points": [{"interpolation": 2, "co": {"X": 1.0, "Y": 0.0}}]}, "image": "..\\..\\..\\Users\\yifan\\.openshot_qt\\thumbnail\\YKOLD1EBO6-361.png", "scale_x": {"Points": [{"interpolation": 2, "co": {"X": 1.0, "Y": 1.0}}]}, "title": "2018-03-11_17-21-13.mp4"}, {"volume": {"Points": [{"interpolation": 2, "co": {"X": 1.0, "Y": 1.0}}]}, "perspective_c2_y": {"Points": [{"interpolation": 2, "co": {"X": 1.0, "Y": -1.0}}]}, "crop_height": {"Points": [{"interpolation": 2, "co": {"X": 1.0, "Y": -1.0}}]}, "time": {"Points": [{"interpolation": 2, "co": {"X": 1.0, "Y": 1.0}}]}, "scale": 1, "display": 0, "perspective_c1_x": {"Points": [{"interpolation": 2, "co": {"X": 1.0, "Y": -1.0}}]}, "duration": 10.68027210235596, "has_video": {"Points": [{"interpolation": 2, "co": {"X": 1.0, "Y": -1.0}}]}, "scale_y": {"Points": [{"interpolation": 2, "co": {"X": 1.0, "Y": 1.0}}]}, "reader": {"height": 720, "pixel_ratio": {"num": 1, "den": 1}, "has_single_image": false, "audio_timebase": {"num": 1, "den": 44100}, "audio_stream_index": 1, "display_ratio": {"num": 16, "den": 9}, "channel_layout": 3, "has_audio": true, "video_timebase": {"num": 1, "den": 15360}, "video_bit_rate": 1180663, "duration": 10.68027210235596, "fps": {"num": 60, "den": 1}, "channels": 2, "has_video": true, "video_stream_index": 0, "width": 1280, "acodec": "aac", "top_field_first": true, "pixel_format": 0, "vcodec": "h264", "file_size": "1579137", "path": "..\\..\\Video\\2018-03-11_17-21-49.mp4", "type": "FFmpegReader", "sample_rate": 44100, "interlaced_frame": false, "video_length": "642", "audio_bit_rate": 97347}, "id": "QHMHVMBNVT", "shear_x": {"Points": [{"interpolation": 2, "co": {"X": 1.0, "Y": 0.0}}]}, "wave_color": {"blue": {"Points": [{"interpolation": 0, "handle_left": {"X": 0.5, "Y": 1.0}, "handle_right": {"X": 0.5, "Y": 0.0}, "co": {"X": 1.0, "Y": 255.0}, "handle_type": 0}]}, "green": {"Points": [{"interpolation": 0, "handle_left": {"X": 0.5, "Y": 1.0}, "handle_right": {"X": 0.5, "Y": 0.0}, "co": {"X": 1.0, "Y": 123.0}, "handle_type": 0}]}, "alpha": {"Points": [{"interpolation": 0, "handle_left": {"X": 0.5, "Y": 1.0}, "handle_right": {"X": 0.5, "Y": 0.0}, "co": {"X": 1.0, "Y": 255.0}, "handle_type": 0}]}, "red": {"Points": [{"interpolation": 0, "handle_left": {"X": 0.5, "Y": 1.0}, "handle_right": {"X": 0.5, "Y": 0.0}, "co": {"X": 1.0, "Y": 0.0}, "handle_type": 0}]}}, "location_y": {"Points": [{"interpolation": 2, "co": {"X": 1.0, "Y": 0.0}}]}, "crop_y": {"Points": [{"interpolation": 2, "co": {"X": 1.0, "Y": 0.0}}]}, "waveform": false, "anchor": 0, "perspective_c2_x": {"Points": [{"interpolation": 2, "co": {"X": 1.0, "Y": -1.0}}]}, "has_audio": {"Points": [{"interpolation": 2, "co": {"X": 1.0, "Y": -1.0}}]}, "perspective_c3_x": {"Points": [{"interpolation": 2, "co": {"X": 1.0, "Y": -1.0}}]}, "end": 10.68027210235596, "gravity": 4, "perspective_c4_y": {"Points": [{"interpolation": 2, "co": {"X": 1.0, "Y": -1.0}}]}, "perspective_c1_y": {"Points": [{"interpolation": 2, "co": {"X": 1.0, "Y": -1.0}}]}, "shear_y": {"Points": [{"interpolation": 2, "co": {"X": 1.0, "Y": 0.0}}]}, "perspective_c4_x": {"Points": [{"interpolation": 2, "co": {"X": 1.0, "Y": -1.0}}]}, "channel_filter": {"Points": [{"interpolation": 2, "co": {"X": 1.0, "Y": -1.0}}]}, "file_id": "XVWX27G7GK", "rotation": {"Points": [{"interpolation": 2, "co": {"X": 1.0, "Y": 0.0}}]}, "layer": 4, "location_x": {"Points": [{"interpolation": 2, "co": {"X": 1.0, "Y": 0.0}}]}, "start": 0, "perspective_c3_y": {"Points": [{"interpolation": 2, "co": {"X": 1.0, "Y": -1.0}}]}, "crop_width": {"Points": [{"interpolation": 2, "co": {"X": 1.0, "Y": -1.0}}]}, "position": 29.218085695902506, "channel_mapping": {"Points": [{"interpolation": 2, "co": {"X": 1.0, "Y": -1.0}}]}, "effects": [], "alpha": {"Points": [{"interpolation": 2, "co": {"X": 1.0, "Y": 1.0}}]}, "crop_x": {"Points": [{"interpolation": 2, "co": {"X": 1.0, "Y": 0.0}}]}, "image": "..\\..\\..\\Users\\yifan\\.openshot_qt\\thumbnail\\XVWX27G7GK.png", "scale_x": {"Points": [{"interpolation": 2, "co": {"X": 1.0, "Y": 1.0}}]}, "title": "2018-03-11_17-21-49.mp4"}, {"volume": {"Points": [{"interpolation": 2, "co": {"X": 1.0, "Y": 1.0}}]}, "perspective_c2_y": {"Points": [{"interpolation": 2, "co": {"X": 1.0, "Y": -1.0}}]}, "crop_height": {"Points": [{"interpolation": 2, "co": {"X": 1.0, "Y": -1.0}}]}, "time": {"Points": [{"interpolation": 2, "co": {"X": 1.0, "Y": 1.0}}]}, "scale": 1, "display": 0, "perspective_c1_x": {"Points": [{"interpolation": 2, "co": {"X": 1.0, "Y": -1.0}}]}, "duration": 7.126984119415283, "has_video": {"Points": [{"interpolation": 2, "co": {"X": 1.0, "Y": -1.0}}]}, "scale_y": {"Points": [{"interpolation": 2, "co": {"X": 1.0, "Y": 1.0}}]}, "reader": {"height": 720, "pixel_ratio": {"num": 1, "den": 1}, "has_single_image": false, "audio_timebase": {"num": 1, "den": 44100}, "audio_stream_index": 1, "display_ratio": {"num": 16, "den": 9}, "channel_layout": 3, "has_audio": true, "video_timebase": {"num": 1, "den": 15360}, "video_bit_rate": 2437931, "duration": 7.126984119415283, "fps": {"num": 60, "den": 1}, "channels": 2, "has_video": true, "video_stream_index": 0, "width": 1280, "acodec": "aac", "top_field_first": true, "pixel_format": 0, "vcodec": "h264", "file_size": "2174025", "path": "..\\..\\Video\\2018-03-11_17-22-13.mp4", "type": "FFmpegReader", "sample_rate": 44100, "interlaced_frame": false, "video_length": "428", "audio_bit_rate": 97450}, "id": "1B3HU028O6", "shear_x": {"Points": [{"interpolation": 2, "co": {"X": 1.0, "Y": 0.0}}]}, "wave_color": {"blue": {"Points": [{"interpolation": 0, "handle_left": {"X": 0.5, "Y": 1.0}, "handle_right": {"X": 0.5, "Y": 0.0}, "co": {"X": 1.0, "Y": 255.0}, "handle_type": 0}]}, "green": {"Points": [{"interpolation": 0, "handle_left": {"X": 0.5, "Y": 1.0}, "handle_right": {"X": 0.5, "Y": 0.0}, "co": {"X": 1.0, "Y": 123.0}, "handle_type": 0}]}, "alpha": {"Points": [{"interpolation": 0, "handle_left": {"X": 0.5, "Y": 1.0}, "handle_right": {"X": 0.5, "Y": 0.0}, "co": {"X": 1.0, "Y": 255.0}, "handle_type": 0}]}, "red": {"Points": [{"interpolation": 0, "handle_left": {"X": 0.5, "Y": 1.0}, "handle_right": {"X": 0.5, "Y": 0.0}, "co": {"X": 1.0, "Y": 0.0}, "handle_type": 0}]}}, "location_y": {"Points": [{"interpolation": 2, "co": {"X": 1.0, "Y": 0.0}}]}, "crop_y": {"Points": [{"interpolation": 2, "co": {"X": 1.0, "Y": 0.0}}]}, "waveform": false, "anchor": 0, "perspective_c2_x": {"Points": [{"interpolation": 2, "co": {"X": 1.0, "Y": -1.0}}]}, "has_audio": {"Points": [{"interpolation": 2, "co": {"X": 1.0, "Y": -1.0}}]}, "perspective_c3_x": {"Points": [{"interpolation": 2, "co": {"X": 1.0, "Y": -1.0}}]}, "end": 6.601642201741534, "gravity": 4, "perspective_c4_y": {"Points": [{"interpolation": 2, "co": {"X": 1.0, "Y": -1.0}}]}, "perspective_c1_y": {"Points": [{"interpolation": 2, "co": {"X": 1.0, "Y": -1.0}}]}, "shear_y": {"Points": [{"interpolation": 2, "co": {"X": 1.0, "Y": 0.0}}]}, "perspective_c4_x": {"Points": [{"interpolation": 2, "co": {"X": 1.0, "Y": -1.0}}]}, "channel_filter": {"Points": [{"interpolation": 2, "co": {"X": 1.0, "Y": -1.0}}]}, "file_id": "GH0TMMFPLE", "rotation": {"Points": [{"interpolation": 2, "co": {"X": 1.0, "Y": 0.0}}]}, "layer": 4, "location_x": {"Points": [{"interpolation": 2, "co": {"X": 1.0, "Y": 0.0}}]}, "start": 0, "perspective_c3_y": {"Points": [{"interpolation": 2, "co": {"X": 1.0, "Y": -1.0}}]}, "crop_width": {"Points": [{"interpolation": 2, "co": {"X": 1.0, "Y": -1.0}}]}, "position": 39.898357798258466, "channel_mapping": {"Points": [{"interpolation": 2, "co": {"X": 1.0, "Y": -1.0}}]}, "effects": [], "alpha": {"Points": [{"interpolation": 2, "co": {"X": 1.0, "Y": 1.0}}]}, "crop_x": {"Points": [{"interpolation": 2, "co": {"X": 1.0, "Y": 0.0}}]}, "image": "..\\..\\..\\Users\\yifan\\.openshot_qt\\thumbnail\\GH0TMMFPLE.png", "scale_x": {"Points": [{"interpolation": 2, "co": {"X": 1.0, "Y": 1.0}}]}, "title": "2018-03-11_17-22-13.mp4"}, {"volume": {"Points": [{"interpolation": 2, "co": {"X": 1.0, "Y": 1.0}}]}, "perspective_c2_y": {"Points": [{"interpolation": 2, "co": {"X": 1.0, "Y": -1.0}}]}, "crop_height": {"Points": [{"interpolation": 2, "co": {"X": 1.0, "Y": -1.0}}]}, "time": {"Points": [{"interpolation": 2, "co": {"X": 1.0, "Y": 1.0}}]}, "scale": 1, "display": 0, "perspective_c1_x": {"Points": [{"interpolation": 2, "co": {"X": 1.0, "Y": -1.0}}]}, "duration": 153.6000213623047, "has_video": {"Points": [{"interpolation": 2, "co": {"X": 1.0, "Y": -1.0}}]}, "scale_y": {"Points": [{"interpolation": 2, "co": {"X": 1.0, "Y": 1.0}}]}, "reader": {"height": 480, "pixel_ratio": {"num": 1, "den": 1}, "has_single_image": false, "audio_timebase": {"num": 1, "den": 44100}, "audio_stream_index": 0, "display_ratio": {"num": 1, "den": 1}, "channel_layout": 3, "has_audio": true, "video_timebase": {"num": 1, "den": 24}, "video_bit_rate": 0, "duration": 153.6000213623047, "fps": {"num": 24, "den": 1}, "channels": 2, "has_video": false, "video_stream_index": -1, "width": 720, "acodec": "pcm_f32le", "top_field_first": true, "pixel_format": -1, "vcodec": "", "file_size": "54192082", "path": "..\\Assets\\Music\\Final Boss.wav", "type": "FFmpegReader", "sample_rate": 44100, "interlaced_frame": false, "video_length": "3686", "audio_bit_rate": 2822400}, "id": "0JWVPAIAY7", "shear_x": {"Points": [{"interpolation": 2, "co": {"X": 1.0, "Y": 0.0}}]}, "wave_color": {"blue": {"Points": [{"interpolation": 0, "handle_left": {"X": 0.5, "Y": 1.0}, "handle_right": {"X": 0.5, "Y": 0.0}, "co": {"X": 1.0, "Y": 255.0}, "handle_type": 0}]}, "green": {"Points": [{"interpolation": 0, "handle_left": {"X": 0.5, "Y": 1.0}, "handle_right": {"X": 0.5, "Y": 0.0}, "co": {"X": 1.0, "Y": 123.0}, "handle_type": 0}]}, "alpha": {"Points": [{"interpolation": 0, "handle_left": {"X": 0.5, "Y": 1.0}, "handle_right": {"X": 0.5, "Y": 0.0}, "co": {"X": 1.0, "Y": 255.0}, "handle_type": 0}]}, "red": {"Points": [{"interpolation": 0, "handle_left": {"X": 0.5, "Y": 1.0}, "handle_right": {"X": 0.5, "Y": 0.0}, "co": {"X": 1.0, "Y": 0.0}, "handle_type": 0}]}}, "location_y": {"Points": [{"interpolation": 2, "co": {"X": 1.0, "Y": 0.0}}]}, "crop_y": {"Points": [{"interpolation": 2, "co": {"X": 1.0, "Y": 0.0}}]}, "waveform": false, "anchor": 0, "perspective_c2_x": {"Points": [{"interpolation": 2, "co": {"X": 1.0, "Y": -1.0}}]}, "has_audio": {"Points": [{"interpolation": 2, "co": {"X": 1.0, "Y": -1.0}}]}, "perspective_c3_x": {"Points": [{"interpolation": 2, "co": {"X": 1.0, "Y": -1.0}}]}, "end": 153.6000213623047, "gravity": 4, "perspective_c4_y": {"Points": [{"interpolation": 2, "co": {"X": 1.0, "Y": -1.0}}]}, "perspective_c1_y": {"Points": [{"interpolation": 2, "co": {"X": 1.0, "Y": -1.0}}]}, "shear_y": {"Points": [{"interpolation": 2, "co": {"X": 1.0, "Y": 0.0}}]}, "perspective_c4_x": {"Points": [{"interpolation": 2, "co": {"X": 1.0, "Y": -1.0}}]}, "channel_filter": {"Points": [{"interpolation": 2, "co": {"X": 1.0, "Y": -1.0}}]}, "file_id": "1C7ASWD835", "rotation": {"Points": [{"interpolation": 2, "co": {"X": 1.0, "Y": 0.0}}]}, "layer": 3, "location_x": {"Points": [{"interpolation": 2, "co": {"X": 1.0, "Y": 0.0}}]}, "start": 0, "perspective_c3_y": {"Points": [{"interpolation": 2, "co": {"X": 1.0, "Y": -1.0}}]}, "crop_width": {"Points": [{"interpolation": 2, "co": {"X": 1.0, "Y": -1.0}}]}, "position": 0.04166666666666666, "channel_mapping": {"Points": [{"interpolation": 2, "co": {"X": 1.0, "Y": -1.0}}]}, "effects": [], "alpha": {"Points": [{"interpolation": 2, "co": {"X": 1.0, "Y": 1.0}}]}, "crop_x": {"Points": [{"interpolation": 2, "co": {"X": 1.0, "Y": 0.0}}]}, "image": "..\\..\\..\\Program Files\\OpenShot Video Editor\\images\\AudioThumbnail.png", "scale_x": {"Points": [{"interpolation": 2, "co": {"X": 1.0, "Y": 1.0}}]}, "title": "Final Boss.wav"}, {"volume": {"Points": [{"interpolation": 2, "co": {"X": 1.0, "Y": 1.0}}]}, "perspective_c2_y": {"Points": [{"interpolation": 2, "co": {"X": 1.0, "Y": -1.0}}]}, "crop_height": {"Points": [{"interpolation": 2, "co": {"X": 1.0, "Y": -1.0}}]}, "time": {"Points": [{"interpolation": 2, "co": {"X": 1.0, "Y": 1.0}}]}, "scale": 1, "display": 0, "perspective_c1_x": {"Points": [{"interpolation": 2, "co": {"X": 1.0, "Y": -1.0}}]}, "duration": 11.63265323638916, "has_video": {"Points": [{"interpolation": 2, "co": {"X": 1.0, "Y": -1.0}}]}, "scale_y": {"Points": [{"interpolation": 2, "co": {"X": 1.0, "Y": 1.0}}]}, "reader": {"height": 720, "pixel_ratio": {"num": 1, "den": 1}, "has_single_image": false, "audio_timebase": {"num": 1, "den": 44100}, "audio_stream_index": 1, "display_ratio": {"num": 16, "den": 9}, "channel_layout": 3, "has_audio": true, "video_timebase": {"num": 1, "den": 15360}, "video_bit_rate": 2996517, "duration": 11.63265323638916, "fps": {"num": 60, "den": 1}, "channels": 2, "has_video": true, "video_stream_index": 0, "width": 1280, "acodec": "aac", "top_field_first": true, "pixel_format": 0, "vcodec": "h264", "file_size": "4363678", "path": "..\\..\\Video\\2018-03-11_17-25-52.mp4", "type": "FFmpegReader", "sample_rate": 44100, "interlaced_frame": false, "video_length": "699", "audio_bit_rate": 97328}, "id": "9N232ZSCDX", "shear_x": {"Points": [{"interpolation": 2, "co": {"X": 1.0, "Y": 0.0}}]}, "wave_color": {"blue": {"Points": [{"interpolation": 0, "handle_left": {"X": 0.5, "Y": 1.0}, "handle_right": {"X": 0.5, "Y": 0.0}, "co": {"X": 1.0, "Y": 255.0}, "handle_type": 0}]}, "green": {"Points": [{"interpolation": 0, "handle_left": {"X": 0.5, "Y": 1.0}, "handle_right": {"X": 0.5, "Y": 0.0}, "co": {"X": 1.0, "Y": 123.0}, "handle_type": 0}]}, "alpha": {"Points": [{"interpolation": 0, "handle_left": {"X": 0.5, "Y": 1.0}, "handle_right": {"X": 0.5, "Y": 0.0}, "co": {"X": 1.0, "Y": 255.0}, "handle_type": 0}]}, "red": {"Points": [{"interpolation": 0, "handle_left": {"X": 0.5, "Y": 1.0}, "handle_right": {"X": 0.5, "Y": 0.0}, "co": {"X": 1.0, "Y": 0.0}, "handle_type": 0}]}}, "location_y": {"Points": [{"interpolation": 2, "co": {"X": 1.0, "Y": 0.0}}]}, "crop_y": {"Points": [{"interpolation": 2, "co": {"X": 1.0, "Y": 0.0}}]}, "waveform": false, "anchor": 0, "perspective_c2_x": {"Points": [{"interpolation": 2, "co": {"X": 1.0, "Y": -1.0}}]}, "has_audio": {"Points": [{"interpolation": 2, "co": {"X": 1.0, "Y": -1.0}}]}, "perspective_c3_x": {"Points": [{"interpolation": 2, "co": {"X": 1.0, "Y": -1.0}}]}, "end": 9.915, "gravity": 4, "perspective_c4_y": {"Points": [{"interpolation": 2, "co": {"X": 1.0, "Y": -1.0}}]}, "perspective_c1_y": {"Points": [{"interpolation": 2, "co": {"X": 1.0, "Y": -1.0}}]}, "shear_y": {"Points": [{"interpolation": 2, "co": {"X": 1.0, "Y": 0.0}}]}, "perspective_c4_x": {"Points": [{"interpolation": 2, "co": {"X": 1.0, "Y": -1.0}}]}, "channel_filter": {"Points": [{"interpolation": 2, "co": {"X": 1.0, "Y": -1.0}}]}, "file_id": "DCOSRPQLUE", "rotation": {"Points": [{"interpolation": 2, "co": {"X": 1.0, "Y": 0.0}}]}, "layer": 4, "location_x": {"Points": [{"interpolation": 2, "co": {"X": 1.0, "Y": 0.0}}]}, "start": 0, "perspective_c3_y": {"Points": [{"interpolation": 2, "co": {"X": 1.0, "Y": -1.0}}]}, "crop_width": {"Points": [{"interpolation": 2, "co": {"X": 1.0, "Y": -1.0}}]}, "position": 45.96, "channel_mapping": {"Points": [{"interpolation": 2, "co": {"X": 1.0, "Y": -1.0}}]}, "effects": [], "alpha": {"Points": [{"interpolation": 2, "co": {"X": 1.0, "Y": 1.0}}]}, "crop_x": {"Points": [{"interpolation": 2, "co": {"X": 1.0, "Y": 0.0}}]}, "image": "..\\..\\..\\Users\\yifan\\.openshot_qt\\thumbnail\\DCOSRPQLUE.png", "scale_x": {"Points": [{"interpolation": 2, "co": {"X": 1.0, "Y": 1.0}}]}, "title": "2018-03-11_17-25-52.mp4"}, {"volume": {"Points": [{"interpolation": 2, "co": {"X": 1.0, "Y": 1.0}}]}, "perspective_c2_y": {"Points": [{"interpolation": 2, "co": {"X": 1.0, "Y": -1.0}}]}, "crop_height": {"Points": [{"interpolation": 2, "co": {"X": 1.0, "Y": -1.0}}]}, "time": {"Points": [{"interpolation": 2, "co": {"X": 1.0, "Y": 1.0}}]}, "scale": 1, "display": 0, "perspective_c1_x": {"Points": [{"interpolation": 2, "co": {"X": 1.0, "Y": -1.0}}]}, "duration": 22.94104385375977, "has_video": {"Points": [{"interpolation": 2, "co": {"X": 1.0, "Y": -1.0}}]}, "scale_y": {"Points": [{"interpolation": 2, "co": {"X": 1.0, "Y": 1.0}}]}, "reader": {"height": 720, "pixel_ratio": {"num": 1, "den": 1}, "has_single_image": false, "audio_timebase": {"num": 1, "den": 44100}, "audio_stream_index": 1, "display_ratio": {"num": 16, "den": 9}, "channel_layout": 3, "has_audio": true, "video_timebase": {"num": 1, "den": 15360}, "video_bit_rate": 3160877, "duration": 22.94104385375977, "fps": {"num": 60, "den": 1}, "channels": 2, "has_video": true, "video_stream_index": 0, "width": 1280, "acodec": "aac", "top_field_first": true, "pixel_format": 0, "vcodec": "h264", "file_size": "9074485", "path": "..\\..\\Video\\2018-03-11_17-28-25.mp4", "type": "FFmpegReader", "sample_rate": 44100, "interlaced_frame": false, "video_length": "1378", "audio_bit_rate": 97243}, "id": "TGURL6WJII", "shear_x": {"Points": [{"interpolation": 2, "co": {"X": 1.0, "Y": 0.0}}]}, "wave_color": {"blue": {"Points": [{"interpolation": 0, "handle_left": {"X": 0.5, "Y": 1.0}, "handle_right": {"X": 0.5, "Y": 0.0}, "co": {"X": 1.0, "Y": 255.0}, "handle_type": 0}]}, "green": {"Points": [{"interpolation": 0, "handle_left": {"X": 0.5, "Y": 1.0}, "handle_right": {"X": 0.5, "Y": 0.0}, "co": {"X": 1.0, "Y": 123.0}, "handle_type": 0}]}, "alpha": {"Points": [{"interpolation": 0, "handle_left": {"X": 0.5, "Y": 1.0}, "handle_right": {"X": 0.5, "Y": 0.0}, "co": {"X": 1.0, "Y": 255.0}, "handle_type": 0}]}, "red": {"Points": [{"interpolation": 0, "handle_left": {"X": 0.5, "Y": 1.0}, "handle_right": {"X": 0.5, "Y": 0.0}, "co": {"X": 1.0, "Y": 0.0}, "handle_type": 0}]}}, "location_y": {"Points": [{"interpolation": 2, "co": {"X": 1.0, "Y": 0.0}}]}, "crop_y": {"Points": [{"interpolation": 2, "co": {"X": 1.0, "Y": 0.0}}]}, "waveform": false, "anchor": 0, "perspective_c2_x": {"Points": [{"interpolation": 2, "co": {"X": 1.0, "Y": -1.0}}]}, "has_audio": {"Points": [{"interpolation": 2, "co": {"X": 1.0, "Y": -1.0}}]}, "perspective_c3_x": {"Points": [{"interpolation": 2, "co": {"X": 1.0, "Y": -1.0}}]}, "end": 22.499999999999993, "gravity": 4, "perspective_c4_y": {"Points": [{"interpolation": 2, "co": {"X": 1.0, "Y": -1.0}}]}, "perspective_c1_y": {"Points": [{"interpolation": 2, "co": {"X": 1.0, "Y": -1.0}}]}, "shear_y": {"Points": [{"interpolation": 2, "co": {"X": 1.0, "Y": 0.0}}]}, "perspective_c4_x": {"Points": [{"interpolation": 2, "co": {"X": 1.0, "Y": -1.0}}]}, "channel_filter": {"Points": [{"interpolation": 2, "co": {"X": 1.0, "Y": -1.0}}]}, "file_id": "PBZDJATIGN", "rotation": {"Points": [{"interpolation": 2, "co": {"X": 1.0, "Y": 0.0}}]}, "layer": 4, "location_x": {"Points": [{"interpolation": 2, "co": {"X": 1.0, "Y": 0.0}}]}, "start": 3.2916666666666643, "perspective_c3_y": {"Points": [{"interpolation": 2, "co": {"X": 1.0, "Y": -1.0}}]}, "crop_width": {"Points": [{"interpolation": 2, "co": {"X": 1.0, "Y": -1.0}}]}, "position": 55.875, "channel_mapping": {"Points": [{"interpolation": 2, "co": {"X": 1.0, "Y": -1.0}}]}, "effects": [], "alpha": {"Points": [{"interpolation": 2, "co": {"X": 1.0, "Y": 1.0}}]}, "crop_x": {"Points": [{"interpolation": 2, "co": {"X": 1.0, "Y": 0.0}}]}, "image": "..\\..\\..\\Users\\yifan\\.openshot_qt\\thumbnail\\TGURL6WJII-198.png", "scale_x": {"Points": [{"interpolation": 2, "co": {"X": 1.0, "Y": 1.0}}]}, "title": "2018-03-11_17-28-25.mp4"}, {"volume": {"Points": [{"interpolation": 2, "co": {"X": 1.0, "Y": 1.0}}]}, "perspective_c2_y": {"Points": [{"interpolation": 2, "co": {"X": 1.0, "Y": -1.0}}]}, "crop_height": {"Points": [{"interpolation": 2, "co": {"X": 1.0, "Y": -1.0}}]}, "time": {"Points": [{"interpolation": 2, "co": {"X": 1.0, "Y": 1.0}}]}, "scale": 1, "display": 0, "perspective_c1_x": {"Points": [{"interpolation": 2, "co": {"X": 1.0, "Y": -1.0}}]}, "duration": 14.11564636230469, "has_video": {"Points": [{"interpolation": 2, "co": {"X": 1.0, "Y": -1.0}}]}, "scale_y": {"Points": [{"interpolation": 2, "co": {"X": 1.0, "Y": 1.0}}]}, "reader": {"height": 720, "pixel_ratio": {"num": 1, "den": 1}, "has_single_image": false, "audio_timebase": {"num": 1, "den": 44100}, "audio_stream_index": 1, "display_ratio": {"num": 16, "den": 9}, "channel_layout": 3, "has_audio": true, "video_timebase": {"num": 1, "den": 15360}, "video_bit_rate": 2766400, "duration": 14.11564636230469, "fps": {"num": 60, "den": 1}, "channels": 2, "has_video": true, "video_stream_index": 0, "width": 1280, "acodec": "aac", "top_field_first": true, "pixel_format": 0, "vcodec": "h264", "file_size": "4887538", "path": "..\\..\\Video\\2018-03-11_17-29-06.mp4", "type": "FFmpegReader", "sample_rate": 44100, "interlaced_frame": false, "video_length": "848", "audio_bit_rate": 97309}, "id": "NG5RG0J90S", "shear_x": {"Points": [{"interpolation": 2, "co": {"X": 1.0, "Y": 0.0}}]}, "wave_color": {"blue": {"Points": [{"interpolation": 0, "handle_left": {"X": 0.5, "Y": 1.0}, "handle_right": {"X": 0.5, "Y": 0.0}, "co": {"X": 1.0, "Y": 255.0}, "handle_type": 0}]}, "green": {"Points": [{"interpolation": 0, "handle_left": {"X": 0.5, "Y": 1.0}, "handle_right": {"X": 0.5, "Y": 0.0}, "co": {"X": 1.0, "Y": 123.0}, "handle_type": 0}]}, "alpha": {"Points": [{"interpolation": 0, "handle_left": {"X": 0.5, "Y": 1.0}, "handle_right": {"X": 0.5, "Y": 0.0}, "co": {"X": 1.0, "Y": 255.0}, "handle_type": 0}]}, "red": {"Points": [{"interpolation": 0, "handle_left": {"X": 0.5, "Y": 1.0}, "handle_right": {"X": 0.5, "Y": 0.0}, "co": {"X": 1.0, "Y": 0.0}, "handle_type": 0}]}}, "location_y": {"Points": [{"interpolation": 2, "co": {"X": 1.0, "Y": 0.0}}]}, "crop_y": {"Points": [{"interpolation": 2, "co": {"X": 1.0, "Y": 0.0}}]}, "waveform": false, "anchor": 0, "perspective_c2_x": {"Points": [{"interpolation": 2, "co": {"X": 1.0, "Y": -1.0}}]}, "has_audio": {"Points": [{"interpolation": 2, "co": {"X": 1.0, "Y": -1.0}}]}, "perspective_c3_x": {"Points": [{"interpolation": 2, "co": {"X": 1.0, "Y": -1.0}}]}, "end": 12.05020833333333, "gravity": 4, "perspective_c4_y": {"Points": [{"interpolation": 2, "co": {"X": 1.0, "Y": -1.0}}]}, "perspective_c1_y": {"Points": [{"interpolation": 2, "co": {"X": 1.0, "Y": -1.0}}]}, "shear_y": {"Points": [{"interpolation": 2, "co": {"X": 1.0, "Y": 0.0}}]}, "perspective_c4_x": {"Points": [{"interpolation": 2, "co": {"X": 1.0, "Y": -1.0}}]}, "channel_filter": {"Points": [{"interpolation": 2, "co": {"X": 1.0, "Y": -1.0}}]}, "file_id": "991RFD2R1F", "rotation": {"Points": [{"interpolation": 2, "co": {"X": 1.0, "Y": 0.0}}]}, "layer": 4, "location_x": {"Points": [{"interpolation": 2, "co": {"X": 1.0, "Y": 0.0}}]}, "start": 3.291666666666657, "perspective_c3_y": {"Points": [{"interpolation": 2, "co": {"X": 1.0, "Y": -1.0}}]}, "crop_width": {"Points": [{"interpolation": 2, "co": {"X": 1.0, "Y": -1.0}}]}, "position": 74.533125, "channel_mapping": {"Points": [{"interpolation": 2, "co": {"X": 1.0, "Y": -1.0}}]}, "effects": [], "alpha": {"Points": [{"interpolation": 2, "co": {"X": 1.0, "Y": 1.0}}]}, "crop_x": {"Points": [{"interpolation": 2, "co": {"X": 1.0, "Y": 0.0}}]}, "image": "..\\..\\..\\Users\\yifan\\.openshot_qt\\thumbnail\\NG5RG0J90S-198.png", "scale_x": {"Points": [{"interpolation": 2, "co": {"X": 1.0, "Y": 1.0}}]}, "title": "2018-03-11_17-29-06.mp4"}, {"volume": {"Points": [{"interpolation": 2, "co": {"X": 1.0, "Y": 1.0}}]}, "perspective_c2_y": {"Points": [{"interpolation": 2, "co": {"X": 1.0, "Y": -1.0}}]}, "crop_height": {"Points": [{"interpolation": 2, "co": {"X": 1.0, "Y": -1.0}}]}, "time": {"Points": [{"interpolation": 2, "co": {"X": 1.0, "Y": 1.0}}]}, "scale": 1, "display": 0, "perspective_c1_x": {"Points": [{"interpolation": 2, "co": {"X": 1.0, "Y": -1.0}}]}, "duration": 14.8820858001709, "has_video": {"Points": [{"interpolation": 2, "co": {"X": 1.0, "Y": -1.0}}]}, "scale_y": {"Points": [{"interpolation": 2, "co": {"X": 1.0, "Y": 1.0}}]}, "reader": {"height": 720, "pixel_ratio": {"num": 1, "den": 1}, "has_single_image": false, "audio_timebase": {"num": 1, "den": 44100}, "audio_stream_index": 1, "display_ratio": {"num": 16, "den": 9}, "channel_layout": 3, "has_audio": true, "video_timebase": {"num": 1, "den": 15360}, "video_bit_rate": 3341283, "duration": 14.8820858001709, "fps": {"num": 60, "den": 1}, "channels": 2, "has_video": true, "video_stream_index": 0, "width": 1280, "acodec": "aac", "top_field_first": true, "pixel_format": 0, "vcodec": "h264", "file_size": "6223141", "path": "..\\..\\Video\\2018-03-11_17-29-26.mp4", "type": "FFmpegReader", "sample_rate": 44100, "interlaced_frame": false, "video_length": "894", "audio_bit_rate": 97300}, "id": "I5QPGK3C2F", "shear_x": {"Points": [{"interpolation": 2, "co": {"X": 1.0, "Y": 0.0}}]}, "wave_color": {"blue": {"Points": [{"interpolation": 0, "handle_left": {"X": 0.5, "Y": 1.0}, "handle_right": {"X": 0.5, "Y": 0.0}, "co": {"X": 1.0, "Y": 255.0}, "handle_type": 0}]}, "green": {"Points": [{"interpolation": 0, "handle_left": {"X": 0.5, "Y": 1.0}, "handle_right": {"X": 0.5, "Y": 0.0}, "co": {"X": 1.0, "Y": 123.0}, "handle_type": 0}]}, "alpha": {"Points": [{"interpolation": 0, "handle_left": {"X": 0.5, "Y": 1.0}, "handle_right": {"X": 0.5, "Y": 0.0}, "co": {"X": 1.0, "Y": 255.0}, "handle_type": 0}]}, "red": {"Points": [{"interpolation": 0, "handle_left": {"X": 0.5, "Y": 1.0}, "handle_right": {"X": 0.5, "Y": 0.0}, "co": {"X": 1.0, "Y": 0.0}, "handle_type": 0}]}}, "location_y": {"Points": [{"interpolation": 2, "co": {"X": 1.0, "Y": 0.0}}]}, "crop_y": {"Points": [{"interpolation": 2, "co": {"X": 1.0, "Y": 0.0}}]}, "waveform": false, "anchor": 0, "perspective_c2_x": {"Points": [{"interpolation": 2, "co": {"X": 1.0, "Y": -1.0}}]}, "has_audio": {"Points": [{"interpolation": 2, "co": {"X": 1.0, "Y": -1.0}}]}, "perspective_c3_x": {"Points": [{"interpolation": 2, "co": {"X": 1.0, "Y": -1.0}}]}, "end": 3.999999999999986, "gravity": 4, "perspective_c4_y": {"Points": [{"interpolation": 2, "co": {"X": 1.0, "Y": -1.0}}]}, "perspective_c1_y": {"Points": [{"interpolation": 2, "co": {"X": 1.0, "Y": -1.0}}]}, "shear_y": {"Points": [{"interpolation": 2, "co": {"X": 1.0, "Y": 0.0}}]}, "perspective_c4_x": {"Points": [{"interpolation": 2, "co": {"X": 1.0, "Y": -1.0}}]}, "channel_filter": {"Points": [{"interpolation": 2, "co": {"X": 1.0, "Y": -1.0}}]}, "file_id": "YWBK3SLP7U", "rotation": {"Points": [{"interpolation": 2, "co": {"X": 1.0, "Y": 0.0}}]}, "layer": 4, "location_x": {"Points": [{"interpolation": 2, "co": {"X": 1.0, "Y": 0.0}}]}, "start": 0, "perspective_c3_y": {"Points": [{"interpolation": 2, "co": {"X": 1.0, "Y": -1.0}}]}, "crop_width": {"Points": [{"interpolation": 2, "co": {"X": 1.0, "Y": -1.0}}]}, "position": 82.5515625, "channel_mapping": {"Points": [{"interpolation": 2, "co": {"X": 1.0, "Y": -1.0}}]}, "effects": [], "alpha": {"Points": [{"interpolation": 2, "co": {"X": 1.0, "Y": 1.0}}]}, "crop_x": {"Points": [{"interpolation": 2, "co": {"X": 1.0, "Y": 0.0}}]}, "image": "..\\..\\..\\Users\\yifan\\.openshot_qt\\thumbnail\\YWBK3SLP7U.png", "scale_x": {"Points": [{"interpolation": 2, "co": {"X": 1.0, "Y": 1.0}}]}, "title": "2018-03-11_17-29-26.mp4"}, {"volume": {"Points": [{"interpolation": 2, "co": {"X": 1.0, "Y": 1.0}}]}, "perspective_c2_y": {"Points": [{"interpolation": 2, "co": {"X": 1.0, "Y": -1.0}}]}, "crop_height": {"Points": [{"interpolation": 2, "co": {"X": 1.0, "Y": -1.0}}]}, "time": {"Points": [{"interpolation": 2, "co": {"X": 1.0, "Y": 1.0}}]}, "scale": 1, "display": 0, "perspective_c1_x": {"Points": [{"interpolation": 2, "co": {"X": 1.0, "Y": -1.0}}]}, "duration": 7.777777671813965, "has_video": {"Points": [{"interpolation": 2, "co": {"X": 1.0, "Y": -1.0}}]}, "scale_y": {"Points": [{"interpolation": 2, "co": {"X": 1.0, "Y": 1.0}}]}, "reader": {"height": 720, "pixel_ratio": {"num": 1, "den": 1}, "has_single_image": false, "audio_timebase": {"num": 1, "den": 44100}, "audio_stream_index": 1, "display_ratio": {"num": 16, "den": 9}, "channel_layout": 3, "has_audio": true, "video_timebase": {"num": 1, "den": 15360}, "video_bit_rate": 1071653, "duration": 7.777777671813965, "fps": {"num": 60, "den": 1}, "channels": 2, "has_video": true, "video_stream_index": 0, "width": 1280, "acodec": "aac", "top_field_first": true, "pixel_format": 0, "vcodec": "h264", "file_size": "1047139", "path": "..\\..\\Video\\2018-03-11_17-30-41.mov", "type": "FFmpegReader", "sample_rate": 44100, "interlaced_frame": false, "video_length": "469", "audio_bit_rate": 97418}, "id": "O37HUVEY8G", "shear_x": {"Points": [{"interpolation": 2, "co": {"X": 1.0, "Y": 0.0}}]}, "wave_color": {"blue": {"Points": [{"interpolation": 0, "handle_left": {"X": 0.5, "Y": 1.0}, "handle_right": {"X": 0.5, "Y": 0.0}, "co": {"X": 1.0, "Y": 255.0}, "handle_type": 0}]}, "green": {"Points": [{"interpolation": 0, "handle_left": {"X": 0.5, "Y": 1.0}, "handle_right": {"X": 0.5, "Y": 0.0}, "co": {"X": 1.0, "Y": 123.0}, "handle_type": 0}]}, "alpha": {"Points": [{"interpolation": 0, "handle_left": {"X": 0.5, "Y": 1.0}, "handle_right": {"X": 0.5, "Y": 0.0}, "co": {"X": 1.0, "Y": 255.0}, "handle_type": 0}]}, "red": {"Points": [{"interpolation": 0, "handle_left": {"X": 0.5, "Y": 1.0}, "handle_right": {"X": 0.5, "Y": 0.0}, "co": {"X": 1.0, "Y": 0.0}, "handle_type": 0}]}}, "location_y": {"Points": [{"interpolation": 2, "co": {"X": 1.0, "Y": 0.0}}]}, "crop_y": {"Points": [{"interpolation": 2, "co": {"X": 1.0, "Y": 0.0}}]}, "waveform": false, "anchor": 0, "perspective_c2_x": {"Points": [{"interpolation": 2, "co": {"X": 1.0, "Y": -1.0}}]}, "has_audio": {"Points": [{"interpolation": 2, "co": {"X": 1.0, "Y": -1.0}}]}, "perspective_c3_x": {"Points": [{"interpolation": 2, "co": {"X": 1.0, "Y": -1.0}}]}, "end": 7.777777671813965, "gravity": 4, "perspective_c4_y": {"Points": [{"interpolation": 2, "co": {"X": 1.0, "Y": -1.0}}]}, "perspective_c1_y": {"Points": [{"interpolation": 2, "co": {"X": 1.0, "Y": -1.0}}]}, "shear_y": {"Points": [{"interpolation": 2, "co": {"X": 1.0, "Y": 0.0}}]}, "perspective_c4_x": {"Points": [{"interpolation": 2, "co": {"X": 1.0, "Y": -1.0}}]}, "channel_filter": {"Points": [{"interpolation": 2, "co": {"X": 1.0, "Y": -1.0}}]}, "file_id": "NPKWPTBSBU", "rotation": {"Points": [{"interpolation": 2, "co": {"X": 1.0, "Y": 0.0}}]}, "layer": 4, "location_x": {"Points": [{"interpolation": 2, "co": {"X": 1.0, "Y": 0.0}}]}, "start": 2.9901041666666828, "perspective_c3_y": {"Points": [{"interpolation": 2, "co": {"X": 1.0, "Y": -1.0}}]}, "crop_width": {"Points": [{"interpolation": 2, "co": {"X": 1.0, "Y": -1.0}}]}, "position": 86.5515625, "channel_mapping": {"Points": [{"interpolation": 2, "co": {"X": 1.0, "Y": -1.0}}]}, "effects": [], "alpha": {"Points": [{"interpolation": 2, "co": {"X": 1.0, "Y": 1.0}}]}, "crop_x": {"Points": [{"interpolation": 2, "co": {"X": 1.0, "Y": 0.0}}]}, "image": "..\\..\\..\\Users\\yifan\\.openshot_qt\\thumbnail\\O37HUVEY8G-180.png", "scale_x": {"Points": [{"interpolation": 2, "co": {"X": 1.0, "Y": 1.0}}]}, "title": "2018-03-11_17-30-41.mov"}], "version": {"openshot-qt": "2.4.1", "libopenshot": "0.1.9"}, "id": "T0", "profile": "HDV 720 24p", "layers": [{"number": 0, "label": "", "id": "L0", "lock": false, "y": 0}, {"number": 1, "label": "", "id": "L1", "lock": false, "y": 0}, {"number": 2, "label": "", "id": "L2", "lock": false, "y": 0}, {"number": 3, "label": "", "id": "L3", "lock": false, "y": 0}, {"number": 4, "label": "", "id": "L4", "lock": false, "y": 0}], "width": 1280, "progress": [], "effects": [{"end": 0.5399999999999991, "replace_image": false, "start": 0, "title": "Transition", "contrast": {"Points": [{"interpolation": 2, "co": {"X": 1.0, "Y": 3.0}}]}, "position": 45.96, "reader": {"height": 576, "pixel_ratio": {"num": 1, "den": 1}, "has_single_image": true, "audio_timebase": {"num": 1, "den": 1}, "audio_stream_index": -1, "display_ratio": {"num": 5, "den": 4}, "channel_layout": 4, "has_audio": false, "video_timebase": {"num": 1, "den": 30}, "video_bit_rate": 0, "duration": 86400.0, "fps": {"num": 30, "den": 1}, "channels": 0, "has_video": true, "video_stream_index": -1, "width": 720, "acodec": "", "top_field_first": true, "pixel_format": -1, "vcodec": "", "file_size": "1658880", "path": "@transitions\\common\\fade.svg", "type": "QtImageReader", "sample_rate": 0, "interlaced_frame": false, "video_length": "2592000", "audio_bit_rate": 0}, "type": "Mask", "brightness": {"Points": [{"interpolation": 0, "handle_left": {"X": 0.5, "Y": 1.0}, "handle_right": {"X": 0.5, "Y": 0.0}, "co": {"X": 1.0, "Y": 1.0}, "handle_type": 0}, {"interpolation": 0, "handle_left": {"X": 0.5, "Y": 1.0}, "handle_right": {"X": 0.5, "Y": 0.0}, "co": {"X": 14.0, "Y": -1.0}, "handle_type": 0}]}, "id": "W2AFYQUG6S", "layer": 4}, {"end": 0.5502083333333303, "replace_image": false, "start": 0, "title": "Transition", "contrast": {"Points": [{"interpolation": 2, "co": {"X": 1.0, "Y": 3.0}}]}, "position": 74.533125, "reader": {"height": 576, "pixel_ratio": {"num": 1, "den": 1}, "has_single_image": true, "audio_timebase": {"num": 1, "den": 1}, "audio_stream_index": -1, "display_ratio": {"num": 5, "den": 4}, "channel_layout": 4, "has_audio": false, "video_timebase": {"num": 1, "den": 30}, "video_bit_rate": 0, "duration": 86400.0, "fps": {"num": 30, "den": 1}, "channels": 0, "has_video": true, "video_stream_index": -1, "width": 720, "acodec": "", "top_field_first": true, "pixel_format": -1, "vcodec": "", "file_size": "1658880", "path": "@transitions\\common\\fade.svg", "type": "QtImageReader", "sample_rate": 0, "interlaced_frame": false, "video_length": "2592000", "audio_bit_rate": 0}, "type": "Mask", "brightness": {"Points": [{"interpolation": 0, "handle_left": {"X": 0.5, "Y": 1.0}, "handle_right": {"X": 0.5, "Y": 0.0}, "co": {"X": 1.0, "Y": 1.0}, "handle_type": 0}, {"interpolation": 0, "handle_left": {"X": 0.5, "Y": 1.0}, "handle_right": {"X": 0.5, "Y": 0.0}, "co": {"X": 14.0, "Y": -1.0}, "handle_type": 0}]}, "id": "2ED1BNYUMM", "layer": 4}, {"end": 0.7401041666666686, "replace_image": false, "start": 0, "title": "Transition", "contrast": {"Points": [{"interpolation": 2, "co": {"X": 1.0, "Y": 3.0}}]}, "position": 82.5515625, "reader": {"height": 576, "pixel_ratio": {"num": 1, "den": 1}, "has_single_image": true, "audio_timebase": {"num": 1, "den": 1}, "audio_stream_index": -1, "display_ratio": {"num": 5, "den": 4}, "channel_layout": 4, "has_audio": false, "video_timebase": {"num": 1, "den": 30}, "video_bit_rate": 0, "duration": 86400.0, "fps": {"num": 30, "den": 1}, "channels": 0, "has_video": true, "video_stream_index": -1, "width": 720, "acodec": "", "top_field_first": true, "pixel_format": -1, "vcodec": "", "file_size": "1658880", "path": "@transitions\\common\\fade.svg", "type": "QtImageReader", "sample_rate": 0, "interlaced_frame": false, "video_length": "2592000", "audio_bit_rate": 0}, "type": "Mask", "brightness": {"Points": [{"interpolation": 0, "handle_left": {"X": 0.5, "Y": 1.0}, "handle_right": {"X": 0.5, "Y": 0.0}, "co": {"X": 1.0, "Y": 1.0}, "handle_type": 0}, {"interpolation": 0, "handle_left": {"X": 0.5, "Y": 1.0}, "handle_right": {"X": 0.5, "Y": 0.0}, "co": {"X": 19.0, "Y": -1.0}, "handle_type": 0}]}, "id": "SI356KZ7A2", "layer": 4}], "fps": {"num": 24, "den": 1}, "settings": {}, "sample_rate": 44100, "duration": 300, "markers": [{"icon": "blue.png", "id": "2FKZLAEB97", "position": 0.041666666666666664}], "playhead_position": 0, "channels": 2}